%TF.GenerationSoftware,KiCad,Pcbnew,7.0.10*%
%TF.CreationDate,2024-06-08T13:21:26-05:00*%
%TF.ProjectId,viewer_rev2,76696577-6572-45f7-9265-76322e6b6963,rev?*%
%TF.SameCoordinates,PX62b48e0PY1ba8140*%
%TF.FileFunction,Soldermask,Top*%
%TF.FilePolarity,Negative*%
%FSLAX46Y46*%
G04 Gerber Fmt 4.6, Leading zero omitted, Abs format (unit mm)*
G04 Created by KiCad (PCBNEW 7.0.10) date 2024-06-08 13:21:26*
%MOMM*%
%LPD*%
G01*
G04 APERTURE LIST*
G04 Aperture macros list*
%AMRoundRect*
0 Rectangle with rounded corners*
0 $1 Rounding radius*
0 $2 $3 $4 $5 $6 $7 $8 $9 X,Y pos of 4 corners*
0 Add a 4 corners polygon primitive as box body*
4,1,4,$2,$3,$4,$5,$6,$7,$8,$9,$2,$3,0*
0 Add four circle primitives for the rounded corners*
1,1,$1+$1,$2,$3*
1,1,$1+$1,$4,$5*
1,1,$1+$1,$6,$7*
1,1,$1+$1,$8,$9*
0 Add four rect primitives between the rounded corners*
20,1,$1+$1,$2,$3,$4,$5,0*
20,1,$1+$1,$4,$5,$6,$7,0*
20,1,$1+$1,$6,$7,$8,$9,0*
20,1,$1+$1,$8,$9,$2,$3,0*%
G04 Aperture macros list end*
%ADD10RoundRect,0.200000X-0.200000X-0.275000X0.200000X-0.275000X0.200000X0.275000X-0.200000X0.275000X0*%
%ADD11RoundRect,0.218750X-0.218750X-0.256250X0.218750X-0.256250X0.218750X0.256250X-0.218750X0.256250X0*%
%ADD12RoundRect,0.200000X-0.275000X0.200000X-0.275000X-0.200000X0.275000X-0.200000X0.275000X0.200000X0*%
%ADD13RoundRect,0.225000X-0.225000X-0.250000X0.225000X-0.250000X0.225000X0.250000X-0.225000X0.250000X0*%
%ADD14RoundRect,0.225000X0.225000X0.250000X-0.225000X0.250000X-0.225000X-0.250000X0.225000X-0.250000X0*%
%ADD15RoundRect,0.225000X-0.225000X-0.375000X0.225000X-0.375000X0.225000X0.375000X-0.225000X0.375000X0*%
%ADD16R,2.000000X1.500000*%
%ADD17R,2.000000X3.800000*%
%ADD18C,5.600000*%
%ADD19C,2.000000*%
%ADD20C,1.700000*%
%ADD21RoundRect,0.200000X0.200000X0.275000X-0.200000X0.275000X-0.200000X-0.275000X0.200000X-0.275000X0*%
%ADD22RoundRect,0.225000X0.225000X0.375000X-0.225000X0.375000X-0.225000X-0.375000X0.225000X-0.375000X0*%
%ADD23C,4.600000*%
%ADD24C,1.800000*%
%ADD25C,0.650000*%
%ADD26RoundRect,0.150000X-0.150000X-0.425000X0.150000X-0.425000X0.150000X0.425000X-0.150000X0.425000X0*%
%ADD27RoundRect,0.075000X-0.075000X-0.500000X0.075000X-0.500000X0.075000X0.500000X-0.075000X0.500000X0*%
%ADD28O,1.000000X2.100000*%
%ADD29O,1.000000X1.800000*%
%ADD30RoundRect,0.150000X-0.825000X-0.150000X0.825000X-0.150000X0.825000X0.150000X-0.825000X0.150000X0*%
%ADD31RoundRect,0.225000X-0.250000X0.225000X-0.250000X-0.225000X0.250000X-0.225000X0.250000X0.225000X0*%
G04 APERTURE END LIST*
D10*
%TO.C,R18*%
X13650000Y-30840000D03*
X15300000Y-30840000D03*
%TD*%
D11*
%TO.C,D43*%
X49712500Y-47240000D03*
X51287500Y-47240000D03*
%TD*%
D12*
%TO.C,R3*%
X67250000Y-100040000D03*
X67250000Y-101690000D03*
%TD*%
D11*
%TO.C,D77*%
X31712500Y-74240000D03*
X33287500Y-74240000D03*
%TD*%
%TO.C,D76*%
X22712500Y-74240000D03*
X24287500Y-74240000D03*
%TD*%
D10*
%TO.C,R26*%
X85650000Y-30840000D03*
X87300000Y-30840000D03*
%TD*%
%TO.C,R59*%
X58650000Y-57840000D03*
X60300000Y-57840000D03*
%TD*%
%TO.C,R6*%
X13650000Y-21840000D03*
X15300000Y-21840000D03*
%TD*%
D11*
%TO.C,D61*%
X103712500Y-56240000D03*
X105287500Y-56240000D03*
%TD*%
D10*
%TO.C,R90*%
X13650000Y-84840000D03*
X15300000Y-84840000D03*
%TD*%
%TO.C,R70*%
X49650000Y-66840000D03*
X51300000Y-66840000D03*
%TD*%
D11*
%TO.C,D23*%
X85712500Y-29240000D03*
X87287500Y-29240000D03*
%TD*%
D10*
%TO.C,R63*%
X94650000Y-57840000D03*
X96300000Y-57840000D03*
%TD*%
D13*
%TO.C,C2*%
X64975000Y-106500000D03*
X66525000Y-106500000D03*
%TD*%
D10*
%TO.C,R5*%
X55925000Y-100900000D03*
X57575000Y-100900000D03*
%TD*%
%TO.C,R11*%
X58650000Y-21840000D03*
X60300000Y-21840000D03*
%TD*%
D11*
%TO.C,D70*%
X76712500Y-65240000D03*
X78287500Y-65240000D03*
%TD*%
D10*
%TO.C,R79*%
X22650000Y-75840000D03*
X24300000Y-75840000D03*
%TD*%
%TO.C,R80*%
X31650000Y-75840000D03*
X33300000Y-75840000D03*
%TD*%
%TO.C,R33*%
X40650000Y-39840000D03*
X42300000Y-39840000D03*
%TD*%
D11*
%TO.C,D17*%
X31712500Y-29240000D03*
X33287500Y-29240000D03*
%TD*%
%TO.C,D81*%
X67712500Y-74240000D03*
X69287500Y-74240000D03*
%TD*%
%TO.C,D6*%
X40712500Y-20240000D03*
X42287500Y-20240000D03*
%TD*%
D14*
%TO.C,C1*%
X65050000Y-98865000D03*
X63500000Y-98865000D03*
%TD*%
D15*
%TO.C,D2*%
X69850000Y-101750000D03*
X73150000Y-101750000D03*
%TD*%
D11*
%TO.C,D68*%
X58712500Y-65240000D03*
X60287500Y-65240000D03*
%TD*%
D10*
%TO.C,R19*%
X22650000Y-30840000D03*
X24300000Y-30840000D03*
%TD*%
D11*
%TO.C,D53*%
X31712500Y-56240000D03*
X33287500Y-56240000D03*
%TD*%
D10*
%TO.C,R34*%
X49650000Y-39840000D03*
X51300000Y-39840000D03*
%TD*%
%TO.C,R42*%
X13650000Y-48840000D03*
X15300000Y-48840000D03*
%TD*%
%TO.C,R1*%
X22175000Y-98500000D03*
X23825000Y-98500000D03*
%TD*%
D16*
%TO.C,Q1*%
X53150000Y-102800000D03*
X53150000Y-100500000D03*
D17*
X46850000Y-100500000D03*
D16*
X53150000Y-98200000D03*
%TD*%
D10*
%TO.C,R44*%
X31650000Y-48840000D03*
X33300000Y-48840000D03*
%TD*%
D11*
%TO.C,D27*%
X13712500Y-38240000D03*
X15287500Y-38240000D03*
%TD*%
D10*
%TO.C,R52*%
X103650000Y-48840000D03*
X105300000Y-48840000D03*
%TD*%
%TO.C,R32*%
X31650000Y-39840000D03*
X33300000Y-39840000D03*
%TD*%
%TO.C,R50*%
X85650000Y-48840000D03*
X87300000Y-48840000D03*
%TD*%
D11*
%TO.C,D64*%
X22712500Y-65240000D03*
X24287500Y-65240000D03*
%TD*%
%TO.C,D78*%
X40712500Y-74240000D03*
X42287500Y-74240000D03*
%TD*%
%TO.C,D34*%
X76712500Y-38240000D03*
X78287500Y-38240000D03*
%TD*%
D10*
%TO.C,R47*%
X58650000Y-48840000D03*
X60300000Y-48840000D03*
%TD*%
D11*
%TO.C,D9*%
X67712500Y-20240000D03*
X69287500Y-20240000D03*
%TD*%
D10*
%TO.C,R30*%
X13650000Y-39840000D03*
X15300000Y-39840000D03*
%TD*%
D11*
%TO.C,D75*%
X13712500Y-74240000D03*
X15287500Y-74240000D03*
%TD*%
%TO.C,D69*%
X67712500Y-65240000D03*
X69287500Y-65240000D03*
%TD*%
D18*
%TO.C,H1*%
X4000000Y-4000000D03*
%TD*%
D10*
%TO.C,R40*%
X103650000Y-39840000D03*
X105300000Y-39840000D03*
%TD*%
%TO.C,R94*%
X49650000Y-84840000D03*
X51300000Y-84840000D03*
%TD*%
%TO.C,R97*%
X76650000Y-84840000D03*
X78300000Y-84840000D03*
%TD*%
%TO.C,R38*%
X85650000Y-39840000D03*
X87300000Y-39840000D03*
%TD*%
D11*
%TO.C,D67*%
X49712500Y-65240000D03*
X51287500Y-65240000D03*
%TD*%
D10*
%TO.C,R16*%
X103650000Y-21840000D03*
X105300000Y-21840000D03*
%TD*%
%TO.C,R89*%
X112650000Y-75840000D03*
X114300000Y-75840000D03*
%TD*%
D11*
%TO.C,D31*%
X49712500Y-38240000D03*
X51287500Y-38240000D03*
%TD*%
%TO.C,D28*%
X22712500Y-38240000D03*
X24287500Y-38240000D03*
%TD*%
D10*
%TO.C,R61*%
X76650000Y-57840000D03*
X78300000Y-57840000D03*
%TD*%
%TO.C,R66*%
X13650000Y-66840000D03*
X15300000Y-66840000D03*
%TD*%
D19*
%TO.C,SW1*%
X31542500Y-100750000D03*
X31542500Y-106750000D03*
X43542500Y-100750000D03*
X43542500Y-106750000D03*
D20*
X33542500Y-102500000D03*
X37542500Y-102500000D03*
X41542500Y-102500000D03*
%TD*%
D11*
%TO.C,D82*%
X76712500Y-74240000D03*
X78287500Y-74240000D03*
%TD*%
%TO.C,D54*%
X40712500Y-56240000D03*
X42287500Y-56240000D03*
%TD*%
%TO.C,D44*%
X58712500Y-47240000D03*
X60287500Y-47240000D03*
%TD*%
D18*
%TO.C,H2*%
X124000000Y-4000000D03*
%TD*%
D11*
%TO.C,D66*%
X40712500Y-65240000D03*
X42287500Y-65240000D03*
%TD*%
D21*
%TO.C,R4*%
X57575000Y-103000000D03*
X55925000Y-103000000D03*
%TD*%
D10*
%TO.C,R81*%
X40650000Y-75840000D03*
X42300000Y-75840000D03*
%TD*%
%TO.C,R14*%
X85650000Y-21840000D03*
X87300000Y-21840000D03*
%TD*%
D11*
%TO.C,D4*%
X22712500Y-20240000D03*
X24287500Y-20240000D03*
%TD*%
D10*
%TO.C,R93*%
X40650000Y-84840000D03*
X42300000Y-84840000D03*
%TD*%
%TO.C,R78*%
X13650000Y-75840000D03*
X15300000Y-75840000D03*
%TD*%
D11*
%TO.C,D98*%
X112712500Y-83240000D03*
X114287500Y-83240000D03*
%TD*%
%TO.C,D24*%
X94712500Y-29240000D03*
X96287500Y-29240000D03*
%TD*%
D22*
%TO.C,D1*%
X73150000Y-97800000D03*
X69850000Y-97800000D03*
%TD*%
D10*
%TO.C,R100*%
X103650000Y-84840000D03*
X105300000Y-84840000D03*
%TD*%
D11*
%TO.C,D85*%
X103712500Y-74240000D03*
X105287500Y-74240000D03*
%TD*%
%TO.C,D20*%
X58712500Y-29240000D03*
X60287500Y-29240000D03*
%TD*%
%TO.C,D22*%
X76712500Y-29240000D03*
X78287500Y-29240000D03*
%TD*%
D10*
%TO.C,R95*%
X58650000Y-84840000D03*
X60300000Y-84840000D03*
%TD*%
D11*
%TO.C,D47*%
X85712500Y-47240000D03*
X87287500Y-47240000D03*
%TD*%
D10*
%TO.C,R27*%
X94650000Y-30840000D03*
X96300000Y-30840000D03*
%TD*%
%TO.C,R67*%
X22650000Y-66840000D03*
X24300000Y-66840000D03*
%TD*%
D11*
%TO.C,D62*%
X112712500Y-56240000D03*
X114287500Y-56240000D03*
%TD*%
%TO.C,D79*%
X49712500Y-74240000D03*
X51287500Y-74240000D03*
%TD*%
D10*
%TO.C,R71*%
X58650000Y-66840000D03*
X60300000Y-66840000D03*
%TD*%
%TO.C,R60*%
X67650000Y-57840000D03*
X69300000Y-57840000D03*
%TD*%
%TO.C,R77*%
X112650000Y-66840000D03*
X114300000Y-66840000D03*
%TD*%
D11*
%TO.C,D49*%
X103712500Y-47240000D03*
X105287500Y-47240000D03*
%TD*%
%TO.C,D3*%
X13712500Y-20240000D03*
X15287500Y-20240000D03*
%TD*%
D23*
%TO.C,RV1*%
X88250000Y-100700000D03*
X78250000Y-100700000D03*
D24*
X80750000Y-104000000D03*
X83250000Y-104000000D03*
X85750000Y-104000000D03*
%TD*%
D10*
%TO.C,R29*%
X112650000Y-30840000D03*
X114300000Y-30840000D03*
%TD*%
D11*
%TO.C,D90*%
X40712500Y-83240000D03*
X42287500Y-83240000D03*
%TD*%
D10*
%TO.C,R58*%
X49650000Y-57840000D03*
X51300000Y-57840000D03*
%TD*%
D11*
%TO.C,D57*%
X67712500Y-56240000D03*
X69287500Y-56240000D03*
%TD*%
D10*
%TO.C,R12*%
X67650000Y-21840000D03*
X69300000Y-21840000D03*
%TD*%
%TO.C,R46*%
X49650000Y-48840000D03*
X51300000Y-48840000D03*
%TD*%
%TO.C,R2*%
X25225000Y-97700000D03*
X26875000Y-97700000D03*
%TD*%
%TO.C,R55*%
X22650000Y-57840000D03*
X24300000Y-57840000D03*
%TD*%
%TO.C,R65*%
X112650000Y-57840000D03*
X114300000Y-57840000D03*
%TD*%
D11*
%TO.C,D72*%
X94712500Y-65240000D03*
X96287500Y-65240000D03*
%TD*%
%TO.C,D58*%
X76712500Y-56240000D03*
X78287500Y-56240000D03*
%TD*%
%TO.C,D80*%
X58712500Y-74240000D03*
X60287500Y-74240000D03*
%TD*%
D10*
%TO.C,R72*%
X67650000Y-66840000D03*
X69300000Y-66840000D03*
%TD*%
D11*
%TO.C,D26*%
X112712500Y-29240000D03*
X114287500Y-29240000D03*
%TD*%
D10*
%TO.C,R53*%
X112650000Y-48840000D03*
X114300000Y-48840000D03*
%TD*%
D11*
%TO.C,D89*%
X31712500Y-83240000D03*
X33287500Y-83240000D03*
%TD*%
D10*
%TO.C,R51*%
X94650000Y-48840000D03*
X96300000Y-48840000D03*
%TD*%
D11*
%TO.C,D52*%
X22712500Y-56240000D03*
X24287500Y-56240000D03*
%TD*%
D10*
%TO.C,R85*%
X76650000Y-75840000D03*
X78300000Y-75840000D03*
%TD*%
%TO.C,R43*%
X22650000Y-48840000D03*
X24300000Y-48840000D03*
%TD*%
%TO.C,R62*%
X85650000Y-57840000D03*
X87300000Y-57840000D03*
%TD*%
D11*
%TO.C,D30*%
X40712500Y-38240000D03*
X42287500Y-38240000D03*
%TD*%
D10*
%TO.C,R48*%
X67650000Y-48840000D03*
X69300000Y-48840000D03*
%TD*%
%TO.C,R84*%
X67650000Y-75840000D03*
X69300000Y-75840000D03*
%TD*%
%TO.C,R9*%
X40650000Y-21840000D03*
X42300000Y-21840000D03*
%TD*%
D11*
%TO.C,D73*%
X103712500Y-65240000D03*
X105287500Y-65240000D03*
%TD*%
D10*
%TO.C,R8*%
X31650000Y-21840000D03*
X33300000Y-21840000D03*
%TD*%
D11*
%TO.C,D32*%
X58712500Y-38240000D03*
X60287500Y-38240000D03*
%TD*%
D10*
%TO.C,R64*%
X103650000Y-57840000D03*
X105300000Y-57840000D03*
%TD*%
D11*
%TO.C,D95*%
X85712500Y-83240000D03*
X87287500Y-83240000D03*
%TD*%
%TO.C,D19*%
X49712500Y-29240000D03*
X51287500Y-29240000D03*
%TD*%
%TO.C,D55*%
X49712500Y-56240000D03*
X51287500Y-56240000D03*
%TD*%
%TO.C,D8*%
X58712500Y-20240000D03*
X60287500Y-20240000D03*
%TD*%
D10*
%TO.C,R13*%
X76650000Y-21840000D03*
X78300000Y-21840000D03*
%TD*%
D18*
%TO.C,H4*%
X124000000Y-104000000D03*
%TD*%
D11*
%TO.C,D83*%
X85712500Y-74240000D03*
X87287500Y-74240000D03*
%TD*%
D10*
%TO.C,R74*%
X85650000Y-66840000D03*
X87300000Y-66840000D03*
%TD*%
%TO.C,R35*%
X58650000Y-39840000D03*
X60300000Y-39840000D03*
%TD*%
D11*
%TO.C,D11*%
X85712500Y-20240000D03*
X87287500Y-20240000D03*
%TD*%
D10*
%TO.C,R99*%
X94650000Y-84840000D03*
X96300000Y-84840000D03*
%TD*%
D11*
%TO.C,D15*%
X13712500Y-29240000D03*
X15287500Y-29240000D03*
%TD*%
%TO.C,D29*%
X31712500Y-38240000D03*
X33287500Y-38240000D03*
%TD*%
%TO.C,D74*%
X112712500Y-65240000D03*
X114287500Y-65240000D03*
%TD*%
%TO.C,D51*%
X13712500Y-56240000D03*
X15287500Y-56240000D03*
%TD*%
%TO.C,D38*%
X112712500Y-38240000D03*
X114287500Y-38240000D03*
%TD*%
D25*
%TO.C,J2*%
X20360000Y-101745000D03*
X26140000Y-101745000D03*
D26*
X20050000Y-100670000D03*
X20850000Y-100670000D03*
D27*
X22000000Y-100670000D03*
X23000000Y-100670000D03*
X23500000Y-100670000D03*
X24500000Y-100670000D03*
D26*
X25650000Y-100670000D03*
X26450000Y-100670000D03*
X26450000Y-100670000D03*
X25650000Y-100670000D03*
D27*
X25000000Y-100670000D03*
X24000000Y-100670000D03*
X22500000Y-100670000D03*
X21500000Y-100670000D03*
D26*
X20850000Y-100670000D03*
X20050000Y-100670000D03*
D28*
X18930000Y-101245000D03*
D29*
X18930000Y-105425000D03*
D28*
X27570000Y-101245000D03*
D29*
X27570000Y-105425000D03*
%TD*%
D10*
%TO.C,R22*%
X49650000Y-30840000D03*
X51300000Y-30840000D03*
%TD*%
%TO.C,R69*%
X40650000Y-66840000D03*
X42300000Y-66840000D03*
%TD*%
D11*
%TO.C,D45*%
X67712500Y-47240000D03*
X69287500Y-47240000D03*
%TD*%
%TO.C,D35*%
X85712500Y-38240000D03*
X87287500Y-38240000D03*
%TD*%
%TO.C,D12*%
X94712500Y-20240000D03*
X96287500Y-20240000D03*
%TD*%
D10*
%TO.C,R10*%
X49650000Y-21840000D03*
X51300000Y-21840000D03*
%TD*%
D11*
%TO.C,D40*%
X22712500Y-47240000D03*
X24287500Y-47240000D03*
%TD*%
D10*
%TO.C,R21*%
X40650000Y-30840000D03*
X42300000Y-30840000D03*
%TD*%
D11*
%TO.C,D10*%
X76712500Y-20240000D03*
X78287500Y-20240000D03*
%TD*%
D10*
%TO.C,R101*%
X112650000Y-84840000D03*
X114300000Y-84840000D03*
%TD*%
D11*
%TO.C,D13*%
X103712500Y-20240000D03*
X105287500Y-20240000D03*
%TD*%
D10*
%TO.C,R36*%
X67650000Y-39840000D03*
X69300000Y-39840000D03*
%TD*%
%TO.C,R75*%
X94650000Y-66840000D03*
X96300000Y-66840000D03*
%TD*%
D11*
%TO.C,D7*%
X49712500Y-20240000D03*
X51287500Y-20240000D03*
%TD*%
%TO.C,D92*%
X58712500Y-83240000D03*
X60287500Y-83240000D03*
%TD*%
D10*
%TO.C,R37*%
X76650000Y-39840000D03*
X78300000Y-39840000D03*
%TD*%
D11*
%TO.C,D91*%
X49712500Y-83240000D03*
X51287500Y-83240000D03*
%TD*%
D10*
%TO.C,R31*%
X22650000Y-39840000D03*
X24300000Y-39840000D03*
%TD*%
%TO.C,R57*%
X40650000Y-57840000D03*
X42300000Y-57840000D03*
%TD*%
D11*
%TO.C,D86*%
X112712500Y-74240000D03*
X114287500Y-74240000D03*
%TD*%
%TO.C,D48*%
X94712500Y-47240000D03*
X96287500Y-47240000D03*
%TD*%
D10*
%TO.C,R45*%
X40650000Y-48840000D03*
X42300000Y-48840000D03*
%TD*%
D11*
%TO.C,D94*%
X76712500Y-83240000D03*
X78287500Y-83240000D03*
%TD*%
%TO.C,D21*%
X67712500Y-29240000D03*
X69287500Y-29240000D03*
%TD*%
D30*
%TO.C,U1*%
X60025000Y-100595000D03*
X60025000Y-101865000D03*
X60025000Y-103135000D03*
X60025000Y-104405000D03*
X64975000Y-104405000D03*
X64975000Y-103135000D03*
X64975000Y-101865000D03*
X64975000Y-100595000D03*
%TD*%
D11*
%TO.C,D41*%
X31712500Y-47240000D03*
X33287500Y-47240000D03*
%TD*%
%TO.C,D33*%
X67712500Y-38240000D03*
X69287500Y-38240000D03*
%TD*%
D10*
%TO.C,R17*%
X112650000Y-21840000D03*
X114300000Y-21840000D03*
%TD*%
%TO.C,R88*%
X103650000Y-75840000D03*
X105300000Y-75840000D03*
%TD*%
D11*
%TO.C,D46*%
X76712500Y-47240000D03*
X78287500Y-47240000D03*
%TD*%
D10*
%TO.C,R92*%
X31650000Y-84840000D03*
X33300000Y-84840000D03*
%TD*%
D31*
%TO.C,C3*%
X67250000Y-103340000D03*
X67250000Y-104890000D03*
%TD*%
D11*
%TO.C,D56*%
X58712500Y-56240000D03*
X60287500Y-56240000D03*
%TD*%
D10*
%TO.C,R41*%
X112650000Y-39840000D03*
X114300000Y-39840000D03*
%TD*%
%TO.C,R96*%
X67650000Y-84840000D03*
X69300000Y-84840000D03*
%TD*%
%TO.C,R83*%
X58650000Y-75840000D03*
X60300000Y-75840000D03*
%TD*%
D11*
%TO.C,D60*%
X94712500Y-56240000D03*
X96287500Y-56240000D03*
%TD*%
%TO.C,D36*%
X94712500Y-38240000D03*
X96287500Y-38240000D03*
%TD*%
D10*
%TO.C,R39*%
X94650000Y-39840000D03*
X96300000Y-39840000D03*
%TD*%
D11*
%TO.C,D59*%
X85712500Y-56240000D03*
X87287500Y-56240000D03*
%TD*%
D10*
%TO.C,R73*%
X76650000Y-66840000D03*
X78300000Y-66840000D03*
%TD*%
D18*
%TO.C,H3*%
X4000000Y-104000000D03*
%TD*%
D10*
%TO.C,R25*%
X76650000Y-30840000D03*
X78300000Y-30840000D03*
%TD*%
D11*
%TO.C,D5*%
X31712500Y-20240000D03*
X33287500Y-20240000D03*
%TD*%
%TO.C,D37*%
X103712500Y-38240000D03*
X105287500Y-38240000D03*
%TD*%
D10*
%TO.C,R76*%
X103650000Y-66840000D03*
X105300000Y-66840000D03*
%TD*%
%TO.C,R91*%
X22650000Y-84840000D03*
X24300000Y-84840000D03*
%TD*%
D11*
%TO.C,D42*%
X40712500Y-47240000D03*
X42287500Y-47240000D03*
%TD*%
%TO.C,D63*%
X13712500Y-65240000D03*
X15287500Y-65240000D03*
%TD*%
%TO.C,D65*%
X31712500Y-65240000D03*
X33287500Y-65240000D03*
%TD*%
%TO.C,D25*%
X103712500Y-29240000D03*
X105287500Y-29240000D03*
%TD*%
D10*
%TO.C,R82*%
X49650000Y-75840000D03*
X51300000Y-75840000D03*
%TD*%
%TO.C,R54*%
X13650000Y-57840000D03*
X15300000Y-57840000D03*
%TD*%
D11*
%TO.C,D97*%
X103712500Y-83240000D03*
X105287500Y-83240000D03*
%TD*%
D10*
%TO.C,R56*%
X31650000Y-57840000D03*
X33300000Y-57840000D03*
%TD*%
D11*
%TO.C,D16*%
X22712500Y-29240000D03*
X24287500Y-29240000D03*
%TD*%
%TO.C,D50*%
X112712500Y-47240000D03*
X114287500Y-47240000D03*
%TD*%
D10*
%TO.C,R15*%
X94650000Y-21840000D03*
X96300000Y-21840000D03*
%TD*%
D11*
%TO.C,D88*%
X22712500Y-83240000D03*
X24287500Y-83240000D03*
%TD*%
D10*
%TO.C,R23*%
X58650000Y-30840000D03*
X60300000Y-30840000D03*
%TD*%
%TO.C,R87*%
X94650000Y-75840000D03*
X96300000Y-75840000D03*
%TD*%
%TO.C,R24*%
X67650000Y-30840000D03*
X69300000Y-30840000D03*
%TD*%
%TO.C,R49*%
X76650000Y-48840000D03*
X78300000Y-48840000D03*
%TD*%
D11*
%TO.C,D87*%
X13712500Y-83240000D03*
X15287500Y-83240000D03*
%TD*%
D10*
%TO.C,R7*%
X22650000Y-21840000D03*
X24300000Y-21840000D03*
%TD*%
%TO.C,R98*%
X85650000Y-84840000D03*
X87300000Y-84840000D03*
%TD*%
D11*
%TO.C,D39*%
X13712500Y-47240000D03*
X15287500Y-47240000D03*
%TD*%
D10*
%TO.C,R68*%
X31650000Y-66840000D03*
X33300000Y-66840000D03*
%TD*%
D11*
%TO.C,D93*%
X67712500Y-83240000D03*
X69287500Y-83240000D03*
%TD*%
%TO.C,D71*%
X85712500Y-65240000D03*
X87287500Y-65240000D03*
%TD*%
%TO.C,D84*%
X94712500Y-74240000D03*
X96287500Y-74240000D03*
%TD*%
D10*
%TO.C,R28*%
X103650000Y-30840000D03*
X105300000Y-30840000D03*
%TD*%
D11*
%TO.C,D14*%
X112712500Y-20240000D03*
X114287500Y-20240000D03*
%TD*%
D10*
%TO.C,R86*%
X85650000Y-75840000D03*
X87300000Y-75840000D03*
%TD*%
D11*
%TO.C,D96*%
X94712500Y-83240000D03*
X96287500Y-83240000D03*
%TD*%
%TO.C,D18*%
X40712500Y-29240000D03*
X42287500Y-29240000D03*
%TD*%
D10*
%TO.C,R20*%
X31650000Y-30840000D03*
X33300000Y-30840000D03*
%TD*%
M02*
