%TF.GenerationSoftware,KiCad,Pcbnew,7.0.10*%
%TF.CreationDate,2024-06-08T14:33:12-05:00*%
%TF.ProjectId,viewer_rev2,76696577-6572-45f7-9265-76322e6b6963,rev?*%
%TF.SameCoordinates,PX62b48e0PY1ba8140*%
%TF.FileFunction,Drillmap*%
%TF.FilePolarity,Positive*%
%FSLAX45Y45*%
G04 Gerber Fmt 4.5, Leading zero omitted, Abs format (unit mm)*
G04 Created by KiCad (PCBNEW 7.0.10) date 2024-06-08 14:33:12*
%MOMM*%
%LPD*%
G01*
G04 APERTURE LIST*
%ADD10C,0.050000*%
%ADD11C,0.200000*%
%ADD12C,0.100000*%
G04 APERTURE END LIST*
D10*
X400000Y-10800000D02*
X12400000Y-10800000D01*
X400000Y0D02*
G75*
G03*
X0Y-400000I0J-400000D01*
G01*
X12800000Y-400000D02*
G75*
G03*
X12400000Y0I-400000J0D01*
G01*
X0Y-400000D02*
X0Y-10400000D01*
X0Y-10400000D02*
G75*
G03*
X400000Y-10800000I400000J0D01*
G01*
X400000Y0D02*
X12400000Y0D01*
X12400000Y-10800000D02*
G75*
G03*
X12800000Y-10400000I0J400000D01*
G01*
X12800000Y-400000D02*
X12800000Y-10400000D01*
D11*
D12*
X1678500Y-10142000D02*
X1743500Y-10207000D01*
X1743500Y-10142000D02*
X1678500Y-10207000D01*
X2256500Y-10142000D02*
X2321500Y-10207000D01*
X2321500Y-10142000D02*
X2256500Y-10207000D01*
D11*
X258277Y-11113984D02*
X258277Y-10913984D01*
X258277Y-10913984D02*
X305896Y-10913984D01*
X305896Y-10913984D02*
X334467Y-10923508D01*
X334467Y-10923508D02*
X353515Y-10942555D01*
X353515Y-10942555D02*
X363039Y-10961603D01*
X363039Y-10961603D02*
X372562Y-10999698D01*
X372562Y-10999698D02*
X372562Y-11028270D01*
X372562Y-11028270D02*
X363039Y-11066365D01*
X363039Y-11066365D02*
X353515Y-11085412D01*
X353515Y-11085412D02*
X334467Y-11104460D01*
X334467Y-11104460D02*
X305896Y-11113984D01*
X305896Y-11113984D02*
X258277Y-11113984D01*
X458277Y-11113984D02*
X458277Y-10980650D01*
X458277Y-11018746D02*
X467801Y-10999698D01*
X467801Y-10999698D02*
X477324Y-10990174D01*
X477324Y-10990174D02*
X496372Y-10980650D01*
X496372Y-10980650D02*
X515420Y-10980650D01*
X582086Y-11113984D02*
X582086Y-10980650D01*
X582086Y-10913984D02*
X572563Y-10923508D01*
X572563Y-10923508D02*
X582086Y-10933031D01*
X582086Y-10933031D02*
X591610Y-10923508D01*
X591610Y-10923508D02*
X582086Y-10913984D01*
X582086Y-10913984D02*
X582086Y-10933031D01*
X705896Y-11113984D02*
X686848Y-11104460D01*
X686848Y-11104460D02*
X677324Y-11085412D01*
X677324Y-11085412D02*
X677324Y-10913984D01*
X810658Y-11113984D02*
X791610Y-11104460D01*
X791610Y-11104460D02*
X782086Y-11085412D01*
X782086Y-11085412D02*
X782086Y-10913984D01*
X1039229Y-11113984D02*
X1039229Y-10913984D01*
X1039229Y-10913984D02*
X1105896Y-11056841D01*
X1105896Y-11056841D02*
X1172563Y-10913984D01*
X1172563Y-10913984D02*
X1172563Y-11113984D01*
X1353515Y-11113984D02*
X1353515Y-11009222D01*
X1353515Y-11009222D02*
X1343991Y-10990174D01*
X1343991Y-10990174D02*
X1324944Y-10980650D01*
X1324944Y-10980650D02*
X1286848Y-10980650D01*
X1286848Y-10980650D02*
X1267801Y-10990174D01*
X1353515Y-11104460D02*
X1334467Y-11113984D01*
X1334467Y-11113984D02*
X1286848Y-11113984D01*
X1286848Y-11113984D02*
X1267801Y-11104460D01*
X1267801Y-11104460D02*
X1258277Y-11085412D01*
X1258277Y-11085412D02*
X1258277Y-11066365D01*
X1258277Y-11066365D02*
X1267801Y-11047317D01*
X1267801Y-11047317D02*
X1286848Y-11037793D01*
X1286848Y-11037793D02*
X1334467Y-11037793D01*
X1334467Y-11037793D02*
X1353515Y-11028270D01*
X1448753Y-10980650D02*
X1448753Y-11180650D01*
X1448753Y-10990174D02*
X1467801Y-10980650D01*
X1467801Y-10980650D02*
X1505896Y-10980650D01*
X1505896Y-10980650D02*
X1524943Y-10990174D01*
X1524943Y-10990174D02*
X1534467Y-10999698D01*
X1534467Y-10999698D02*
X1543991Y-11018746D01*
X1543991Y-11018746D02*
X1543991Y-11075889D01*
X1543991Y-11075889D02*
X1534467Y-11094936D01*
X1534467Y-11094936D02*
X1524943Y-11104460D01*
X1524943Y-11104460D02*
X1505896Y-11113984D01*
X1505896Y-11113984D02*
X1467801Y-11113984D01*
X1467801Y-11113984D02*
X1448753Y-11104460D01*
X1629705Y-11094936D02*
X1639229Y-11104460D01*
X1639229Y-11104460D02*
X1629705Y-11113984D01*
X1629705Y-11113984D02*
X1620182Y-11104460D01*
X1620182Y-11104460D02*
X1629705Y-11094936D01*
X1629705Y-11094936D02*
X1629705Y-11113984D01*
X1629705Y-10990174D02*
X1639229Y-10999698D01*
X1639229Y-10999698D02*
X1629705Y-11009222D01*
X1629705Y-11009222D02*
X1620182Y-10999698D01*
X1620182Y-10999698D02*
X1629705Y-10990174D01*
X1629705Y-10990174D02*
X1629705Y-11009222D01*
D12*
X-67500Y-11410000D02*
X-2500Y-11475000D01*
X-2500Y-11410000D02*
X-67500Y-11475000D01*
D11*
X296372Y-11333984D02*
X315420Y-11333984D01*
X315420Y-11333984D02*
X334467Y-11343508D01*
X334467Y-11343508D02*
X343991Y-11353031D01*
X343991Y-11353031D02*
X353515Y-11372079D01*
X353515Y-11372079D02*
X363039Y-11410174D01*
X363039Y-11410174D02*
X363039Y-11457793D01*
X363039Y-11457793D02*
X353515Y-11495888D01*
X353515Y-11495888D02*
X343991Y-11514936D01*
X343991Y-11514936D02*
X334467Y-11524460D01*
X334467Y-11524460D02*
X315420Y-11533984D01*
X315420Y-11533984D02*
X296372Y-11533984D01*
X296372Y-11533984D02*
X277324Y-11524460D01*
X277324Y-11524460D02*
X267801Y-11514936D01*
X267801Y-11514936D02*
X258277Y-11495888D01*
X258277Y-11495888D02*
X248753Y-11457793D01*
X248753Y-11457793D02*
X248753Y-11410174D01*
X248753Y-11410174D02*
X258277Y-11372079D01*
X258277Y-11372079D02*
X267801Y-11353031D01*
X267801Y-11353031D02*
X277324Y-11343508D01*
X277324Y-11343508D02*
X296372Y-11333984D01*
X448753Y-11514936D02*
X458277Y-11524460D01*
X458277Y-11524460D02*
X448753Y-11533984D01*
X448753Y-11533984D02*
X439229Y-11524460D01*
X439229Y-11524460D02*
X448753Y-11514936D01*
X448753Y-11514936D02*
X448753Y-11533984D01*
X629705Y-11333984D02*
X591610Y-11333984D01*
X591610Y-11333984D02*
X572563Y-11343508D01*
X572563Y-11343508D02*
X563039Y-11353031D01*
X563039Y-11353031D02*
X543991Y-11381603D01*
X543991Y-11381603D02*
X534467Y-11419698D01*
X534467Y-11419698D02*
X534467Y-11495888D01*
X534467Y-11495888D02*
X543991Y-11514936D01*
X543991Y-11514936D02*
X553515Y-11524460D01*
X553515Y-11524460D02*
X572563Y-11533984D01*
X572563Y-11533984D02*
X610658Y-11533984D01*
X610658Y-11533984D02*
X629705Y-11524460D01*
X629705Y-11524460D02*
X639229Y-11514936D01*
X639229Y-11514936D02*
X648753Y-11495888D01*
X648753Y-11495888D02*
X648753Y-11448269D01*
X648753Y-11448269D02*
X639229Y-11429222D01*
X639229Y-11429222D02*
X629705Y-11419698D01*
X629705Y-11419698D02*
X610658Y-11410174D01*
X610658Y-11410174D02*
X572563Y-11410174D01*
X572563Y-11410174D02*
X553515Y-11419698D01*
X553515Y-11419698D02*
X543991Y-11429222D01*
X543991Y-11429222D02*
X534467Y-11448269D01*
X829705Y-11333984D02*
X734467Y-11333984D01*
X734467Y-11333984D02*
X724943Y-11429222D01*
X724943Y-11429222D02*
X734467Y-11419698D01*
X734467Y-11419698D02*
X753515Y-11410174D01*
X753515Y-11410174D02*
X801134Y-11410174D01*
X801134Y-11410174D02*
X820182Y-11419698D01*
X820182Y-11419698D02*
X829705Y-11429222D01*
X829705Y-11429222D02*
X839229Y-11448269D01*
X839229Y-11448269D02*
X839229Y-11495888D01*
X839229Y-11495888D02*
X829705Y-11514936D01*
X829705Y-11514936D02*
X820182Y-11524460D01*
X820182Y-11524460D02*
X801134Y-11533984D01*
X801134Y-11533984D02*
X753515Y-11533984D01*
X753515Y-11533984D02*
X734467Y-11524460D01*
X734467Y-11524460D02*
X724943Y-11514936D01*
X963039Y-11333984D02*
X982086Y-11333984D01*
X982086Y-11333984D02*
X1001134Y-11343508D01*
X1001134Y-11343508D02*
X1010658Y-11353031D01*
X1010658Y-11353031D02*
X1020182Y-11372079D01*
X1020182Y-11372079D02*
X1029705Y-11410174D01*
X1029705Y-11410174D02*
X1029705Y-11457793D01*
X1029705Y-11457793D02*
X1020182Y-11495888D01*
X1020182Y-11495888D02*
X1010658Y-11514936D01*
X1010658Y-11514936D02*
X1001134Y-11524460D01*
X1001134Y-11524460D02*
X982086Y-11533984D01*
X982086Y-11533984D02*
X963039Y-11533984D01*
X963039Y-11533984D02*
X943991Y-11524460D01*
X943991Y-11524460D02*
X934467Y-11514936D01*
X934467Y-11514936D02*
X924943Y-11495888D01*
X924943Y-11495888D02*
X915420Y-11457793D01*
X915420Y-11457793D02*
X915420Y-11410174D01*
X915420Y-11410174D02*
X924943Y-11372079D01*
X924943Y-11372079D02*
X934467Y-11353031D01*
X934467Y-11353031D02*
X943991Y-11343508D01*
X943991Y-11343508D02*
X963039Y-11333984D01*
X1115420Y-11533984D02*
X1115420Y-11400650D01*
X1115420Y-11419698D02*
X1124944Y-11410174D01*
X1124944Y-11410174D02*
X1143991Y-11400650D01*
X1143991Y-11400650D02*
X1172563Y-11400650D01*
X1172563Y-11400650D02*
X1191610Y-11410174D01*
X1191610Y-11410174D02*
X1201134Y-11429222D01*
X1201134Y-11429222D02*
X1201134Y-11533984D01*
X1201134Y-11429222D02*
X1210658Y-11410174D01*
X1210658Y-11410174D02*
X1229705Y-11400650D01*
X1229705Y-11400650D02*
X1258277Y-11400650D01*
X1258277Y-11400650D02*
X1277325Y-11410174D01*
X1277325Y-11410174D02*
X1286848Y-11429222D01*
X1286848Y-11429222D02*
X1286848Y-11533984D01*
X1382086Y-11533984D02*
X1382086Y-11400650D01*
X1382086Y-11419698D02*
X1391610Y-11410174D01*
X1391610Y-11410174D02*
X1410658Y-11400650D01*
X1410658Y-11400650D02*
X1439229Y-11400650D01*
X1439229Y-11400650D02*
X1458277Y-11410174D01*
X1458277Y-11410174D02*
X1467801Y-11429222D01*
X1467801Y-11429222D02*
X1467801Y-11533984D01*
X1467801Y-11429222D02*
X1477324Y-11410174D01*
X1477324Y-11410174D02*
X1496372Y-11400650D01*
X1496372Y-11400650D02*
X1524943Y-11400650D01*
X1524943Y-11400650D02*
X1543991Y-11410174D01*
X1543991Y-11410174D02*
X1553515Y-11429222D01*
X1553515Y-11429222D02*
X1553515Y-11533984D01*
X1943991Y-11324460D02*
X1772563Y-11581603D01*
X2201134Y-11333984D02*
X2220182Y-11333984D01*
X2220182Y-11333984D02*
X2239229Y-11343508D01*
X2239229Y-11343508D02*
X2248753Y-11353031D01*
X2248753Y-11353031D02*
X2258277Y-11372079D01*
X2258277Y-11372079D02*
X2267801Y-11410174D01*
X2267801Y-11410174D02*
X2267801Y-11457793D01*
X2267801Y-11457793D02*
X2258277Y-11495888D01*
X2258277Y-11495888D02*
X2248753Y-11514936D01*
X2248753Y-11514936D02*
X2239229Y-11524460D01*
X2239229Y-11524460D02*
X2220182Y-11533984D01*
X2220182Y-11533984D02*
X2201134Y-11533984D01*
X2201134Y-11533984D02*
X2182087Y-11524460D01*
X2182087Y-11524460D02*
X2172563Y-11514936D01*
X2172563Y-11514936D02*
X2163039Y-11495888D01*
X2163039Y-11495888D02*
X2153515Y-11457793D01*
X2153515Y-11457793D02*
X2153515Y-11410174D01*
X2153515Y-11410174D02*
X2163039Y-11372079D01*
X2163039Y-11372079D02*
X2172563Y-11353031D01*
X2172563Y-11353031D02*
X2182087Y-11343508D01*
X2182087Y-11343508D02*
X2201134Y-11333984D01*
X2353515Y-11514936D02*
X2363039Y-11524460D01*
X2363039Y-11524460D02*
X2353515Y-11533984D01*
X2353515Y-11533984D02*
X2343991Y-11524460D01*
X2343991Y-11524460D02*
X2353515Y-11514936D01*
X2353515Y-11514936D02*
X2353515Y-11533984D01*
X2486848Y-11333984D02*
X2505896Y-11333984D01*
X2505896Y-11333984D02*
X2524944Y-11343508D01*
X2524944Y-11343508D02*
X2534468Y-11353031D01*
X2534468Y-11353031D02*
X2543991Y-11372079D01*
X2543991Y-11372079D02*
X2553515Y-11410174D01*
X2553515Y-11410174D02*
X2553515Y-11457793D01*
X2553515Y-11457793D02*
X2543991Y-11495888D01*
X2543991Y-11495888D02*
X2534468Y-11514936D01*
X2534468Y-11514936D02*
X2524944Y-11524460D01*
X2524944Y-11524460D02*
X2505896Y-11533984D01*
X2505896Y-11533984D02*
X2486848Y-11533984D01*
X2486848Y-11533984D02*
X2467801Y-11524460D01*
X2467801Y-11524460D02*
X2458277Y-11514936D01*
X2458277Y-11514936D02*
X2448753Y-11495888D01*
X2448753Y-11495888D02*
X2439229Y-11457793D01*
X2439229Y-11457793D02*
X2439229Y-11410174D01*
X2439229Y-11410174D02*
X2448753Y-11372079D01*
X2448753Y-11372079D02*
X2458277Y-11353031D01*
X2458277Y-11353031D02*
X2467801Y-11343508D01*
X2467801Y-11343508D02*
X2486848Y-11333984D01*
X2629706Y-11353031D02*
X2639229Y-11343508D01*
X2639229Y-11343508D02*
X2658277Y-11333984D01*
X2658277Y-11333984D02*
X2705896Y-11333984D01*
X2705896Y-11333984D02*
X2724944Y-11343508D01*
X2724944Y-11343508D02*
X2734468Y-11353031D01*
X2734468Y-11353031D02*
X2743991Y-11372079D01*
X2743991Y-11372079D02*
X2743991Y-11391127D01*
X2743991Y-11391127D02*
X2734468Y-11419698D01*
X2734468Y-11419698D02*
X2620182Y-11533984D01*
X2620182Y-11533984D02*
X2743991Y-11533984D01*
X2924944Y-11333984D02*
X2829706Y-11333984D01*
X2829706Y-11333984D02*
X2820182Y-11429222D01*
X2820182Y-11429222D02*
X2829706Y-11419698D01*
X2829706Y-11419698D02*
X2848753Y-11410174D01*
X2848753Y-11410174D02*
X2896372Y-11410174D01*
X2896372Y-11410174D02*
X2915420Y-11419698D01*
X2915420Y-11419698D02*
X2924944Y-11429222D01*
X2924944Y-11429222D02*
X2934467Y-11448269D01*
X2934467Y-11448269D02*
X2934467Y-11495888D01*
X2934467Y-11495888D02*
X2924944Y-11514936D01*
X2924944Y-11514936D02*
X2915420Y-11524460D01*
X2915420Y-11524460D02*
X2896372Y-11533984D01*
X2896372Y-11533984D02*
X2848753Y-11533984D01*
X2848753Y-11533984D02*
X2829706Y-11524460D01*
X2829706Y-11524460D02*
X2820182Y-11514936D01*
X3105896Y-11333984D02*
X3067801Y-11333984D01*
X3067801Y-11333984D02*
X3048753Y-11343508D01*
X3048753Y-11343508D02*
X3039229Y-11353031D01*
X3039229Y-11353031D02*
X3020182Y-11381603D01*
X3020182Y-11381603D02*
X3010658Y-11419698D01*
X3010658Y-11419698D02*
X3010658Y-11495888D01*
X3010658Y-11495888D02*
X3020182Y-11514936D01*
X3020182Y-11514936D02*
X3029706Y-11524460D01*
X3029706Y-11524460D02*
X3048753Y-11533984D01*
X3048753Y-11533984D02*
X3086848Y-11533984D01*
X3086848Y-11533984D02*
X3105896Y-11524460D01*
X3105896Y-11524460D02*
X3115420Y-11514936D01*
X3115420Y-11514936D02*
X3124944Y-11495888D01*
X3124944Y-11495888D02*
X3124944Y-11448269D01*
X3124944Y-11448269D02*
X3115420Y-11429222D01*
X3115420Y-11429222D02*
X3105896Y-11419698D01*
X3105896Y-11419698D02*
X3086848Y-11410174D01*
X3086848Y-11410174D02*
X3048753Y-11410174D01*
X3048753Y-11410174D02*
X3029706Y-11419698D01*
X3029706Y-11419698D02*
X3020182Y-11429222D01*
X3020182Y-11429222D02*
X3010658Y-11448269D01*
X3201134Y-11333984D02*
X3201134Y-11372079D01*
X3277325Y-11333984D02*
X3277325Y-11372079D01*
X3572563Y-11610174D02*
X3563039Y-11600650D01*
X3563039Y-11600650D02*
X3543991Y-11572079D01*
X3543991Y-11572079D02*
X3534468Y-11553031D01*
X3534468Y-11553031D02*
X3524944Y-11524460D01*
X3524944Y-11524460D02*
X3515420Y-11476841D01*
X3515420Y-11476841D02*
X3515420Y-11438746D01*
X3515420Y-11438746D02*
X3524944Y-11391127D01*
X3524944Y-11391127D02*
X3534468Y-11362555D01*
X3534468Y-11362555D02*
X3543991Y-11343508D01*
X3543991Y-11343508D02*
X3563039Y-11314936D01*
X3563039Y-11314936D02*
X3572563Y-11305412D01*
X3639229Y-11353031D02*
X3648753Y-11343508D01*
X3648753Y-11343508D02*
X3667801Y-11333984D01*
X3667801Y-11333984D02*
X3715420Y-11333984D01*
X3715420Y-11333984D02*
X3734468Y-11343508D01*
X3734468Y-11343508D02*
X3743991Y-11353031D01*
X3743991Y-11353031D02*
X3753515Y-11372079D01*
X3753515Y-11372079D02*
X3753515Y-11391127D01*
X3753515Y-11391127D02*
X3743991Y-11419698D01*
X3743991Y-11419698D02*
X3629706Y-11533984D01*
X3629706Y-11533984D02*
X3753515Y-11533984D01*
X3991610Y-11533984D02*
X3991610Y-11333984D01*
X4077325Y-11533984D02*
X4077325Y-11429222D01*
X4077325Y-11429222D02*
X4067801Y-11410174D01*
X4067801Y-11410174D02*
X4048753Y-11400650D01*
X4048753Y-11400650D02*
X4020182Y-11400650D01*
X4020182Y-11400650D02*
X4001134Y-11410174D01*
X4001134Y-11410174D02*
X3991610Y-11419698D01*
X4201134Y-11533984D02*
X4182087Y-11524460D01*
X4182087Y-11524460D02*
X4172563Y-11514936D01*
X4172563Y-11514936D02*
X4163039Y-11495888D01*
X4163039Y-11495888D02*
X4163039Y-11438746D01*
X4163039Y-11438746D02*
X4172563Y-11419698D01*
X4172563Y-11419698D02*
X4182087Y-11410174D01*
X4182087Y-11410174D02*
X4201134Y-11400650D01*
X4201134Y-11400650D02*
X4229706Y-11400650D01*
X4229706Y-11400650D02*
X4248753Y-11410174D01*
X4248753Y-11410174D02*
X4258277Y-11419698D01*
X4258277Y-11419698D02*
X4267801Y-11438746D01*
X4267801Y-11438746D02*
X4267801Y-11495888D01*
X4267801Y-11495888D02*
X4258277Y-11514936D01*
X4258277Y-11514936D02*
X4248753Y-11524460D01*
X4248753Y-11524460D02*
X4229706Y-11533984D01*
X4229706Y-11533984D02*
X4201134Y-11533984D01*
X4382087Y-11533984D02*
X4363039Y-11524460D01*
X4363039Y-11524460D02*
X4353515Y-11505412D01*
X4353515Y-11505412D02*
X4353515Y-11333984D01*
X4534468Y-11524460D02*
X4515420Y-11533984D01*
X4515420Y-11533984D02*
X4477325Y-11533984D01*
X4477325Y-11533984D02*
X4458277Y-11524460D01*
X4458277Y-11524460D02*
X4448753Y-11505412D01*
X4448753Y-11505412D02*
X4448753Y-11429222D01*
X4448753Y-11429222D02*
X4458277Y-11410174D01*
X4458277Y-11410174D02*
X4477325Y-11400650D01*
X4477325Y-11400650D02*
X4515420Y-11400650D01*
X4515420Y-11400650D02*
X4534468Y-11410174D01*
X4534468Y-11410174D02*
X4543992Y-11429222D01*
X4543992Y-11429222D02*
X4543992Y-11448269D01*
X4543992Y-11448269D02*
X4448753Y-11467317D01*
X4620182Y-11524460D02*
X4639230Y-11533984D01*
X4639230Y-11533984D02*
X4677325Y-11533984D01*
X4677325Y-11533984D02*
X4696373Y-11524460D01*
X4696373Y-11524460D02*
X4705896Y-11505412D01*
X4705896Y-11505412D02*
X4705896Y-11495888D01*
X4705896Y-11495888D02*
X4696373Y-11476841D01*
X4696373Y-11476841D02*
X4677325Y-11467317D01*
X4677325Y-11467317D02*
X4648753Y-11467317D01*
X4648753Y-11467317D02*
X4629706Y-11457793D01*
X4629706Y-11457793D02*
X4620182Y-11438746D01*
X4620182Y-11438746D02*
X4620182Y-11429222D01*
X4620182Y-11429222D02*
X4629706Y-11410174D01*
X4629706Y-11410174D02*
X4648753Y-11400650D01*
X4648753Y-11400650D02*
X4677325Y-11400650D01*
X4677325Y-11400650D02*
X4696373Y-11410174D01*
X4772563Y-11610174D02*
X4782087Y-11600650D01*
X4782087Y-11600650D02*
X4801134Y-11572079D01*
X4801134Y-11572079D02*
X4810658Y-11553031D01*
X4810658Y-11553031D02*
X4820182Y-11524460D01*
X4820182Y-11524460D02*
X4829706Y-11476841D01*
X4829706Y-11476841D02*
X4829706Y-11438746D01*
X4829706Y-11438746D02*
X4820182Y-11391127D01*
X4820182Y-11391127D02*
X4810658Y-11362555D01*
X4810658Y-11362555D02*
X4801134Y-11343508D01*
X4801134Y-11343508D02*
X4782087Y-11314936D01*
X4782087Y-11314936D02*
X4772563Y-11305412D01*
X5134468Y-11610174D02*
X5124944Y-11600650D01*
X5124944Y-11600650D02*
X5105896Y-11572079D01*
X5105896Y-11572079D02*
X5096373Y-11553031D01*
X5096373Y-11553031D02*
X5086849Y-11524460D01*
X5086849Y-11524460D02*
X5077325Y-11476841D01*
X5077325Y-11476841D02*
X5077325Y-11438746D01*
X5077325Y-11438746D02*
X5086849Y-11391127D01*
X5086849Y-11391127D02*
X5096373Y-11362555D01*
X5096373Y-11362555D02*
X5105896Y-11343508D01*
X5105896Y-11343508D02*
X5124944Y-11314936D01*
X5124944Y-11314936D02*
X5134468Y-11305412D01*
X5210658Y-11400650D02*
X5210658Y-11533984D01*
X5210658Y-11419698D02*
X5220182Y-11410174D01*
X5220182Y-11410174D02*
X5239230Y-11400650D01*
X5239230Y-11400650D02*
X5267801Y-11400650D01*
X5267801Y-11400650D02*
X5286849Y-11410174D01*
X5286849Y-11410174D02*
X5296373Y-11429222D01*
X5296373Y-11429222D02*
X5296373Y-11533984D01*
X5420182Y-11533984D02*
X5401134Y-11524460D01*
X5401134Y-11524460D02*
X5391611Y-11514936D01*
X5391611Y-11514936D02*
X5382087Y-11495888D01*
X5382087Y-11495888D02*
X5382087Y-11438746D01*
X5382087Y-11438746D02*
X5391611Y-11419698D01*
X5391611Y-11419698D02*
X5401134Y-11410174D01*
X5401134Y-11410174D02*
X5420182Y-11400650D01*
X5420182Y-11400650D02*
X5448754Y-11400650D01*
X5448754Y-11400650D02*
X5467801Y-11410174D01*
X5467801Y-11410174D02*
X5477325Y-11419698D01*
X5477325Y-11419698D02*
X5486849Y-11438746D01*
X5486849Y-11438746D02*
X5486849Y-11495888D01*
X5486849Y-11495888D02*
X5477325Y-11514936D01*
X5477325Y-11514936D02*
X5467801Y-11524460D01*
X5467801Y-11524460D02*
X5448754Y-11533984D01*
X5448754Y-11533984D02*
X5420182Y-11533984D01*
X5543992Y-11400650D02*
X5620182Y-11400650D01*
X5572563Y-11333984D02*
X5572563Y-11505412D01*
X5572563Y-11505412D02*
X5582087Y-11524460D01*
X5582087Y-11524460D02*
X5601134Y-11533984D01*
X5601134Y-11533984D02*
X5620182Y-11533984D01*
X5839230Y-11400650D02*
X5839230Y-11600650D01*
X5839230Y-11410174D02*
X5858277Y-11400650D01*
X5858277Y-11400650D02*
X5896373Y-11400650D01*
X5896373Y-11400650D02*
X5915420Y-11410174D01*
X5915420Y-11410174D02*
X5924944Y-11419698D01*
X5924944Y-11419698D02*
X5934468Y-11438746D01*
X5934468Y-11438746D02*
X5934468Y-11495888D01*
X5934468Y-11495888D02*
X5924944Y-11514936D01*
X5924944Y-11514936D02*
X5915420Y-11524460D01*
X5915420Y-11524460D02*
X5896373Y-11533984D01*
X5896373Y-11533984D02*
X5858277Y-11533984D01*
X5858277Y-11533984D02*
X5839230Y-11524460D01*
X6048753Y-11533984D02*
X6029706Y-11524460D01*
X6029706Y-11524460D02*
X6020182Y-11505412D01*
X6020182Y-11505412D02*
X6020182Y-11333984D01*
X6210658Y-11533984D02*
X6210658Y-11429222D01*
X6210658Y-11429222D02*
X6201134Y-11410174D01*
X6201134Y-11410174D02*
X6182087Y-11400650D01*
X6182087Y-11400650D02*
X6143992Y-11400650D01*
X6143992Y-11400650D02*
X6124944Y-11410174D01*
X6210658Y-11524460D02*
X6191611Y-11533984D01*
X6191611Y-11533984D02*
X6143992Y-11533984D01*
X6143992Y-11533984D02*
X6124944Y-11524460D01*
X6124944Y-11524460D02*
X6115420Y-11505412D01*
X6115420Y-11505412D02*
X6115420Y-11486365D01*
X6115420Y-11486365D02*
X6124944Y-11467317D01*
X6124944Y-11467317D02*
X6143992Y-11457793D01*
X6143992Y-11457793D02*
X6191611Y-11457793D01*
X6191611Y-11457793D02*
X6210658Y-11448269D01*
X6277325Y-11400650D02*
X6353515Y-11400650D01*
X6305896Y-11333984D02*
X6305896Y-11505412D01*
X6305896Y-11505412D02*
X6315420Y-11524460D01*
X6315420Y-11524460D02*
X6334468Y-11533984D01*
X6334468Y-11533984D02*
X6353515Y-11533984D01*
X6496373Y-11524460D02*
X6477325Y-11533984D01*
X6477325Y-11533984D02*
X6439230Y-11533984D01*
X6439230Y-11533984D02*
X6420182Y-11524460D01*
X6420182Y-11524460D02*
X6410658Y-11505412D01*
X6410658Y-11505412D02*
X6410658Y-11429222D01*
X6410658Y-11429222D02*
X6420182Y-11410174D01*
X6420182Y-11410174D02*
X6439230Y-11400650D01*
X6439230Y-11400650D02*
X6477325Y-11400650D01*
X6477325Y-11400650D02*
X6496373Y-11410174D01*
X6496373Y-11410174D02*
X6505896Y-11429222D01*
X6505896Y-11429222D02*
X6505896Y-11448269D01*
X6505896Y-11448269D02*
X6410658Y-11467317D01*
X6677325Y-11533984D02*
X6677325Y-11333984D01*
X6677325Y-11524460D02*
X6658277Y-11533984D01*
X6658277Y-11533984D02*
X6620182Y-11533984D01*
X6620182Y-11533984D02*
X6601134Y-11524460D01*
X6601134Y-11524460D02*
X6591611Y-11514936D01*
X6591611Y-11514936D02*
X6582087Y-11495888D01*
X6582087Y-11495888D02*
X6582087Y-11438746D01*
X6582087Y-11438746D02*
X6591611Y-11419698D01*
X6591611Y-11419698D02*
X6601134Y-11410174D01*
X6601134Y-11410174D02*
X6620182Y-11400650D01*
X6620182Y-11400650D02*
X6658277Y-11400650D01*
X6658277Y-11400650D02*
X6677325Y-11410174D01*
X6753515Y-11610174D02*
X6763039Y-11600650D01*
X6763039Y-11600650D02*
X6782087Y-11572079D01*
X6782087Y-11572079D02*
X6791611Y-11553031D01*
X6791611Y-11553031D02*
X6801134Y-11524460D01*
X6801134Y-11524460D02*
X6810658Y-11476841D01*
X6810658Y-11476841D02*
X6810658Y-11438746D01*
X6810658Y-11438746D02*
X6801134Y-11391127D01*
X6801134Y-11391127D02*
X6791611Y-11362555D01*
X6791611Y-11362555D02*
X6782087Y-11343508D01*
X6782087Y-11343508D02*
X6763039Y-11314936D01*
X6763039Y-11314936D02*
X6753515Y-11305412D01*
M02*
