%TF.GenerationSoftware,KiCad,Pcbnew,7.0.10*%
%TF.CreationDate,2024-06-08T13:21:25-05:00*%
%TF.ProjectId,viewer_rev2,76696577-6572-45f7-9265-76322e6b6963,rev?*%
%TF.SameCoordinates,PX62b48e0PY1ba8140*%
%TF.FileFunction,Legend,Top*%
%TF.FilePolarity,Positive*%
%FSLAX46Y46*%
G04 Gerber Fmt 4.6, Leading zero omitted, Abs format (unit mm)*
G04 Created by KiCad (PCBNEW 7.0.10) date 2024-06-08 13:21:25*
%MOMM*%
%LPD*%
G01*
G04 APERTURE LIST*
%ADD10C,0.050000*%
%ADD11C,0.100000*%
%ADD12C,0.150000*%
%ADD13C,0.120000*%
G04 APERTURE END LIST*
D10*
X120000Y-9000000D02*
X127880000Y-9000000D01*
X127880000Y-94480000D01*
X120000Y-94480000D01*
X120000Y-9000000D01*
D11*
X13756265Y-8336704D02*
X14232455Y-8336704D01*
X13661027Y-8622419D02*
X13994360Y-7622419D01*
X13994360Y-7622419D02*
X14327693Y-8622419D01*
X15184836Y-8622419D02*
X14613408Y-8622419D01*
X14899122Y-8622419D02*
X14899122Y-7622419D01*
X14899122Y-7622419D02*
X14803884Y-7765276D01*
X14803884Y-7765276D02*
X14708646Y-7860514D01*
X14708646Y-7860514D02*
X14613408Y-7908133D01*
D12*
X67454819Y-98666666D02*
X66978628Y-98999999D01*
X67454819Y-99238094D02*
X66454819Y-99238094D01*
X66454819Y-99238094D02*
X66454819Y-98857142D01*
X66454819Y-98857142D02*
X66502438Y-98761904D01*
X66502438Y-98761904D02*
X66550057Y-98714285D01*
X66550057Y-98714285D02*
X66645295Y-98666666D01*
X66645295Y-98666666D02*
X66788152Y-98666666D01*
X66788152Y-98666666D02*
X66883390Y-98714285D01*
X66883390Y-98714285D02*
X66931009Y-98761904D01*
X66931009Y-98761904D02*
X66978628Y-98857142D01*
X66978628Y-98857142D02*
X66978628Y-99238094D01*
X66454819Y-98333332D02*
X66454819Y-97714285D01*
X66454819Y-97714285D02*
X66835771Y-98047618D01*
X66835771Y-98047618D02*
X66835771Y-97904761D01*
X66835771Y-97904761D02*
X66883390Y-97809523D01*
X66883390Y-97809523D02*
X66931009Y-97761904D01*
X66931009Y-97761904D02*
X67026247Y-97714285D01*
X67026247Y-97714285D02*
X67264342Y-97714285D01*
X67264342Y-97714285D02*
X67359580Y-97761904D01*
X67359580Y-97761904D02*
X67407200Y-97809523D01*
X67407200Y-97809523D02*
X67454819Y-97904761D01*
X67454819Y-97904761D02*
X67454819Y-98190475D01*
X67454819Y-98190475D02*
X67407200Y-98285713D01*
X67407200Y-98285713D02*
X67359580Y-98333332D01*
X62833333Y-106994580D02*
X62785714Y-107042200D01*
X62785714Y-107042200D02*
X62642857Y-107089819D01*
X62642857Y-107089819D02*
X62547619Y-107089819D01*
X62547619Y-107089819D02*
X62404762Y-107042200D01*
X62404762Y-107042200D02*
X62309524Y-106946961D01*
X62309524Y-106946961D02*
X62261905Y-106851723D01*
X62261905Y-106851723D02*
X62214286Y-106661247D01*
X62214286Y-106661247D02*
X62214286Y-106518390D01*
X62214286Y-106518390D02*
X62261905Y-106327914D01*
X62261905Y-106327914D02*
X62309524Y-106232676D01*
X62309524Y-106232676D02*
X62404762Y-106137438D01*
X62404762Y-106137438D02*
X62547619Y-106089819D01*
X62547619Y-106089819D02*
X62642857Y-106089819D01*
X62642857Y-106089819D02*
X62785714Y-106137438D01*
X62785714Y-106137438D02*
X62833333Y-106185057D01*
X63214286Y-106185057D02*
X63261905Y-106137438D01*
X63261905Y-106137438D02*
X63357143Y-106089819D01*
X63357143Y-106089819D02*
X63595238Y-106089819D01*
X63595238Y-106089819D02*
X63690476Y-106137438D01*
X63690476Y-106137438D02*
X63738095Y-106185057D01*
X63738095Y-106185057D02*
X63785714Y-106280295D01*
X63785714Y-106280295D02*
X63785714Y-106375533D01*
X63785714Y-106375533D02*
X63738095Y-106518390D01*
X63738095Y-106518390D02*
X63166667Y-107089819D01*
X63166667Y-107089819D02*
X63785714Y-107089819D01*
X55833333Y-99854819D02*
X55500000Y-99378628D01*
X55261905Y-99854819D02*
X55261905Y-98854819D01*
X55261905Y-98854819D02*
X55642857Y-98854819D01*
X55642857Y-98854819D02*
X55738095Y-98902438D01*
X55738095Y-98902438D02*
X55785714Y-98950057D01*
X55785714Y-98950057D02*
X55833333Y-99045295D01*
X55833333Y-99045295D02*
X55833333Y-99188152D01*
X55833333Y-99188152D02*
X55785714Y-99283390D01*
X55785714Y-99283390D02*
X55738095Y-99331009D01*
X55738095Y-99331009D02*
X55642857Y-99378628D01*
X55642857Y-99378628D02*
X55261905Y-99378628D01*
X56738095Y-98854819D02*
X56261905Y-98854819D01*
X56261905Y-98854819D02*
X56214286Y-99331009D01*
X56214286Y-99331009D02*
X56261905Y-99283390D01*
X56261905Y-99283390D02*
X56357143Y-99235771D01*
X56357143Y-99235771D02*
X56595238Y-99235771D01*
X56595238Y-99235771D02*
X56690476Y-99283390D01*
X56690476Y-99283390D02*
X56738095Y-99331009D01*
X56738095Y-99331009D02*
X56785714Y-99426247D01*
X56785714Y-99426247D02*
X56785714Y-99664342D01*
X56785714Y-99664342D02*
X56738095Y-99759580D01*
X56738095Y-99759580D02*
X56690476Y-99807200D01*
X56690476Y-99807200D02*
X56595238Y-99854819D01*
X56595238Y-99854819D02*
X56357143Y-99854819D01*
X56357143Y-99854819D02*
X56261905Y-99807200D01*
X56261905Y-99807200D02*
X56214286Y-99759580D01*
X61333333Y-99359580D02*
X61285714Y-99407200D01*
X61285714Y-99407200D02*
X61142857Y-99454819D01*
X61142857Y-99454819D02*
X61047619Y-99454819D01*
X61047619Y-99454819D02*
X60904762Y-99407200D01*
X60904762Y-99407200D02*
X60809524Y-99311961D01*
X60809524Y-99311961D02*
X60761905Y-99216723D01*
X60761905Y-99216723D02*
X60714286Y-99026247D01*
X60714286Y-99026247D02*
X60714286Y-98883390D01*
X60714286Y-98883390D02*
X60761905Y-98692914D01*
X60761905Y-98692914D02*
X60809524Y-98597676D01*
X60809524Y-98597676D02*
X60904762Y-98502438D01*
X60904762Y-98502438D02*
X61047619Y-98454819D01*
X61047619Y-98454819D02*
X61142857Y-98454819D01*
X61142857Y-98454819D02*
X61285714Y-98502438D01*
X61285714Y-98502438D02*
X61333333Y-98550057D01*
X62285714Y-99454819D02*
X61714286Y-99454819D01*
X62000000Y-99454819D02*
X62000000Y-98454819D01*
X62000000Y-98454819D02*
X61904762Y-98597676D01*
X61904762Y-98597676D02*
X61809524Y-98692914D01*
X61809524Y-98692914D02*
X61714286Y-98740533D01*
X22458333Y-97524819D02*
X22125000Y-97048628D01*
X21886905Y-97524819D02*
X21886905Y-96524819D01*
X21886905Y-96524819D02*
X22267857Y-96524819D01*
X22267857Y-96524819D02*
X22363095Y-96572438D01*
X22363095Y-96572438D02*
X22410714Y-96620057D01*
X22410714Y-96620057D02*
X22458333Y-96715295D01*
X22458333Y-96715295D02*
X22458333Y-96858152D01*
X22458333Y-96858152D02*
X22410714Y-96953390D01*
X22410714Y-96953390D02*
X22363095Y-97001009D01*
X22363095Y-97001009D02*
X22267857Y-97048628D01*
X22267857Y-97048628D02*
X21886905Y-97048628D01*
X23410714Y-97524819D02*
X22839286Y-97524819D01*
X23125000Y-97524819D02*
X23125000Y-96524819D01*
X23125000Y-96524819D02*
X23029762Y-96667676D01*
X23029762Y-96667676D02*
X22934524Y-96762914D01*
X22934524Y-96762914D02*
X22839286Y-96810533D01*
X49904761Y-105550057D02*
X49809523Y-105502438D01*
X49809523Y-105502438D02*
X49714285Y-105407200D01*
X49714285Y-105407200D02*
X49571428Y-105264342D01*
X49571428Y-105264342D02*
X49476190Y-105216723D01*
X49476190Y-105216723D02*
X49380952Y-105216723D01*
X49428571Y-105454819D02*
X49333333Y-105407200D01*
X49333333Y-105407200D02*
X49238095Y-105311961D01*
X49238095Y-105311961D02*
X49190476Y-105121485D01*
X49190476Y-105121485D02*
X49190476Y-104788152D01*
X49190476Y-104788152D02*
X49238095Y-104597676D01*
X49238095Y-104597676D02*
X49333333Y-104502438D01*
X49333333Y-104502438D02*
X49428571Y-104454819D01*
X49428571Y-104454819D02*
X49619047Y-104454819D01*
X49619047Y-104454819D02*
X49714285Y-104502438D01*
X49714285Y-104502438D02*
X49809523Y-104597676D01*
X49809523Y-104597676D02*
X49857142Y-104788152D01*
X49857142Y-104788152D02*
X49857142Y-105121485D01*
X49857142Y-105121485D02*
X49809523Y-105311961D01*
X49809523Y-105311961D02*
X49714285Y-105407200D01*
X49714285Y-105407200D02*
X49619047Y-105454819D01*
X49619047Y-105454819D02*
X49428571Y-105454819D01*
X50809523Y-105454819D02*
X50238095Y-105454819D01*
X50523809Y-105454819D02*
X50523809Y-104454819D01*
X50523809Y-104454819D02*
X50428571Y-104597676D01*
X50428571Y-104597676D02*
X50333333Y-104692914D01*
X50333333Y-104692914D02*
X50238095Y-104740533D01*
X36209167Y-99957200D02*
X36352024Y-100004819D01*
X36352024Y-100004819D02*
X36590119Y-100004819D01*
X36590119Y-100004819D02*
X36685357Y-99957200D01*
X36685357Y-99957200D02*
X36732976Y-99909580D01*
X36732976Y-99909580D02*
X36780595Y-99814342D01*
X36780595Y-99814342D02*
X36780595Y-99719104D01*
X36780595Y-99719104D02*
X36732976Y-99623866D01*
X36732976Y-99623866D02*
X36685357Y-99576247D01*
X36685357Y-99576247D02*
X36590119Y-99528628D01*
X36590119Y-99528628D02*
X36399643Y-99481009D01*
X36399643Y-99481009D02*
X36304405Y-99433390D01*
X36304405Y-99433390D02*
X36256786Y-99385771D01*
X36256786Y-99385771D02*
X36209167Y-99290533D01*
X36209167Y-99290533D02*
X36209167Y-99195295D01*
X36209167Y-99195295D02*
X36256786Y-99100057D01*
X36256786Y-99100057D02*
X36304405Y-99052438D01*
X36304405Y-99052438D02*
X36399643Y-99004819D01*
X36399643Y-99004819D02*
X36637738Y-99004819D01*
X36637738Y-99004819D02*
X36780595Y-99052438D01*
X37113929Y-99004819D02*
X37352024Y-100004819D01*
X37352024Y-100004819D02*
X37542500Y-99290533D01*
X37542500Y-99290533D02*
X37732976Y-100004819D01*
X37732976Y-100004819D02*
X37971072Y-99004819D01*
X38875833Y-100004819D02*
X38304405Y-100004819D01*
X38590119Y-100004819D02*
X38590119Y-99004819D01*
X38590119Y-99004819D02*
X38494881Y-99147676D01*
X38494881Y-99147676D02*
X38399643Y-99242914D01*
X38399643Y-99242914D02*
X38304405Y-99290533D01*
X55833333Y-104954819D02*
X55500000Y-104478628D01*
X55261905Y-104954819D02*
X55261905Y-103954819D01*
X55261905Y-103954819D02*
X55642857Y-103954819D01*
X55642857Y-103954819D02*
X55738095Y-104002438D01*
X55738095Y-104002438D02*
X55785714Y-104050057D01*
X55785714Y-104050057D02*
X55833333Y-104145295D01*
X55833333Y-104145295D02*
X55833333Y-104288152D01*
X55833333Y-104288152D02*
X55785714Y-104383390D01*
X55785714Y-104383390D02*
X55738095Y-104431009D01*
X55738095Y-104431009D02*
X55642857Y-104478628D01*
X55642857Y-104478628D02*
X55261905Y-104478628D01*
X56690476Y-104288152D02*
X56690476Y-104954819D01*
X56452381Y-103907200D02*
X56214286Y-104621485D01*
X56214286Y-104621485D02*
X56833333Y-104621485D01*
X25508333Y-99904819D02*
X25175000Y-99428628D01*
X24936905Y-99904819D02*
X24936905Y-98904819D01*
X24936905Y-98904819D02*
X25317857Y-98904819D01*
X25317857Y-98904819D02*
X25413095Y-98952438D01*
X25413095Y-98952438D02*
X25460714Y-99000057D01*
X25460714Y-99000057D02*
X25508333Y-99095295D01*
X25508333Y-99095295D02*
X25508333Y-99238152D01*
X25508333Y-99238152D02*
X25460714Y-99333390D01*
X25460714Y-99333390D02*
X25413095Y-99381009D01*
X25413095Y-99381009D02*
X25317857Y-99428628D01*
X25317857Y-99428628D02*
X24936905Y-99428628D01*
X25889286Y-99000057D02*
X25936905Y-98952438D01*
X25936905Y-98952438D02*
X26032143Y-98904819D01*
X26032143Y-98904819D02*
X26270238Y-98904819D01*
X26270238Y-98904819D02*
X26365476Y-98952438D01*
X26365476Y-98952438D02*
X26413095Y-99000057D01*
X26413095Y-99000057D02*
X26460714Y-99095295D01*
X26460714Y-99095295D02*
X26460714Y-99190533D01*
X26460714Y-99190533D02*
X26413095Y-99333390D01*
X26413095Y-99333390D02*
X25841667Y-99904819D01*
X25841667Y-99904819D02*
X26460714Y-99904819D01*
X16704819Y-104683333D02*
X17419104Y-104683333D01*
X17419104Y-104683333D02*
X17561961Y-104730952D01*
X17561961Y-104730952D02*
X17657200Y-104826190D01*
X17657200Y-104826190D02*
X17704819Y-104969047D01*
X17704819Y-104969047D02*
X17704819Y-105064285D01*
X16800057Y-104254761D02*
X16752438Y-104207142D01*
X16752438Y-104207142D02*
X16704819Y-104111904D01*
X16704819Y-104111904D02*
X16704819Y-103873809D01*
X16704819Y-103873809D02*
X16752438Y-103778571D01*
X16752438Y-103778571D02*
X16800057Y-103730952D01*
X16800057Y-103730952D02*
X16895295Y-103683333D01*
X16895295Y-103683333D02*
X16990533Y-103683333D01*
X16990533Y-103683333D02*
X17133390Y-103730952D01*
X17133390Y-103730952D02*
X17704819Y-104302380D01*
X17704819Y-104302380D02*
X17704819Y-103683333D01*
X61738095Y-101704819D02*
X61738095Y-102514342D01*
X61738095Y-102514342D02*
X61785714Y-102609580D01*
X61785714Y-102609580D02*
X61833333Y-102657200D01*
X61833333Y-102657200D02*
X61928571Y-102704819D01*
X61928571Y-102704819D02*
X62119047Y-102704819D01*
X62119047Y-102704819D02*
X62214285Y-102657200D01*
X62214285Y-102657200D02*
X62261904Y-102609580D01*
X62261904Y-102609580D02*
X62309523Y-102514342D01*
X62309523Y-102514342D02*
X62309523Y-101704819D01*
X63309523Y-102704819D02*
X62738095Y-102704819D01*
X63023809Y-102704819D02*
X63023809Y-101704819D01*
X63023809Y-101704819D02*
X62928571Y-101847676D01*
X62928571Y-101847676D02*
X62833333Y-101942914D01*
X62833333Y-101942914D02*
X62738095Y-101990533D01*
X69039580Y-104281666D02*
X69087200Y-104329285D01*
X69087200Y-104329285D02*
X69134819Y-104472142D01*
X69134819Y-104472142D02*
X69134819Y-104567380D01*
X69134819Y-104567380D02*
X69087200Y-104710237D01*
X69087200Y-104710237D02*
X68991961Y-104805475D01*
X68991961Y-104805475D02*
X68896723Y-104853094D01*
X68896723Y-104853094D02*
X68706247Y-104900713D01*
X68706247Y-104900713D02*
X68563390Y-104900713D01*
X68563390Y-104900713D02*
X68372914Y-104853094D01*
X68372914Y-104853094D02*
X68277676Y-104805475D01*
X68277676Y-104805475D02*
X68182438Y-104710237D01*
X68182438Y-104710237D02*
X68134819Y-104567380D01*
X68134819Y-104567380D02*
X68134819Y-104472142D01*
X68134819Y-104472142D02*
X68182438Y-104329285D01*
X68182438Y-104329285D02*
X68230057Y-104281666D01*
X68134819Y-103948332D02*
X68134819Y-103329285D01*
X68134819Y-103329285D02*
X68515771Y-103662618D01*
X68515771Y-103662618D02*
X68515771Y-103519761D01*
X68515771Y-103519761D02*
X68563390Y-103424523D01*
X68563390Y-103424523D02*
X68611009Y-103376904D01*
X68611009Y-103376904D02*
X68706247Y-103329285D01*
X68706247Y-103329285D02*
X68944342Y-103329285D01*
X68944342Y-103329285D02*
X69039580Y-103376904D01*
X69039580Y-103376904D02*
X69087200Y-103424523D01*
X69087200Y-103424523D02*
X69134819Y-103519761D01*
X69134819Y-103519761D02*
X69134819Y-103805475D01*
X69134819Y-103805475D02*
X69087200Y-103900713D01*
X69087200Y-103900713D02*
X69039580Y-103948332D01*
D13*
%TO.C,R18*%
X14237742Y-30317500D02*
X14712258Y-30317500D01*
X14237742Y-31362500D02*
X14712258Y-31362500D01*
%TO.C,D43*%
X49015000Y-46505000D02*
X49015000Y-47975000D01*
X49015000Y-47975000D02*
X51300000Y-47975000D01*
X51300000Y-46505000D02*
X49015000Y-46505000D01*
%TO.C,R3*%
X67772500Y-100627742D02*
X67772500Y-101102258D01*
X66727500Y-100627742D02*
X66727500Y-101102258D01*
%TO.C,D77*%
X31015000Y-73505000D02*
X31015000Y-74975000D01*
X31015000Y-74975000D02*
X33300000Y-74975000D01*
X33300000Y-73505000D02*
X31015000Y-73505000D01*
%TO.C,D76*%
X22015000Y-73505000D02*
X22015000Y-74975000D01*
X22015000Y-74975000D02*
X24300000Y-74975000D01*
X24300000Y-73505000D02*
X22015000Y-73505000D01*
%TO.C,R26*%
X86237742Y-30317500D02*
X86712258Y-30317500D01*
X86237742Y-31362500D02*
X86712258Y-31362500D01*
%TO.C,R59*%
X59237742Y-57317500D02*
X59712258Y-57317500D01*
X59237742Y-58362500D02*
X59712258Y-58362500D01*
%TO.C,R6*%
X14237742Y-21317500D02*
X14712258Y-21317500D01*
X14237742Y-22362500D02*
X14712258Y-22362500D01*
%TO.C,D61*%
X103015000Y-55505000D02*
X103015000Y-56975000D01*
X103015000Y-56975000D02*
X105300000Y-56975000D01*
X105300000Y-55505000D02*
X103015000Y-55505000D01*
%TO.C,R90*%
X14237742Y-84317500D02*
X14712258Y-84317500D01*
X14237742Y-85362500D02*
X14712258Y-85362500D01*
%TO.C,R70*%
X50237742Y-66317500D02*
X50712258Y-66317500D01*
X50237742Y-67362500D02*
X50712258Y-67362500D01*
%TO.C,D23*%
X85015000Y-28505000D02*
X85015000Y-29975000D01*
X85015000Y-29975000D02*
X87300000Y-29975000D01*
X87300000Y-28505000D02*
X85015000Y-28505000D01*
%TO.C,R63*%
X95237742Y-57317500D02*
X95712258Y-57317500D01*
X95237742Y-58362500D02*
X95712258Y-58362500D01*
%TO.C,C2*%
X65609420Y-105990000D02*
X65890580Y-105990000D01*
X65609420Y-107010000D02*
X65890580Y-107010000D01*
%TO.C,R5*%
X56512742Y-100377500D02*
X56987258Y-100377500D01*
X56512742Y-101422500D02*
X56987258Y-101422500D01*
%TO.C,R11*%
X59237742Y-21317500D02*
X59712258Y-21317500D01*
X59237742Y-22362500D02*
X59712258Y-22362500D01*
%TO.C,D70*%
X76015000Y-64505000D02*
X76015000Y-65975000D01*
X76015000Y-65975000D02*
X78300000Y-65975000D01*
X78300000Y-64505000D02*
X76015000Y-64505000D01*
%TO.C,R79*%
X23237742Y-75317500D02*
X23712258Y-75317500D01*
X23237742Y-76362500D02*
X23712258Y-76362500D01*
%TO.C,R80*%
X32237742Y-75317500D02*
X32712258Y-75317500D01*
X32237742Y-76362500D02*
X32712258Y-76362500D01*
%TO.C,R33*%
X41237742Y-39317500D02*
X41712258Y-39317500D01*
X41237742Y-40362500D02*
X41712258Y-40362500D01*
%TO.C,D17*%
X31015000Y-28505000D02*
X31015000Y-29975000D01*
X31015000Y-29975000D02*
X33300000Y-29975000D01*
X33300000Y-28505000D02*
X31015000Y-28505000D01*
%TO.C,D81*%
X67015000Y-73505000D02*
X67015000Y-74975000D01*
X67015000Y-74975000D02*
X69300000Y-74975000D01*
X69300000Y-73505000D02*
X67015000Y-73505000D01*
%TO.C,D6*%
X40015000Y-19505000D02*
X40015000Y-20975000D01*
X40015000Y-20975000D02*
X42300000Y-20975000D01*
X42300000Y-19505000D02*
X40015000Y-19505000D01*
%TO.C,C1*%
X64415580Y-99375000D02*
X64134420Y-99375000D01*
X64415580Y-98355000D02*
X64134420Y-98355000D01*
%TO.C,D2*%
X69140000Y-100750000D02*
X69140000Y-102750000D01*
X69140000Y-100750000D02*
X73150000Y-100750000D01*
X69140000Y-102750000D02*
X73150000Y-102750000D01*
%TO.C,D68*%
X58015000Y-64505000D02*
X58015000Y-65975000D01*
X58015000Y-65975000D02*
X60300000Y-65975000D01*
X60300000Y-64505000D02*
X58015000Y-64505000D01*
%TO.C,R19*%
X23237742Y-30317500D02*
X23712258Y-30317500D01*
X23237742Y-31362500D02*
X23712258Y-31362500D01*
%TO.C,D53*%
X31015000Y-55505000D02*
X31015000Y-56975000D01*
X31015000Y-56975000D02*
X33300000Y-56975000D01*
X33300000Y-55505000D02*
X31015000Y-55505000D01*
%TO.C,R34*%
X50237742Y-39317500D02*
X50712258Y-39317500D01*
X50237742Y-40362500D02*
X50712258Y-40362500D01*
%TO.C,R42*%
X14237742Y-48317500D02*
X14712258Y-48317500D01*
X14237742Y-49362500D02*
X14712258Y-49362500D01*
%TO.C,R1*%
X22762742Y-97977500D02*
X23237258Y-97977500D01*
X22762742Y-99022500D02*
X23237258Y-99022500D01*
%TO.C,Q1*%
X54100000Y-103910000D02*
X48090000Y-103910000D01*
X51850000Y-97090000D02*
X48090000Y-97090000D01*
X48090000Y-103910000D02*
X48090000Y-102650000D01*
X48090000Y-97090000D02*
X48090000Y-98350000D01*
%TO.C,R44*%
X32237742Y-48317500D02*
X32712258Y-48317500D01*
X32237742Y-49362500D02*
X32712258Y-49362500D01*
%TO.C,D27*%
X13015000Y-37505000D02*
X13015000Y-38975000D01*
X13015000Y-38975000D02*
X15300000Y-38975000D01*
X15300000Y-37505000D02*
X13015000Y-37505000D01*
%TO.C,R52*%
X104237742Y-48317500D02*
X104712258Y-48317500D01*
X104237742Y-49362500D02*
X104712258Y-49362500D01*
%TO.C,R32*%
X32237742Y-39317500D02*
X32712258Y-39317500D01*
X32237742Y-40362500D02*
X32712258Y-40362500D01*
%TO.C,R50*%
X86237742Y-48317500D02*
X86712258Y-48317500D01*
X86237742Y-49362500D02*
X86712258Y-49362500D01*
%TO.C,D64*%
X22015000Y-64505000D02*
X22015000Y-65975000D01*
X22015000Y-65975000D02*
X24300000Y-65975000D01*
X24300000Y-64505000D02*
X22015000Y-64505000D01*
%TO.C,D78*%
X40015000Y-73505000D02*
X40015000Y-74975000D01*
X40015000Y-74975000D02*
X42300000Y-74975000D01*
X42300000Y-73505000D02*
X40015000Y-73505000D01*
%TO.C,D34*%
X76015000Y-37505000D02*
X76015000Y-38975000D01*
X76015000Y-38975000D02*
X78300000Y-38975000D01*
X78300000Y-37505000D02*
X76015000Y-37505000D01*
%TO.C,R47*%
X59237742Y-48317500D02*
X59712258Y-48317500D01*
X59237742Y-49362500D02*
X59712258Y-49362500D01*
%TO.C,D9*%
X67015000Y-19505000D02*
X67015000Y-20975000D01*
X67015000Y-20975000D02*
X69300000Y-20975000D01*
X69300000Y-19505000D02*
X67015000Y-19505000D01*
%TO.C,R30*%
X14237742Y-39317500D02*
X14712258Y-39317500D01*
X14237742Y-40362500D02*
X14712258Y-40362500D01*
%TO.C,D75*%
X13015000Y-73505000D02*
X13015000Y-74975000D01*
X13015000Y-74975000D02*
X15300000Y-74975000D01*
X15300000Y-73505000D02*
X13015000Y-73505000D01*
%TO.C,D69*%
X67015000Y-64505000D02*
X67015000Y-65975000D01*
X67015000Y-65975000D02*
X69300000Y-65975000D01*
X69300000Y-64505000D02*
X67015000Y-64505000D01*
%TO.C,R40*%
X104237742Y-39317500D02*
X104712258Y-39317500D01*
X104237742Y-40362500D02*
X104712258Y-40362500D01*
%TO.C,R94*%
X50237742Y-84317500D02*
X50712258Y-84317500D01*
X50237742Y-85362500D02*
X50712258Y-85362500D01*
%TO.C,R97*%
X77237742Y-84317500D02*
X77712258Y-84317500D01*
X77237742Y-85362500D02*
X77712258Y-85362500D01*
%TO.C,R38*%
X86237742Y-39317500D02*
X86712258Y-39317500D01*
X86237742Y-40362500D02*
X86712258Y-40362500D01*
%TO.C,D67*%
X49015000Y-64505000D02*
X49015000Y-65975000D01*
X49015000Y-65975000D02*
X51300000Y-65975000D01*
X51300000Y-64505000D02*
X49015000Y-64505000D01*
%TO.C,R16*%
X104237742Y-21317500D02*
X104712258Y-21317500D01*
X104237742Y-22362500D02*
X104712258Y-22362500D01*
%TO.C,R89*%
X113237742Y-75317500D02*
X113712258Y-75317500D01*
X113237742Y-76362500D02*
X113712258Y-76362500D01*
%TO.C,D31*%
X49015000Y-37505000D02*
X49015000Y-38975000D01*
X49015000Y-38975000D02*
X51300000Y-38975000D01*
X51300000Y-37505000D02*
X49015000Y-37505000D01*
%TO.C,D28*%
X22015000Y-37505000D02*
X22015000Y-38975000D01*
X22015000Y-38975000D02*
X24300000Y-38975000D01*
X24300000Y-37505000D02*
X22015000Y-37505000D01*
%TO.C,R61*%
X77237742Y-57317500D02*
X77712258Y-57317500D01*
X77237742Y-58362500D02*
X77712258Y-58362500D01*
%TO.C,R66*%
X14237742Y-66317500D02*
X14712258Y-66317500D01*
X14237742Y-67362500D02*
X14712258Y-67362500D01*
%TO.C,SW1*%
X30242500Y-99450000D02*
X31542500Y-99450000D01*
X30242500Y-100750000D02*
X30242500Y-99450000D01*
X30542500Y-106350000D02*
X30542500Y-101150000D01*
X32592500Y-100400000D02*
X42492500Y-100400000D01*
X42492500Y-107100000D02*
X32592500Y-107100000D01*
X44542500Y-101150000D02*
X44542500Y-106350000D01*
%TO.C,D82*%
X76015000Y-73505000D02*
X76015000Y-74975000D01*
X76015000Y-74975000D02*
X78300000Y-74975000D01*
X78300000Y-73505000D02*
X76015000Y-73505000D01*
%TO.C,D54*%
X40015000Y-55505000D02*
X40015000Y-56975000D01*
X40015000Y-56975000D02*
X42300000Y-56975000D01*
X42300000Y-55505000D02*
X40015000Y-55505000D01*
%TO.C,D44*%
X58015000Y-46505000D02*
X58015000Y-47975000D01*
X58015000Y-47975000D02*
X60300000Y-47975000D01*
X60300000Y-46505000D02*
X58015000Y-46505000D01*
%TO.C,D66*%
X40015000Y-64505000D02*
X40015000Y-65975000D01*
X40015000Y-65975000D02*
X42300000Y-65975000D01*
X42300000Y-64505000D02*
X40015000Y-64505000D01*
%TO.C,R4*%
X56987258Y-103522500D02*
X56512742Y-103522500D01*
X56987258Y-102477500D02*
X56512742Y-102477500D01*
%TO.C,R81*%
X41237742Y-75317500D02*
X41712258Y-75317500D01*
X41237742Y-76362500D02*
X41712258Y-76362500D01*
%TO.C,R14*%
X86237742Y-21317500D02*
X86712258Y-21317500D01*
X86237742Y-22362500D02*
X86712258Y-22362500D01*
%TO.C,D4*%
X22015000Y-19505000D02*
X22015000Y-20975000D01*
X22015000Y-20975000D02*
X24300000Y-20975000D01*
X24300000Y-19505000D02*
X22015000Y-19505000D01*
%TO.C,R93*%
X41237742Y-84317500D02*
X41712258Y-84317500D01*
X41237742Y-85362500D02*
X41712258Y-85362500D01*
%TO.C,R78*%
X14237742Y-75317500D02*
X14712258Y-75317500D01*
X14237742Y-76362500D02*
X14712258Y-76362500D01*
%TO.C,D98*%
X112015000Y-82505000D02*
X112015000Y-83975000D01*
X112015000Y-83975000D02*
X114300000Y-83975000D01*
X114300000Y-82505000D02*
X112015000Y-82505000D01*
%TO.C,D24*%
X94015000Y-28505000D02*
X94015000Y-29975000D01*
X94015000Y-29975000D02*
X96300000Y-29975000D01*
X96300000Y-28505000D02*
X94015000Y-28505000D01*
%TO.C,D1*%
X73860000Y-98800000D02*
X73860000Y-96800000D01*
X73860000Y-98800000D02*
X69850000Y-98800000D01*
X73860000Y-96800000D02*
X69850000Y-96800000D01*
%TO.C,R100*%
X104237742Y-84317500D02*
X104712258Y-84317500D01*
X104237742Y-85362500D02*
X104712258Y-85362500D01*
%TO.C,D85*%
X103015000Y-73505000D02*
X103015000Y-74975000D01*
X103015000Y-74975000D02*
X105300000Y-74975000D01*
X105300000Y-73505000D02*
X103015000Y-73505000D01*
%TO.C,D20*%
X58015000Y-28505000D02*
X58015000Y-29975000D01*
X58015000Y-29975000D02*
X60300000Y-29975000D01*
X60300000Y-28505000D02*
X58015000Y-28505000D01*
%TO.C,D22*%
X76015000Y-28505000D02*
X76015000Y-29975000D01*
X76015000Y-29975000D02*
X78300000Y-29975000D01*
X78300000Y-28505000D02*
X76015000Y-28505000D01*
%TO.C,R95*%
X59237742Y-84317500D02*
X59712258Y-84317500D01*
X59237742Y-85362500D02*
X59712258Y-85362500D01*
%TO.C,D47*%
X85015000Y-46505000D02*
X85015000Y-47975000D01*
X85015000Y-47975000D02*
X87300000Y-47975000D01*
X87300000Y-46505000D02*
X85015000Y-46505000D01*
%TO.C,R27*%
X95237742Y-30317500D02*
X95712258Y-30317500D01*
X95237742Y-31362500D02*
X95712258Y-31362500D01*
%TO.C,R67*%
X23237742Y-66317500D02*
X23712258Y-66317500D01*
X23237742Y-67362500D02*
X23712258Y-67362500D01*
%TO.C,D62*%
X112015000Y-55505000D02*
X112015000Y-56975000D01*
X112015000Y-56975000D02*
X114300000Y-56975000D01*
X114300000Y-55505000D02*
X112015000Y-55505000D01*
%TO.C,D79*%
X49015000Y-73505000D02*
X49015000Y-74975000D01*
X49015000Y-74975000D02*
X51300000Y-74975000D01*
X51300000Y-73505000D02*
X49015000Y-73505000D01*
%TO.C,R71*%
X59237742Y-66317500D02*
X59712258Y-66317500D01*
X59237742Y-67362500D02*
X59712258Y-67362500D01*
%TO.C,R60*%
X68237742Y-57317500D02*
X68712258Y-57317500D01*
X68237742Y-58362500D02*
X68712258Y-58362500D01*
%TO.C,R77*%
X113237742Y-66317500D02*
X113712258Y-66317500D01*
X113237742Y-67362500D02*
X113712258Y-67362500D01*
%TO.C,D49*%
X103015000Y-46505000D02*
X103015000Y-47975000D01*
X103015000Y-47975000D02*
X105300000Y-47975000D01*
X105300000Y-46505000D02*
X103015000Y-46505000D01*
%TO.C,D3*%
X13015000Y-19505000D02*
X13015000Y-20975000D01*
X13015000Y-20975000D02*
X15300000Y-20975000D01*
X15300000Y-19505000D02*
X13015000Y-19505000D01*
%TO.C,RV1*%
X85694000Y-102380000D02*
X80805000Y-102380000D01*
X88220000Y-103255000D02*
X88220000Y-107620000D01*
X78280000Y-103255000D02*
X78280000Y-107620000D01*
X88220000Y-107620000D02*
X78280000Y-107620000D01*
X86770000Y-107620000D02*
X79730000Y-107620000D01*
X86770000Y-107620000D02*
X86770000Y-108420000D01*
X79730000Y-107620000D02*
X79730000Y-108420000D01*
X86770000Y-108420000D02*
X79730000Y-108420000D01*
X86370000Y-108420000D02*
X80130000Y-108420000D01*
X86370000Y-108420000D02*
X86370000Y-117620000D01*
X80130000Y-108420000D02*
X80130000Y-117620000D01*
X86370000Y-117620000D02*
X80130000Y-117620000D01*
%TO.C,R29*%
X113237742Y-30317500D02*
X113712258Y-30317500D01*
X113237742Y-31362500D02*
X113712258Y-31362500D01*
%TO.C,D90*%
X40015000Y-82505000D02*
X40015000Y-83975000D01*
X40015000Y-83975000D02*
X42300000Y-83975000D01*
X42300000Y-82505000D02*
X40015000Y-82505000D01*
%TO.C,R58*%
X50237742Y-57317500D02*
X50712258Y-57317500D01*
X50237742Y-58362500D02*
X50712258Y-58362500D01*
%TO.C,D57*%
X67015000Y-55505000D02*
X67015000Y-56975000D01*
X67015000Y-56975000D02*
X69300000Y-56975000D01*
X69300000Y-55505000D02*
X67015000Y-55505000D01*
%TO.C,R12*%
X68237742Y-21317500D02*
X68712258Y-21317500D01*
X68237742Y-22362500D02*
X68712258Y-22362500D01*
%TO.C,R46*%
X50237742Y-48317500D02*
X50712258Y-48317500D01*
X50237742Y-49362500D02*
X50712258Y-49362500D01*
%TO.C,R2*%
X25812742Y-97177500D02*
X26287258Y-97177500D01*
X25812742Y-98222500D02*
X26287258Y-98222500D01*
%TO.C,R55*%
X23237742Y-57317500D02*
X23712258Y-57317500D01*
X23237742Y-58362500D02*
X23712258Y-58362500D01*
%TO.C,R65*%
X113237742Y-57317500D02*
X113712258Y-57317500D01*
X113237742Y-58362500D02*
X113712258Y-58362500D01*
%TO.C,D72*%
X94015000Y-64505000D02*
X94015000Y-65975000D01*
X94015000Y-65975000D02*
X96300000Y-65975000D01*
X96300000Y-64505000D02*
X94015000Y-64505000D01*
%TO.C,D58*%
X76015000Y-55505000D02*
X76015000Y-56975000D01*
X76015000Y-56975000D02*
X78300000Y-56975000D01*
X78300000Y-55505000D02*
X76015000Y-55505000D01*
%TO.C,D80*%
X58015000Y-73505000D02*
X58015000Y-74975000D01*
X58015000Y-74975000D02*
X60300000Y-74975000D01*
X60300000Y-73505000D02*
X58015000Y-73505000D01*
%TO.C,R72*%
X68237742Y-66317500D02*
X68712258Y-66317500D01*
X68237742Y-67362500D02*
X68712258Y-67362500D01*
%TO.C,D26*%
X112015000Y-28505000D02*
X112015000Y-29975000D01*
X112015000Y-29975000D02*
X114300000Y-29975000D01*
X114300000Y-28505000D02*
X112015000Y-28505000D01*
%TO.C,R53*%
X113237742Y-48317500D02*
X113712258Y-48317500D01*
X113237742Y-49362500D02*
X113712258Y-49362500D01*
%TO.C,D89*%
X31015000Y-82505000D02*
X31015000Y-83975000D01*
X31015000Y-83975000D02*
X33300000Y-83975000D01*
X33300000Y-82505000D02*
X31015000Y-82505000D01*
%TO.C,R51*%
X95237742Y-48317500D02*
X95712258Y-48317500D01*
X95237742Y-49362500D02*
X95712258Y-49362500D01*
%TO.C,D52*%
X22015000Y-55505000D02*
X22015000Y-56975000D01*
X22015000Y-56975000D02*
X24300000Y-56975000D01*
X24300000Y-55505000D02*
X22015000Y-55505000D01*
%TO.C,R85*%
X77237742Y-75317500D02*
X77712258Y-75317500D01*
X77237742Y-76362500D02*
X77712258Y-76362500D01*
%TO.C,R43*%
X23237742Y-48317500D02*
X23712258Y-48317500D01*
X23237742Y-49362500D02*
X23712258Y-49362500D01*
%TO.C,R62*%
X86237742Y-57317500D02*
X86712258Y-57317500D01*
X86237742Y-58362500D02*
X86712258Y-58362500D01*
%TO.C,D30*%
X40015000Y-37505000D02*
X40015000Y-38975000D01*
X40015000Y-38975000D02*
X42300000Y-38975000D01*
X42300000Y-37505000D02*
X40015000Y-37505000D01*
%TO.C,R48*%
X68237742Y-48317500D02*
X68712258Y-48317500D01*
X68237742Y-49362500D02*
X68712258Y-49362500D01*
%TO.C,R84*%
X68237742Y-75317500D02*
X68712258Y-75317500D01*
X68237742Y-76362500D02*
X68712258Y-76362500D01*
%TO.C,R9*%
X41237742Y-21317500D02*
X41712258Y-21317500D01*
X41237742Y-22362500D02*
X41712258Y-22362500D01*
%TO.C,D73*%
X103015000Y-64505000D02*
X103015000Y-65975000D01*
X103015000Y-65975000D02*
X105300000Y-65975000D01*
X105300000Y-64505000D02*
X103015000Y-64505000D01*
%TO.C,R8*%
X32237742Y-21317500D02*
X32712258Y-21317500D01*
X32237742Y-22362500D02*
X32712258Y-22362500D01*
%TO.C,D32*%
X58015000Y-37505000D02*
X58015000Y-38975000D01*
X58015000Y-38975000D02*
X60300000Y-38975000D01*
X60300000Y-37505000D02*
X58015000Y-37505000D01*
%TO.C,R64*%
X104237742Y-57317500D02*
X104712258Y-57317500D01*
X104237742Y-58362500D02*
X104712258Y-58362500D01*
%TO.C,D95*%
X85015000Y-82505000D02*
X85015000Y-83975000D01*
X85015000Y-83975000D02*
X87300000Y-83975000D01*
X87300000Y-82505000D02*
X85015000Y-82505000D01*
%TO.C,D19*%
X49015000Y-28505000D02*
X49015000Y-29975000D01*
X49015000Y-29975000D02*
X51300000Y-29975000D01*
X51300000Y-28505000D02*
X49015000Y-28505000D01*
%TO.C,D55*%
X49015000Y-55505000D02*
X49015000Y-56975000D01*
X49015000Y-56975000D02*
X51300000Y-56975000D01*
X51300000Y-55505000D02*
X49015000Y-55505000D01*
%TO.C,D8*%
X58015000Y-19505000D02*
X58015000Y-20975000D01*
X58015000Y-20975000D02*
X60300000Y-20975000D01*
X60300000Y-19505000D02*
X58015000Y-19505000D01*
%TO.C,R13*%
X77237742Y-21317500D02*
X77712258Y-21317500D01*
X77237742Y-22362500D02*
X77712258Y-22362500D01*
%TO.C,D83*%
X85015000Y-73505000D02*
X85015000Y-74975000D01*
X85015000Y-74975000D02*
X87300000Y-74975000D01*
X87300000Y-73505000D02*
X85015000Y-73505000D01*
%TO.C,R74*%
X86237742Y-66317500D02*
X86712258Y-66317500D01*
X86237742Y-67362500D02*
X86712258Y-67362500D01*
%TO.C,R35*%
X59237742Y-39317500D02*
X59712258Y-39317500D01*
X59237742Y-40362500D02*
X59712258Y-40362500D01*
%TO.C,D11*%
X85015000Y-19505000D02*
X85015000Y-20975000D01*
X85015000Y-20975000D02*
X87300000Y-20975000D01*
X87300000Y-19505000D02*
X85015000Y-19505000D01*
%TO.C,R99*%
X95237742Y-84317500D02*
X95712258Y-84317500D01*
X95237742Y-85362500D02*
X95712258Y-85362500D01*
%TO.C,D15*%
X13015000Y-28505000D02*
X13015000Y-29975000D01*
X13015000Y-29975000D02*
X15300000Y-29975000D01*
X15300000Y-28505000D02*
X13015000Y-28505000D01*
%TO.C,D29*%
X31015000Y-37505000D02*
X31015000Y-38975000D01*
X31015000Y-38975000D02*
X33300000Y-38975000D01*
X33300000Y-37505000D02*
X31015000Y-37505000D01*
%TO.C,D74*%
X112015000Y-64505000D02*
X112015000Y-65975000D01*
X112015000Y-65975000D02*
X114300000Y-65975000D01*
X114300000Y-64505000D02*
X112015000Y-64505000D01*
%TO.C,D51*%
X13015000Y-55505000D02*
X13015000Y-56975000D01*
X13015000Y-56975000D02*
X15300000Y-56975000D01*
X15300000Y-55505000D02*
X13015000Y-55505000D01*
%TO.C,D38*%
X112015000Y-37505000D02*
X112015000Y-38975000D01*
X112015000Y-38975000D02*
X114300000Y-38975000D01*
X114300000Y-37505000D02*
X112015000Y-37505000D01*
%TO.C,J2*%
X18580000Y-104250000D02*
X18580000Y-102550000D01*
X27920000Y-104250000D02*
X27920000Y-102550000D01*
%TO.C,R22*%
X50237742Y-30317500D02*
X50712258Y-30317500D01*
X50237742Y-31362500D02*
X50712258Y-31362500D01*
%TO.C,R69*%
X41237742Y-66317500D02*
X41712258Y-66317500D01*
X41237742Y-67362500D02*
X41712258Y-67362500D01*
%TO.C,D45*%
X67015000Y-46505000D02*
X67015000Y-47975000D01*
X67015000Y-47975000D02*
X69300000Y-47975000D01*
X69300000Y-46505000D02*
X67015000Y-46505000D01*
%TO.C,D35*%
X85015000Y-37505000D02*
X85015000Y-38975000D01*
X85015000Y-38975000D02*
X87300000Y-38975000D01*
X87300000Y-37505000D02*
X85015000Y-37505000D01*
%TO.C,D12*%
X94015000Y-19505000D02*
X94015000Y-20975000D01*
X94015000Y-20975000D02*
X96300000Y-20975000D01*
X96300000Y-19505000D02*
X94015000Y-19505000D01*
%TO.C,R10*%
X50237742Y-21317500D02*
X50712258Y-21317500D01*
X50237742Y-22362500D02*
X50712258Y-22362500D01*
%TO.C,D40*%
X22015000Y-46505000D02*
X22015000Y-47975000D01*
X22015000Y-47975000D02*
X24300000Y-47975000D01*
X24300000Y-46505000D02*
X22015000Y-46505000D01*
%TO.C,R21*%
X41237742Y-30317500D02*
X41712258Y-30317500D01*
X41237742Y-31362500D02*
X41712258Y-31362500D01*
%TO.C,D10*%
X76015000Y-19505000D02*
X76015000Y-20975000D01*
X76015000Y-20975000D02*
X78300000Y-20975000D01*
X78300000Y-19505000D02*
X76015000Y-19505000D01*
%TO.C,R101*%
X113237742Y-84317500D02*
X113712258Y-84317500D01*
X113237742Y-85362500D02*
X113712258Y-85362500D01*
%TO.C,D13*%
X103015000Y-19505000D02*
X103015000Y-20975000D01*
X103015000Y-20975000D02*
X105300000Y-20975000D01*
X105300000Y-19505000D02*
X103015000Y-19505000D01*
%TO.C,R36*%
X68237742Y-39317500D02*
X68712258Y-39317500D01*
X68237742Y-40362500D02*
X68712258Y-40362500D01*
%TO.C,R75*%
X95237742Y-66317500D02*
X95712258Y-66317500D01*
X95237742Y-67362500D02*
X95712258Y-67362500D01*
%TO.C,D7*%
X49015000Y-19505000D02*
X49015000Y-20975000D01*
X49015000Y-20975000D02*
X51300000Y-20975000D01*
X51300000Y-19505000D02*
X49015000Y-19505000D01*
%TO.C,D92*%
X58015000Y-82505000D02*
X58015000Y-83975000D01*
X58015000Y-83975000D02*
X60300000Y-83975000D01*
X60300000Y-82505000D02*
X58015000Y-82505000D01*
%TO.C,R37*%
X77237742Y-39317500D02*
X77712258Y-39317500D01*
X77237742Y-40362500D02*
X77712258Y-40362500D01*
%TO.C,D91*%
X49015000Y-82505000D02*
X49015000Y-83975000D01*
X49015000Y-83975000D02*
X51300000Y-83975000D01*
X51300000Y-82505000D02*
X49015000Y-82505000D01*
%TO.C,R31*%
X23237742Y-39317500D02*
X23712258Y-39317500D01*
X23237742Y-40362500D02*
X23712258Y-40362500D01*
%TO.C,R57*%
X41237742Y-57317500D02*
X41712258Y-57317500D01*
X41237742Y-58362500D02*
X41712258Y-58362500D01*
%TO.C,D86*%
X112015000Y-73505000D02*
X112015000Y-74975000D01*
X112015000Y-74975000D02*
X114300000Y-74975000D01*
X114300000Y-73505000D02*
X112015000Y-73505000D01*
%TO.C,D48*%
X94015000Y-46505000D02*
X94015000Y-47975000D01*
X94015000Y-47975000D02*
X96300000Y-47975000D01*
X96300000Y-46505000D02*
X94015000Y-46505000D01*
%TO.C,R45*%
X41237742Y-48317500D02*
X41712258Y-48317500D01*
X41237742Y-49362500D02*
X41712258Y-49362500D01*
%TO.C,D94*%
X76015000Y-82505000D02*
X76015000Y-83975000D01*
X76015000Y-83975000D02*
X78300000Y-83975000D01*
X78300000Y-82505000D02*
X76015000Y-82505000D01*
%TO.C,D21*%
X67015000Y-28505000D02*
X67015000Y-29975000D01*
X67015000Y-29975000D02*
X69300000Y-29975000D01*
X69300000Y-28505000D02*
X67015000Y-28505000D01*
%TO.C,U1*%
X62500000Y-99940000D02*
X59050000Y-99940000D01*
X62500000Y-99940000D02*
X64450000Y-99940000D01*
X62500000Y-105060000D02*
X60550000Y-105060000D01*
X62500000Y-105060000D02*
X64450000Y-105060000D01*
%TO.C,D41*%
X31015000Y-46505000D02*
X31015000Y-47975000D01*
X31015000Y-47975000D02*
X33300000Y-47975000D01*
X33300000Y-46505000D02*
X31015000Y-46505000D01*
%TO.C,D33*%
X67015000Y-37505000D02*
X67015000Y-38975000D01*
X67015000Y-38975000D02*
X69300000Y-38975000D01*
X69300000Y-37505000D02*
X67015000Y-37505000D01*
%TO.C,R17*%
X113237742Y-21317500D02*
X113712258Y-21317500D01*
X113237742Y-22362500D02*
X113712258Y-22362500D01*
%TO.C,R88*%
X104237742Y-75317500D02*
X104712258Y-75317500D01*
X104237742Y-76362500D02*
X104712258Y-76362500D01*
%TO.C,D46*%
X76015000Y-46505000D02*
X76015000Y-47975000D01*
X76015000Y-47975000D02*
X78300000Y-47975000D01*
X78300000Y-46505000D02*
X76015000Y-46505000D01*
%TO.C,R92*%
X32237742Y-84317500D02*
X32712258Y-84317500D01*
X32237742Y-85362500D02*
X32712258Y-85362500D01*
%TO.C,C3*%
X67760000Y-103974420D02*
X67760000Y-104255580D01*
X66740000Y-103974420D02*
X66740000Y-104255580D01*
%TO.C,D56*%
X58015000Y-55505000D02*
X58015000Y-56975000D01*
X58015000Y-56975000D02*
X60300000Y-56975000D01*
X60300000Y-55505000D02*
X58015000Y-55505000D01*
%TO.C,R41*%
X113237742Y-39317500D02*
X113712258Y-39317500D01*
X113237742Y-40362500D02*
X113712258Y-40362500D01*
%TO.C,R96*%
X68237742Y-84317500D02*
X68712258Y-84317500D01*
X68237742Y-85362500D02*
X68712258Y-85362500D01*
%TO.C,R83*%
X59237742Y-75317500D02*
X59712258Y-75317500D01*
X59237742Y-76362500D02*
X59712258Y-76362500D01*
%TO.C,D60*%
X94015000Y-55505000D02*
X94015000Y-56975000D01*
X94015000Y-56975000D02*
X96300000Y-56975000D01*
X96300000Y-55505000D02*
X94015000Y-55505000D01*
%TO.C,D36*%
X94015000Y-37505000D02*
X94015000Y-38975000D01*
X94015000Y-38975000D02*
X96300000Y-38975000D01*
X96300000Y-37505000D02*
X94015000Y-37505000D01*
%TO.C,R39*%
X95237742Y-39317500D02*
X95712258Y-39317500D01*
X95237742Y-40362500D02*
X95712258Y-40362500D01*
%TO.C,D59*%
X85015000Y-55505000D02*
X85015000Y-56975000D01*
X85015000Y-56975000D02*
X87300000Y-56975000D01*
X87300000Y-55505000D02*
X85015000Y-55505000D01*
%TO.C,R73*%
X77237742Y-66317500D02*
X77712258Y-66317500D01*
X77237742Y-67362500D02*
X77712258Y-67362500D01*
%TO.C,R25*%
X77237742Y-30317500D02*
X77712258Y-30317500D01*
X77237742Y-31362500D02*
X77712258Y-31362500D01*
%TO.C,D5*%
X31015000Y-19505000D02*
X31015000Y-20975000D01*
X31015000Y-20975000D02*
X33300000Y-20975000D01*
X33300000Y-19505000D02*
X31015000Y-19505000D01*
%TO.C,D37*%
X103015000Y-37505000D02*
X103015000Y-38975000D01*
X103015000Y-38975000D02*
X105300000Y-38975000D01*
X105300000Y-37505000D02*
X103015000Y-37505000D01*
%TO.C,R76*%
X104237742Y-66317500D02*
X104712258Y-66317500D01*
X104237742Y-67362500D02*
X104712258Y-67362500D01*
%TO.C,R91*%
X23237742Y-84317500D02*
X23712258Y-84317500D01*
X23237742Y-85362500D02*
X23712258Y-85362500D01*
%TO.C,D42*%
X40015000Y-46505000D02*
X40015000Y-47975000D01*
X40015000Y-47975000D02*
X42300000Y-47975000D01*
X42300000Y-46505000D02*
X40015000Y-46505000D01*
%TO.C,D63*%
X13015000Y-64505000D02*
X13015000Y-65975000D01*
X13015000Y-65975000D02*
X15300000Y-65975000D01*
X15300000Y-64505000D02*
X13015000Y-64505000D01*
%TO.C,D65*%
X31015000Y-64505000D02*
X31015000Y-65975000D01*
X31015000Y-65975000D02*
X33300000Y-65975000D01*
X33300000Y-64505000D02*
X31015000Y-64505000D01*
%TO.C,D25*%
X103015000Y-28505000D02*
X103015000Y-29975000D01*
X103015000Y-29975000D02*
X105300000Y-29975000D01*
X105300000Y-28505000D02*
X103015000Y-28505000D01*
%TO.C,R82*%
X50237742Y-75317500D02*
X50712258Y-75317500D01*
X50237742Y-76362500D02*
X50712258Y-76362500D01*
%TO.C,R54*%
X14237742Y-57317500D02*
X14712258Y-57317500D01*
X14237742Y-58362500D02*
X14712258Y-58362500D01*
%TO.C,D97*%
X103015000Y-82505000D02*
X103015000Y-83975000D01*
X103015000Y-83975000D02*
X105300000Y-83975000D01*
X105300000Y-82505000D02*
X103015000Y-82505000D01*
%TO.C,R56*%
X32237742Y-57317500D02*
X32712258Y-57317500D01*
X32237742Y-58362500D02*
X32712258Y-58362500D01*
%TO.C,D16*%
X22015000Y-28505000D02*
X22015000Y-29975000D01*
X22015000Y-29975000D02*
X24300000Y-29975000D01*
X24300000Y-28505000D02*
X22015000Y-28505000D01*
%TO.C,D50*%
X112015000Y-46505000D02*
X112015000Y-47975000D01*
X112015000Y-47975000D02*
X114300000Y-47975000D01*
X114300000Y-46505000D02*
X112015000Y-46505000D01*
%TO.C,R15*%
X95237742Y-21317500D02*
X95712258Y-21317500D01*
X95237742Y-22362500D02*
X95712258Y-22362500D01*
%TO.C,D88*%
X22015000Y-82505000D02*
X22015000Y-83975000D01*
X22015000Y-83975000D02*
X24300000Y-83975000D01*
X24300000Y-82505000D02*
X22015000Y-82505000D01*
%TO.C,R23*%
X59237742Y-30317500D02*
X59712258Y-30317500D01*
X59237742Y-31362500D02*
X59712258Y-31362500D01*
%TO.C,R87*%
X95237742Y-75317500D02*
X95712258Y-75317500D01*
X95237742Y-76362500D02*
X95712258Y-76362500D01*
%TO.C,R24*%
X68237742Y-30317500D02*
X68712258Y-30317500D01*
X68237742Y-31362500D02*
X68712258Y-31362500D01*
%TO.C,R49*%
X77237742Y-48317500D02*
X77712258Y-48317500D01*
X77237742Y-49362500D02*
X77712258Y-49362500D01*
%TO.C,D87*%
X13015000Y-82505000D02*
X13015000Y-83975000D01*
X13015000Y-83975000D02*
X15300000Y-83975000D01*
X15300000Y-82505000D02*
X13015000Y-82505000D01*
%TO.C,R7*%
X23237742Y-21317500D02*
X23712258Y-21317500D01*
X23237742Y-22362500D02*
X23712258Y-22362500D01*
%TO.C,R98*%
X86237742Y-84317500D02*
X86712258Y-84317500D01*
X86237742Y-85362500D02*
X86712258Y-85362500D01*
%TO.C,D39*%
X13015000Y-46505000D02*
X13015000Y-47975000D01*
X13015000Y-47975000D02*
X15300000Y-47975000D01*
X15300000Y-46505000D02*
X13015000Y-46505000D01*
%TO.C,R68*%
X32237742Y-66317500D02*
X32712258Y-66317500D01*
X32237742Y-67362500D02*
X32712258Y-67362500D01*
%TO.C,D93*%
X67015000Y-82505000D02*
X67015000Y-83975000D01*
X67015000Y-83975000D02*
X69300000Y-83975000D01*
X69300000Y-82505000D02*
X67015000Y-82505000D01*
%TO.C,D71*%
X85015000Y-64505000D02*
X85015000Y-65975000D01*
X85015000Y-65975000D02*
X87300000Y-65975000D01*
X87300000Y-64505000D02*
X85015000Y-64505000D01*
%TO.C,D84*%
X94015000Y-73505000D02*
X94015000Y-74975000D01*
X94015000Y-74975000D02*
X96300000Y-74975000D01*
X96300000Y-73505000D02*
X94015000Y-73505000D01*
%TO.C,R28*%
X104237742Y-30317500D02*
X104712258Y-30317500D01*
X104237742Y-31362500D02*
X104712258Y-31362500D01*
%TO.C,D14*%
X112015000Y-19505000D02*
X112015000Y-20975000D01*
X112015000Y-20975000D02*
X114300000Y-20975000D01*
X114300000Y-19505000D02*
X112015000Y-19505000D01*
%TO.C,R86*%
X86237742Y-75317500D02*
X86712258Y-75317500D01*
X86237742Y-76362500D02*
X86712258Y-76362500D01*
%TO.C,D96*%
X94015000Y-82505000D02*
X94015000Y-83975000D01*
X94015000Y-83975000D02*
X96300000Y-83975000D01*
X96300000Y-82505000D02*
X94015000Y-82505000D01*
%TO.C,D18*%
X40015000Y-28505000D02*
X40015000Y-29975000D01*
X40015000Y-29975000D02*
X42300000Y-29975000D01*
X42300000Y-28505000D02*
X40015000Y-28505000D01*
%TO.C,R20*%
X32237742Y-30317500D02*
X32712258Y-30317500D01*
X32237742Y-31362500D02*
X32712258Y-31362500D01*
%TD*%
M02*
