M48
; DRILL file {KiCad 7.0.10} date Sat Jun  8 12:58:17 2024
; FORMAT={-:-/ absolute / metric / decimal}
; #@! TF.CreationDate,2024-06-08T12:58:17-05:00
; #@! TF.GenerationSoftware,Kicad,Pcbnew,7.0.10
; #@! TF.FileFunction,Plated,1,2,PTH
FMAT,2
METRIC
; #@! TA.AperFunction,Plated,PTH,ViaDrill
T1C0.300
; #@! TA.AperFunction,Plated,PTH,ComponentDrill
T2C0.600
; #@! TA.AperFunction,Plated,PTH,ComponentDrill
T3C0.900
; #@! TA.AperFunction,Plated,PTH,ComponentDrill
T4C1.000
; #@! TA.AperFunction,Plated,PTH,ComponentDrill
T5C1.200
; #@! TA.AperFunction,Plated,PTH,ComponentDrill
T6C2.300
; #@! TA.AperFunction,Plated,PTH,ComponentDrill
T7C3.200
%
G90
G05
T1
X12.8Y-21.85
X12.8Y-30.85
X12.8Y-39.85
X12.8Y-48.85
X12.8Y-57.85
X12.8Y-66.85
X12.8Y-75.85
X12.8Y-84.85
X20.05Y-99.6
X21.8Y-21.85
X21.8Y-30.85
X21.8Y-39.85
X21.8Y-48.85
X21.8Y-57.85
X21.8Y-66.85
X21.8Y-75.85
X21.8Y-84.85
X23.8Y-97.5
X26.45Y-99.55
X27.7Y-97.7
X30.8Y-21.85
X30.8Y-30.85
X30.8Y-39.85
X30.8Y-48.85
X30.8Y-57.85
X30.8Y-66.85
X30.8Y-75.85
X30.8Y-84.85
X39.8Y-21.85
X39.8Y-30.85
X39.8Y-39.85
X39.8Y-48.85
X39.8Y-57.85
X39.8Y-66.85
X39.8Y-75.85
X39.8Y-84.85
X48.8Y-21.85
X48.8Y-30.85
X48.8Y-39.85
X48.8Y-48.85
X48.8Y-57.85
X48.8Y-66.85
X48.8Y-75.85
X48.8Y-84.85
X55.0Y-97.5
X55.0Y-98.5
X56.0Y-97.5
X56.0Y-98.5
X57.8Y-21.85
X57.8Y-30.85
X57.8Y-39.85
X57.8Y-48.85
X57.8Y-57.85
X57.8Y-66.85
X57.8Y-75.85
X57.8Y-84.85
X58.0Y-99.75
X59.0Y-99.75
X60.0Y-97.5
X60.0Y-99.75
X62.5Y-98.865
X65.0Y-93.5
X66.0Y-93.5
X66.8Y-21.85
X66.8Y-30.85
X66.8Y-39.85
X66.8Y-48.85
X66.8Y-57.85
X66.8Y-66.85
X66.8Y-75.85
X66.8Y-84.85
X67.0Y-93.5
X67.5Y-106.5
X68.0Y-93.5
X68.25Y-104.89
X75.8Y-21.85
X75.8Y-30.85
X75.8Y-39.85
X75.8Y-48.85
X75.8Y-57.85
X75.8Y-66.85
X75.8Y-75.85
X75.8Y-84.85
X84.8Y-21.85
X84.8Y-30.85
X84.8Y-39.85
X84.8Y-48.85
X84.8Y-57.85
X84.8Y-66.85
X84.8Y-75.85
X84.8Y-84.85
X93.8Y-21.85
X93.8Y-30.85
X93.8Y-39.85
X93.8Y-48.85
X93.8Y-57.85
X93.8Y-66.85
X93.8Y-75.85
X93.8Y-84.85
X102.8Y-21.85
X102.8Y-30.85
X102.8Y-39.85
X102.8Y-48.85
X102.8Y-57.85
X102.8Y-66.85
X102.8Y-75.85
X102.8Y-84.85
X111.8Y-21.85
X111.8Y-30.85
X111.8Y-39.85
X111.8Y-48.85
X111.8Y-57.85
X111.8Y-66.85
X111.8Y-75.85
X111.8Y-84.85
T3
X33.542Y-102.5
X37.542Y-102.5
X41.542Y-102.5
T4
X80.75Y-104.0
X83.25Y-104.0
X85.75Y-104.0
T5
X31.542Y-100.75
X31.542Y-106.75
X43.542Y-100.75
X43.542Y-106.75
T6
X78.25Y-100.7
X88.25Y-100.7
T7
X4.0Y-4.0
X4.0Y-104.0
X124.0Y-4.0
X124.0Y-104.0
T2
G00X18.93Y-100.695
M15
G01X18.93Y-101.795
M16
G05
G00X18.93Y-105.025
M15
G01X18.93Y-105.825
M16
G05
G00X27.57Y-100.695
M15
G01X27.57Y-101.795
M16
G05
G00X27.57Y-105.025
M15
G01X27.57Y-105.825
M16
G05
M30
