M48
; DRILL file {KiCad 7.0.10} date Sat Jun  8 12:25:35 2024
; FORMAT={-:-/ absolute / metric / decimal}
; #@! TF.CreationDate,2024-06-08T12:25:35-05:00
; #@! TF.GenerationSoftware,Kicad,Pcbnew,7.0.10
; #@! TF.FileFunction,Plated,1,2,PTH
FMAT,2
METRIC
; #@! TA.AperFunction,Plated,PTH,ViaDrill
T1C0.300
; #@! TA.AperFunction,Plated,PTH,ComponentDrill
T2C0.600
; #@! TA.AperFunction,Plated,PTH,ComponentDrill
T3C0.900
; #@! TA.AperFunction,Plated,PTH,ComponentDrill
T4C1.000
; #@! TA.AperFunction,Plated,PTH,ComponentDrill
T5C1.200
; #@! TA.AperFunction,Plated,PTH,ComponentDrill
T6C2.300
; #@! TA.AperFunction,Plated,PTH,ComponentDrill
T7C3.200
%
G90
G05
T1
X116.3Y-50.85
X116.3Y-59.85
X116.3Y-68.85
X116.3Y-77.85
X116.3Y-86.85
X116.3Y-95.85
X116.3Y-104.85
X116.3Y-113.85
X123.5Y-128.6
X125.3Y-50.85
X125.3Y-59.85
X125.3Y-68.85
X125.3Y-77.85
X125.3Y-86.85
X125.3Y-95.85
X125.3Y-104.85
X125.3Y-113.85
X127.3Y-126.5
X130.0Y-128.6
X131.2Y-126.7
X134.3Y-50.85
X134.3Y-59.85
X134.3Y-68.85
X134.3Y-77.85
X134.3Y-86.85
X134.3Y-95.85
X134.3Y-104.85
X134.3Y-113.85
X143.3Y-50.85
X143.3Y-59.85
X143.3Y-68.85
X143.3Y-77.85
X143.3Y-86.85
X143.3Y-95.85
X143.3Y-104.85
X143.3Y-113.85
X152.3Y-50.85
X152.3Y-59.85
X152.3Y-68.85
X152.3Y-77.85
X152.3Y-86.85
X152.3Y-95.85
X152.3Y-104.85
X152.3Y-113.85
X158.5Y-126.5
X158.5Y-127.5
X159.5Y-126.5
X159.5Y-127.5
X161.3Y-50.85
X161.3Y-59.85
X161.3Y-68.85
X161.3Y-77.85
X161.3Y-86.85
X161.3Y-95.85
X161.3Y-104.85
X161.3Y-113.85
X161.5Y-128.75
X162.5Y-128.75
X163.5Y-126.5
X163.5Y-128.75
X166.0Y-127.865
X168.5Y-122.5
X169.5Y-122.5
X170.3Y-50.85
X170.3Y-59.85
X170.3Y-68.85
X170.3Y-77.85
X170.3Y-86.85
X170.3Y-95.85
X170.3Y-104.85
X170.3Y-113.85
X170.5Y-122.5
X171.0Y-135.5
X171.5Y-122.5
X171.75Y-133.89
X179.3Y-50.85
X179.3Y-59.85
X179.3Y-68.85
X179.3Y-77.85
X179.3Y-86.85
X179.3Y-95.85
X179.3Y-104.85
X179.3Y-113.85
X188.3Y-50.85
X188.3Y-59.85
X188.3Y-68.85
X188.3Y-77.85
X188.3Y-86.85
X188.3Y-95.85
X188.3Y-104.85
X188.3Y-113.85
X197.3Y-50.85
X197.3Y-59.85
X197.3Y-68.85
X197.3Y-77.85
X197.3Y-86.85
X197.3Y-95.85
X197.3Y-104.85
X197.3Y-113.85
X206.3Y-50.85
X206.3Y-59.85
X206.3Y-68.85
X206.3Y-77.85
X206.3Y-86.85
X206.3Y-95.85
X206.3Y-104.85
X206.3Y-113.85
X215.3Y-50.85
X215.3Y-59.85
X215.3Y-68.85
X215.3Y-77.85
X215.3Y-86.85
X215.3Y-95.85
X215.3Y-104.85
X215.3Y-113.85
T3
X137.042Y-131.5
X141.042Y-131.5
X145.042Y-131.5
T4
X184.25Y-133.0
X186.75Y-133.0
X189.25Y-133.0
T5
X135.042Y-129.75
X135.042Y-135.75
X147.042Y-129.75
X147.042Y-135.75
T6
X181.75Y-129.7
X191.75Y-129.7
T7
X107.5Y-33.0
X107.5Y-133.0
X227.5Y-33.0
X227.5Y-133.0
T2
G00X122.43Y-129.695
M15
G01X122.43Y-130.795
M16
G05
G00X122.43Y-134.025
M15
G01X122.43Y-134.825
M16
G05
G00X131.07Y-129.695
M15
G01X131.07Y-130.795
M16
G05
G00X131.07Y-134.025
M15
G01X131.07Y-134.825
M16
G05
M30
