%TF.GenerationSoftware,KiCad,Pcbnew,7.0.10*%
%TF.CreationDate,2024-06-08T14:33:12-05:00*%
%TF.ProjectId,viewer_rev2,76696577-6572-45f7-9265-76322e6b6963,rev?*%
%TF.SameCoordinates,PX62b48e0PY1ba8140*%
%TF.FileFunction,Drillmap*%
%TF.FilePolarity,Positive*%
%FSLAX45Y45*%
G04 Gerber Fmt 4.5, Leading zero omitted, Abs format (unit mm)*
G04 Created by KiCad (PCBNEW 7.0.10) date 2024-06-08 14:33:12*
%MOMM*%
%LPD*%
G01*
G04 APERTURE LIST*
%ADD10C,0.050000*%
%ADD11C,0.200000*%
%ADD12C,0.100000*%
%ADD13C,0.185000*%
%ADD14C,0.230000*%
%ADD15C,0.320000*%
G04 APERTURE END LIST*
D10*
X400000Y-10800000D02*
X12400000Y-10800000D01*
X400000Y0D02*
G75*
G03*
X0Y-400000I0J-400000D01*
G01*
X12800000Y-400000D02*
G75*
G03*
X12400000Y0I-400000J0D01*
G01*
X0Y-400000D02*
X0Y-10400000D01*
X0Y-10400000D02*
G75*
G03*
X400000Y-10800000I400000J0D01*
G01*
X400000Y0D02*
X12400000Y0D01*
X12400000Y-10800000D02*
G75*
G03*
X12800000Y-10400000I0J400000D01*
G01*
X12800000Y-400000D02*
X12800000Y-10400000D01*
D11*
D12*
X1265000Y-2170000D02*
X1295000Y-2200000D01*
X1295000Y-2170000D02*
X1265000Y-2200000D01*
X1265000Y-3070000D02*
X1295000Y-3100000D01*
X1295000Y-3070000D02*
X1265000Y-3100000D01*
X1265000Y-3970000D02*
X1295000Y-4000000D01*
X1295000Y-3970000D02*
X1265000Y-4000000D01*
X1265000Y-4870000D02*
X1295000Y-4900000D01*
X1295000Y-4870000D02*
X1265000Y-4900000D01*
X1265000Y-5770000D02*
X1295000Y-5800000D01*
X1295000Y-5770000D02*
X1265000Y-5800000D01*
X1265000Y-6670000D02*
X1295000Y-6700000D01*
X1295000Y-6670000D02*
X1265000Y-6700000D01*
X1265000Y-7570000D02*
X1295000Y-7600000D01*
X1295000Y-7570000D02*
X1265000Y-7600000D01*
X1265000Y-8470000D02*
X1295000Y-8500000D01*
X1295000Y-8470000D02*
X1265000Y-8500000D01*
X1665000Y-9945000D02*
X1695000Y-9975000D01*
X1695000Y-9945000D02*
X1665000Y-9975000D01*
X2040000Y-9735000D02*
X2070000Y-9765000D01*
X2070000Y-9735000D02*
X2040000Y-9765000D01*
X2165000Y-2170000D02*
X2195000Y-2200000D01*
X2195000Y-2170000D02*
X2165000Y-2200000D01*
X2165000Y-3070000D02*
X2195000Y-3100000D01*
X2195000Y-3070000D02*
X2165000Y-3100000D01*
X2165000Y-3970000D02*
X2195000Y-4000000D01*
X2195000Y-3970000D02*
X2165000Y-4000000D01*
X2165000Y-4870000D02*
X2195000Y-4900000D01*
X2195000Y-4870000D02*
X2165000Y-4900000D01*
X2165000Y-5770000D02*
X2195000Y-5800000D01*
X2195000Y-5770000D02*
X2165000Y-5800000D01*
X2165000Y-6670000D02*
X2195000Y-6700000D01*
X2195000Y-6670000D02*
X2165000Y-6700000D01*
X2165000Y-7570000D02*
X2195000Y-7600000D01*
X2195000Y-7570000D02*
X2165000Y-7600000D01*
X2165000Y-8470000D02*
X2195000Y-8500000D01*
X2195000Y-8470000D02*
X2165000Y-8500000D01*
X2305000Y-9939999D02*
X2335000Y-9969999D01*
X2335000Y-9939999D02*
X2305000Y-9969999D01*
X2430000Y-9755000D02*
X2460000Y-9785000D01*
X2460000Y-9755000D02*
X2430000Y-9785000D01*
X3065000Y-2170000D02*
X3095000Y-2200000D01*
X3095000Y-2170000D02*
X3065000Y-2200000D01*
X3065000Y-3070000D02*
X3095000Y-3100000D01*
X3095000Y-3070000D02*
X3065000Y-3100000D01*
X3065000Y-3970000D02*
X3095000Y-4000000D01*
X3095000Y-3970000D02*
X3065000Y-4000000D01*
X3065000Y-4870000D02*
X3095000Y-4900000D01*
X3095000Y-4870000D02*
X3065000Y-4900000D01*
X3065000Y-5770000D02*
X3095000Y-5800000D01*
X3095000Y-5770000D02*
X3065000Y-5800000D01*
X3065000Y-6670000D02*
X3095000Y-6700000D01*
X3095000Y-6670000D02*
X3065000Y-6700000D01*
X3065000Y-7570000D02*
X3095000Y-7600000D01*
X3095000Y-7570000D02*
X3065000Y-7600000D01*
X3065000Y-8470000D02*
X3095000Y-8500000D01*
X3095000Y-8470000D02*
X3065000Y-8500000D01*
X3965000Y-2170000D02*
X3995000Y-2200000D01*
X3995000Y-2170000D02*
X3965000Y-2200000D01*
X3965000Y-3070000D02*
X3995000Y-3100000D01*
X3995000Y-3070000D02*
X3965000Y-3100000D01*
X3965000Y-3970000D02*
X3995000Y-4000000D01*
X3995000Y-3970000D02*
X3965000Y-4000000D01*
X3965000Y-4870000D02*
X3995000Y-4900000D01*
X3995000Y-4870000D02*
X3965000Y-4900000D01*
X3965000Y-5770000D02*
X3995000Y-5800000D01*
X3995000Y-5770000D02*
X3965000Y-5800000D01*
X3965000Y-6670000D02*
X3995000Y-6700000D01*
X3995000Y-6670000D02*
X3965000Y-6700000D01*
X3965000Y-7570000D02*
X3995000Y-7600000D01*
X3995000Y-7570000D02*
X3965000Y-7600000D01*
X3965000Y-8470000D02*
X3995000Y-8500000D01*
X3995000Y-8470000D02*
X3965000Y-8500000D01*
X4865000Y-2170000D02*
X4895000Y-2200000D01*
X4895000Y-2170000D02*
X4865000Y-2200000D01*
X4865000Y-3070000D02*
X4895000Y-3100000D01*
X4895000Y-3070000D02*
X4865000Y-3100000D01*
X4865000Y-3970000D02*
X4895000Y-4000000D01*
X4895000Y-3970000D02*
X4865000Y-4000000D01*
X4865000Y-4870000D02*
X4895000Y-4900000D01*
X4895000Y-4870000D02*
X4865000Y-4900000D01*
X4865000Y-5770000D02*
X4895000Y-5800000D01*
X4895000Y-5770000D02*
X4865000Y-5800000D01*
X4865000Y-6670000D02*
X4895000Y-6700000D01*
X4895000Y-6670000D02*
X4865000Y-6700000D01*
X4865000Y-7570000D02*
X4895000Y-7600000D01*
X4895000Y-7570000D02*
X4865000Y-7600000D01*
X4865000Y-8470000D02*
X4895000Y-8500000D01*
X4895000Y-8470000D02*
X4865000Y-8500000D01*
X5485000Y-9735000D02*
X5515000Y-9765000D01*
X5515000Y-9735000D02*
X5485000Y-9765000D01*
X5485000Y-9835000D02*
X5515000Y-9865000D01*
X5515000Y-9835000D02*
X5485000Y-9865000D01*
X5585000Y-9735000D02*
X5615000Y-9765000D01*
X5615000Y-9735000D02*
X5585000Y-9765000D01*
X5585000Y-9835000D02*
X5615000Y-9865000D01*
X5615000Y-9835000D02*
X5585000Y-9865000D01*
X5765000Y-2170000D02*
X5795000Y-2200000D01*
X5795000Y-2170000D02*
X5765000Y-2200000D01*
X5765000Y-3070000D02*
X5795000Y-3100000D01*
X5795000Y-3070000D02*
X5765000Y-3100000D01*
X5765000Y-3970000D02*
X5795000Y-4000000D01*
X5795000Y-3970000D02*
X5765000Y-4000000D01*
X5765000Y-4870000D02*
X5795000Y-4900000D01*
X5795000Y-4870000D02*
X5765000Y-4900000D01*
X5765000Y-5770000D02*
X5795000Y-5800000D01*
X5795000Y-5770000D02*
X5765000Y-5800000D01*
X5765000Y-6670000D02*
X5795000Y-6700000D01*
X5795000Y-6670000D02*
X5765000Y-6700000D01*
X5765000Y-7570000D02*
X5795000Y-7600000D01*
X5795000Y-7570000D02*
X5765000Y-7600000D01*
X5765000Y-8470000D02*
X5795000Y-8500000D01*
X5795000Y-8470000D02*
X5765000Y-8500000D01*
X5785000Y-9960000D02*
X5815000Y-9990000D01*
X5815000Y-9960000D02*
X5785000Y-9990000D01*
X5885000Y-9960000D02*
X5915000Y-9990000D01*
X5915000Y-9960000D02*
X5885000Y-9990000D01*
X5985000Y-9735000D02*
X6015000Y-9765000D01*
X6015000Y-9735000D02*
X5985000Y-9765000D01*
X5985000Y-9960000D02*
X6015000Y-9990000D01*
X6015000Y-9960000D02*
X5985000Y-9990000D01*
X6235000Y-9871500D02*
X6265000Y-9901500D01*
X6265000Y-9871500D02*
X6235000Y-9901500D01*
X6485000Y-9335000D02*
X6515000Y-9365000D01*
X6515000Y-9335000D02*
X6485000Y-9365000D01*
X6585000Y-9335000D02*
X6615000Y-9365000D01*
X6615000Y-9335000D02*
X6585000Y-9365000D01*
X6665000Y-2170000D02*
X6695000Y-2200000D01*
X6695000Y-2170000D02*
X6665000Y-2200000D01*
X6665000Y-3070000D02*
X6695000Y-3100000D01*
X6695000Y-3070000D02*
X6665000Y-3100000D01*
X6665000Y-3970000D02*
X6695000Y-4000000D01*
X6695000Y-3970000D02*
X6665000Y-4000000D01*
X6665000Y-4870000D02*
X6695000Y-4900000D01*
X6695000Y-4870000D02*
X6665000Y-4900000D01*
X6665000Y-5770000D02*
X6695000Y-5800000D01*
X6695000Y-5770000D02*
X6665000Y-5800000D01*
X6665000Y-6670000D02*
X6695000Y-6700000D01*
X6695000Y-6670000D02*
X6665000Y-6700000D01*
X6665000Y-7570000D02*
X6695000Y-7600000D01*
X6695000Y-7570000D02*
X6665000Y-7600000D01*
X6665000Y-8470000D02*
X6695000Y-8500000D01*
X6695000Y-8470000D02*
X6665000Y-8500000D01*
X6685000Y-9335000D02*
X6715000Y-9365000D01*
X6715000Y-9335000D02*
X6685000Y-9365000D01*
X6735000Y-10635000D02*
X6765000Y-10665000D01*
X6765000Y-10635000D02*
X6735000Y-10665000D01*
X6785000Y-9335000D02*
X6815000Y-9365000D01*
X6815000Y-9335000D02*
X6785000Y-9365000D01*
X6810000Y-10474000D02*
X6840000Y-10504000D01*
X6840000Y-10474000D02*
X6810000Y-10504000D01*
X7565000Y-2170000D02*
X7595000Y-2200000D01*
X7595000Y-2170000D02*
X7565000Y-2200000D01*
X7565000Y-3070000D02*
X7595000Y-3100000D01*
X7595000Y-3070000D02*
X7565000Y-3100000D01*
X7565000Y-3970000D02*
X7595000Y-4000000D01*
X7595000Y-3970000D02*
X7565000Y-4000000D01*
X7565000Y-4870000D02*
X7595000Y-4900000D01*
X7595000Y-4870000D02*
X7565000Y-4900000D01*
X7565000Y-5770000D02*
X7595000Y-5800000D01*
X7595000Y-5770000D02*
X7565000Y-5800000D01*
X7565000Y-6670000D02*
X7595000Y-6700000D01*
X7595000Y-6670000D02*
X7565000Y-6700000D01*
X7565000Y-7570000D02*
X7595000Y-7600000D01*
X7595000Y-7570000D02*
X7565000Y-7600000D01*
X7565000Y-8470000D02*
X7595000Y-8500000D01*
X7595000Y-8470000D02*
X7565000Y-8500000D01*
X8465000Y-2170000D02*
X8495000Y-2200000D01*
X8495000Y-2170000D02*
X8465000Y-2200000D01*
X8465000Y-3070000D02*
X8495000Y-3100000D01*
X8495000Y-3070000D02*
X8465000Y-3100000D01*
X8465000Y-3970000D02*
X8495000Y-4000000D01*
X8495000Y-3970000D02*
X8465000Y-4000000D01*
X8465000Y-4870000D02*
X8495000Y-4900000D01*
X8495000Y-4870000D02*
X8465000Y-4900000D01*
X8465000Y-5770000D02*
X8495000Y-5800000D01*
X8495000Y-5770000D02*
X8465000Y-5800000D01*
X8465000Y-6670000D02*
X8495000Y-6700000D01*
X8495000Y-6670000D02*
X8465000Y-6700000D01*
X8465000Y-7570000D02*
X8495000Y-7600000D01*
X8495000Y-7570000D02*
X8465000Y-7600000D01*
X8465000Y-8470000D02*
X8495000Y-8500000D01*
X8495000Y-8470000D02*
X8465000Y-8500000D01*
X9365000Y-2170000D02*
X9395000Y-2200000D01*
X9395000Y-2170000D02*
X9365000Y-2200000D01*
X9365000Y-3070000D02*
X9395000Y-3100000D01*
X9395000Y-3070000D02*
X9365000Y-3100000D01*
X9365000Y-3970000D02*
X9395000Y-4000000D01*
X9395000Y-3970000D02*
X9365000Y-4000000D01*
X9365000Y-4870000D02*
X9395000Y-4900000D01*
X9395000Y-4870000D02*
X9365000Y-4900000D01*
X9365000Y-5770000D02*
X9395000Y-5800000D01*
X9395000Y-5770000D02*
X9365000Y-5800000D01*
X9365000Y-6670000D02*
X9395000Y-6700000D01*
X9395000Y-6670000D02*
X9365000Y-6700000D01*
X9365000Y-7570000D02*
X9395000Y-7600000D01*
X9395000Y-7570000D02*
X9365000Y-7600000D01*
X9365000Y-8470000D02*
X9395000Y-8500000D01*
X9395000Y-8470000D02*
X9365000Y-8500000D01*
X10265000Y-2170000D02*
X10295000Y-2200000D01*
X10295000Y-2170000D02*
X10265000Y-2200000D01*
X10265000Y-3070000D02*
X10295000Y-3100000D01*
X10295000Y-3070000D02*
X10265000Y-3100000D01*
X10265000Y-3970000D02*
X10295000Y-4000000D01*
X10295000Y-3970000D02*
X10265000Y-4000000D01*
X10265000Y-4870000D02*
X10295000Y-4900000D01*
X10295000Y-4870000D02*
X10265000Y-4900000D01*
X10265000Y-5770000D02*
X10295000Y-5800000D01*
X10295000Y-5770000D02*
X10265000Y-5800000D01*
X10265000Y-6670000D02*
X10295000Y-6700000D01*
X10295000Y-6670000D02*
X10265000Y-6700000D01*
X10265000Y-7570000D02*
X10295000Y-7600000D01*
X10295000Y-7570000D02*
X10265000Y-7600000D01*
X10265000Y-8470000D02*
X10295000Y-8500000D01*
X10295000Y-8470000D02*
X10265000Y-8500000D01*
X11165000Y-2170000D02*
X11195000Y-2200000D01*
X11195000Y-2170000D02*
X11165000Y-2200000D01*
X11165000Y-3070000D02*
X11195000Y-3100000D01*
X11195000Y-3070000D02*
X11165000Y-3100000D01*
X11165000Y-3970000D02*
X11195000Y-4000000D01*
X11195000Y-3970000D02*
X11165000Y-4000000D01*
X11165000Y-4870000D02*
X11195000Y-4900000D01*
X11195000Y-4870000D02*
X11165000Y-4900000D01*
X11165000Y-5770000D02*
X11195000Y-5800000D01*
X11195000Y-5770000D02*
X11165000Y-5800000D01*
X11165000Y-6670000D02*
X11195000Y-6700000D01*
X11195000Y-6670000D02*
X11165000Y-6700000D01*
X11165000Y-7570000D02*
X11195000Y-7600000D01*
X11195000Y-7570000D02*
X11165000Y-7600000D01*
X11165000Y-8470000D02*
X11195000Y-8500000D01*
X11195000Y-8470000D02*
X11165000Y-8500000D01*
X1598000Y-10124500D02*
G75*
G03*
X1538000Y-10124500I-30000J0D01*
G01*
X1538000Y-10124500D02*
G75*
G03*
X1598000Y-10124500I30000J0D01*
G01*
X1538000Y-10069500D02*
X1538000Y-10179500D01*
X1538000Y-10179500D02*
G75*
G03*
X1598000Y-10179500I30000J0D01*
G01*
X1598000Y-10179500D02*
X1598000Y-10069500D01*
X1598000Y-10069500D02*
G75*
G03*
X1538000Y-10069500I-30000J0D01*
G01*
X1598000Y-10542500D02*
G75*
G03*
X1538000Y-10542500I-30000J0D01*
G01*
X1538000Y-10542500D02*
G75*
G03*
X1598000Y-10542500I30000J0D01*
G01*
X1538000Y-10502500D02*
X1538000Y-10582500D01*
X1538000Y-10582500D02*
G75*
G03*
X1598000Y-10582500I30000J0D01*
G01*
X1598000Y-10582500D02*
X1598000Y-10502500D01*
X1598000Y-10502500D02*
G75*
G03*
X1538000Y-10502500I-30000J0D01*
G01*
X2462000Y-10124500D02*
G75*
G03*
X2402000Y-10124500I-30000J0D01*
G01*
X2402000Y-10124500D02*
G75*
G03*
X2462000Y-10124500I30000J0D01*
G01*
X2402000Y-10069500D02*
X2402000Y-10179500D01*
X2402000Y-10179500D02*
G75*
G03*
X2462000Y-10179500I30000J0D01*
G01*
X2462000Y-10179500D02*
X2462000Y-10069500D01*
X2462000Y-10069500D02*
G75*
G03*
X2402000Y-10069500I-30000J0D01*
G01*
X2462000Y-10542500D02*
G75*
G03*
X2402000Y-10542500I-30000J0D01*
G01*
X2402000Y-10542500D02*
G75*
G03*
X2462000Y-10542500I30000J0D01*
G01*
X2402000Y-10502500D02*
X2402000Y-10582500D01*
X2402000Y-10582500D02*
G75*
G03*
X2462000Y-10582500I30000J0D01*
G01*
X2462000Y-10582500D02*
X2462000Y-10502500D01*
X2462000Y-10502500D02*
G75*
G03*
X2402000Y-10502500I-30000J0D01*
G01*
X8075000Y-10350000D02*
X8075000Y-10450000D01*
X8025000Y-10400000D02*
X8125000Y-10400000D01*
X8325000Y-10350000D02*
X8325000Y-10450000D01*
X8275000Y-10400000D02*
X8375000Y-10400000D01*
X8575000Y-10350000D02*
X8575000Y-10450000D01*
X8525000Y-10400000D02*
X8625000Y-10400000D01*
D13*
X2954908Y-10668158D02*
X2954908Y-10537342D01*
X2824092Y-10537342D01*
X2824092Y-10668158D01*
X2954908Y-10668158D01*
X3145408Y-9715158D02*
X3145408Y-9584342D01*
X3014592Y-9584342D01*
X3014592Y-9715158D01*
X3145408Y-9715158D01*
X3615408Y-9715158D02*
X3615408Y-9584342D01*
X3484592Y-9584342D01*
X3484592Y-9715158D01*
X3615408Y-9715158D01*
X4085408Y-9715158D02*
X4085408Y-9584342D01*
X3954592Y-9584342D01*
X3954592Y-9715158D01*
X4085408Y-9715158D01*
X4275908Y-10668158D02*
X4275908Y-10537342D01*
X4145092Y-10537342D01*
X4145092Y-10668158D01*
X4275908Y-10668158D01*
D14*
X7825000Y-10185000D02*
X7940000Y-10070000D01*
X7825000Y-9955000D01*
X7710000Y-10070000D01*
X7825000Y-10185000D01*
X8825000Y-10185000D02*
X8940000Y-10070000D01*
X8825000Y-9955000D01*
X8710000Y-10070000D01*
X8825000Y-10185000D01*
D15*
X240000Y-240000D02*
X560000Y-560000D01*
X560000Y-240000D02*
X240000Y-560000D01*
X560000Y-400000D02*
G75*
G03*
X240000Y-400000I-160000J0D01*
G01*
X240000Y-400000D02*
G75*
G03*
X560000Y-400000I160000J0D01*
G01*
X240000Y-10240000D02*
X560000Y-10560000D01*
X560000Y-10240000D02*
X240000Y-10560000D01*
X560000Y-10400000D02*
G75*
G03*
X240000Y-10400000I-160000J0D01*
G01*
X240000Y-10400000D02*
G75*
G03*
X560000Y-10400000I160000J0D01*
G01*
X12240000Y-240000D02*
X12560000Y-560000D01*
X12560000Y-240000D02*
X12240000Y-560000D01*
X12560000Y-400000D02*
G75*
G03*
X12240000Y-400000I-160000J0D01*
G01*
X12240000Y-400000D02*
G75*
G03*
X12560000Y-400000I160000J0D01*
G01*
X12240000Y-10240000D02*
X12560000Y-10560000D01*
X12560000Y-10240000D02*
X12240000Y-10560000D01*
X12560000Y-10400000D02*
G75*
G03*
X12240000Y-10400000I-160000J0D01*
G01*
X12240000Y-10400000D02*
G75*
G03*
X12560000Y-10400000I160000J0D01*
G01*
D11*
X258277Y-11113984D02*
X258277Y-10913984D01*
X258277Y-10913984D02*
X305896Y-10913984D01*
X305896Y-10913984D02*
X334467Y-10923508D01*
X334467Y-10923508D02*
X353515Y-10942555D01*
X353515Y-10942555D02*
X363039Y-10961603D01*
X363039Y-10961603D02*
X372562Y-10999698D01*
X372562Y-10999698D02*
X372562Y-11028270D01*
X372562Y-11028270D02*
X363039Y-11066365D01*
X363039Y-11066365D02*
X353515Y-11085412D01*
X353515Y-11085412D02*
X334467Y-11104460D01*
X334467Y-11104460D02*
X305896Y-11113984D01*
X305896Y-11113984D02*
X258277Y-11113984D01*
X458277Y-11113984D02*
X458277Y-10980650D01*
X458277Y-11018746D02*
X467801Y-10999698D01*
X467801Y-10999698D02*
X477324Y-10990174D01*
X477324Y-10990174D02*
X496372Y-10980650D01*
X496372Y-10980650D02*
X515420Y-10980650D01*
X582086Y-11113984D02*
X582086Y-10980650D01*
X582086Y-10913984D02*
X572563Y-10923508D01*
X572563Y-10923508D02*
X582086Y-10933031D01*
X582086Y-10933031D02*
X591610Y-10923508D01*
X591610Y-10923508D02*
X582086Y-10913984D01*
X582086Y-10913984D02*
X582086Y-10933031D01*
X705896Y-11113984D02*
X686848Y-11104460D01*
X686848Y-11104460D02*
X677324Y-11085412D01*
X677324Y-11085412D02*
X677324Y-10913984D01*
X810658Y-11113984D02*
X791610Y-11104460D01*
X791610Y-11104460D02*
X782086Y-11085412D01*
X782086Y-11085412D02*
X782086Y-10913984D01*
X1039229Y-11113984D02*
X1039229Y-10913984D01*
X1039229Y-10913984D02*
X1105896Y-11056841D01*
X1105896Y-11056841D02*
X1172563Y-10913984D01*
X1172563Y-10913984D02*
X1172563Y-11113984D01*
X1353515Y-11113984D02*
X1353515Y-11009222D01*
X1353515Y-11009222D02*
X1343991Y-10990174D01*
X1343991Y-10990174D02*
X1324944Y-10980650D01*
X1324944Y-10980650D02*
X1286848Y-10980650D01*
X1286848Y-10980650D02*
X1267801Y-10990174D01*
X1353515Y-11104460D02*
X1334467Y-11113984D01*
X1334467Y-11113984D02*
X1286848Y-11113984D01*
X1286848Y-11113984D02*
X1267801Y-11104460D01*
X1267801Y-11104460D02*
X1258277Y-11085412D01*
X1258277Y-11085412D02*
X1258277Y-11066365D01*
X1258277Y-11066365D02*
X1267801Y-11047317D01*
X1267801Y-11047317D02*
X1286848Y-11037793D01*
X1286848Y-11037793D02*
X1334467Y-11037793D01*
X1334467Y-11037793D02*
X1353515Y-11028270D01*
X1448753Y-10980650D02*
X1448753Y-11180650D01*
X1448753Y-10990174D02*
X1467801Y-10980650D01*
X1467801Y-10980650D02*
X1505896Y-10980650D01*
X1505896Y-10980650D02*
X1524943Y-10990174D01*
X1524943Y-10990174D02*
X1534467Y-10999698D01*
X1534467Y-10999698D02*
X1543991Y-11018746D01*
X1543991Y-11018746D02*
X1543991Y-11075889D01*
X1543991Y-11075889D02*
X1534467Y-11094936D01*
X1534467Y-11094936D02*
X1524943Y-11104460D01*
X1524943Y-11104460D02*
X1505896Y-11113984D01*
X1505896Y-11113984D02*
X1467801Y-11113984D01*
X1467801Y-11113984D02*
X1448753Y-11104460D01*
X1629705Y-11094936D02*
X1639229Y-11104460D01*
X1639229Y-11104460D02*
X1629705Y-11113984D01*
X1629705Y-11113984D02*
X1620182Y-11104460D01*
X1620182Y-11104460D02*
X1629705Y-11094936D01*
X1629705Y-11094936D02*
X1629705Y-11113984D01*
X1629705Y-10990174D02*
X1639229Y-10999698D01*
X1639229Y-10999698D02*
X1629705Y-11009222D01*
X1629705Y-11009222D02*
X1620182Y-10999698D01*
X1620182Y-10999698D02*
X1629705Y-10990174D01*
X1629705Y-10990174D02*
X1629705Y-11009222D01*
D12*
X-32500Y-11427500D02*
X-2500Y-11457500D01*
X-2500Y-11427500D02*
X-32500Y-11457500D01*
D11*
X296372Y-11333984D02*
X315420Y-11333984D01*
X315420Y-11333984D02*
X334467Y-11343508D01*
X334467Y-11343508D02*
X343991Y-11353031D01*
X343991Y-11353031D02*
X353515Y-11372079D01*
X353515Y-11372079D02*
X363039Y-11410174D01*
X363039Y-11410174D02*
X363039Y-11457793D01*
X363039Y-11457793D02*
X353515Y-11495888D01*
X353515Y-11495888D02*
X343991Y-11514936D01*
X343991Y-11514936D02*
X334467Y-11524460D01*
X334467Y-11524460D02*
X315420Y-11533984D01*
X315420Y-11533984D02*
X296372Y-11533984D01*
X296372Y-11533984D02*
X277324Y-11524460D01*
X277324Y-11524460D02*
X267801Y-11514936D01*
X267801Y-11514936D02*
X258277Y-11495888D01*
X258277Y-11495888D02*
X248753Y-11457793D01*
X248753Y-11457793D02*
X248753Y-11410174D01*
X248753Y-11410174D02*
X258277Y-11372079D01*
X258277Y-11372079D02*
X267801Y-11353031D01*
X267801Y-11353031D02*
X277324Y-11343508D01*
X277324Y-11343508D02*
X296372Y-11333984D01*
X448753Y-11514936D02*
X458277Y-11524460D01*
X458277Y-11524460D02*
X448753Y-11533984D01*
X448753Y-11533984D02*
X439229Y-11524460D01*
X439229Y-11524460D02*
X448753Y-11514936D01*
X448753Y-11514936D02*
X448753Y-11533984D01*
X524944Y-11333984D02*
X648753Y-11333984D01*
X648753Y-11333984D02*
X582086Y-11410174D01*
X582086Y-11410174D02*
X610658Y-11410174D01*
X610658Y-11410174D02*
X629705Y-11419698D01*
X629705Y-11419698D02*
X639229Y-11429222D01*
X639229Y-11429222D02*
X648753Y-11448269D01*
X648753Y-11448269D02*
X648753Y-11495888D01*
X648753Y-11495888D02*
X639229Y-11514936D01*
X639229Y-11514936D02*
X629705Y-11524460D01*
X629705Y-11524460D02*
X610658Y-11533984D01*
X610658Y-11533984D02*
X553515Y-11533984D01*
X553515Y-11533984D02*
X534467Y-11524460D01*
X534467Y-11524460D02*
X524944Y-11514936D01*
X772562Y-11333984D02*
X791610Y-11333984D01*
X791610Y-11333984D02*
X810658Y-11343508D01*
X810658Y-11343508D02*
X820182Y-11353031D01*
X820182Y-11353031D02*
X829705Y-11372079D01*
X829705Y-11372079D02*
X839229Y-11410174D01*
X839229Y-11410174D02*
X839229Y-11457793D01*
X839229Y-11457793D02*
X829705Y-11495888D01*
X829705Y-11495888D02*
X820182Y-11514936D01*
X820182Y-11514936D02*
X810658Y-11524460D01*
X810658Y-11524460D02*
X791610Y-11533984D01*
X791610Y-11533984D02*
X772562Y-11533984D01*
X772562Y-11533984D02*
X753515Y-11524460D01*
X753515Y-11524460D02*
X743991Y-11514936D01*
X743991Y-11514936D02*
X734467Y-11495888D01*
X734467Y-11495888D02*
X724943Y-11457793D01*
X724943Y-11457793D02*
X724943Y-11410174D01*
X724943Y-11410174D02*
X734467Y-11372079D01*
X734467Y-11372079D02*
X743991Y-11353031D01*
X743991Y-11353031D02*
X753515Y-11343508D01*
X753515Y-11343508D02*
X772562Y-11333984D01*
X963039Y-11333984D02*
X982086Y-11333984D01*
X982086Y-11333984D02*
X1001134Y-11343508D01*
X1001134Y-11343508D02*
X1010658Y-11353031D01*
X1010658Y-11353031D02*
X1020182Y-11372079D01*
X1020182Y-11372079D02*
X1029705Y-11410174D01*
X1029705Y-11410174D02*
X1029705Y-11457793D01*
X1029705Y-11457793D02*
X1020182Y-11495888D01*
X1020182Y-11495888D02*
X1010658Y-11514936D01*
X1010658Y-11514936D02*
X1001134Y-11524460D01*
X1001134Y-11524460D02*
X982086Y-11533984D01*
X982086Y-11533984D02*
X963039Y-11533984D01*
X963039Y-11533984D02*
X943991Y-11524460D01*
X943991Y-11524460D02*
X934467Y-11514936D01*
X934467Y-11514936D02*
X924943Y-11495888D01*
X924943Y-11495888D02*
X915420Y-11457793D01*
X915420Y-11457793D02*
X915420Y-11410174D01*
X915420Y-11410174D02*
X924943Y-11372079D01*
X924943Y-11372079D02*
X934467Y-11353031D01*
X934467Y-11353031D02*
X943991Y-11343508D01*
X943991Y-11343508D02*
X963039Y-11333984D01*
X1115420Y-11533984D02*
X1115420Y-11400650D01*
X1115420Y-11419698D02*
X1124944Y-11410174D01*
X1124944Y-11410174D02*
X1143991Y-11400650D01*
X1143991Y-11400650D02*
X1172563Y-11400650D01*
X1172563Y-11400650D02*
X1191610Y-11410174D01*
X1191610Y-11410174D02*
X1201134Y-11429222D01*
X1201134Y-11429222D02*
X1201134Y-11533984D01*
X1201134Y-11429222D02*
X1210658Y-11410174D01*
X1210658Y-11410174D02*
X1229705Y-11400650D01*
X1229705Y-11400650D02*
X1258277Y-11400650D01*
X1258277Y-11400650D02*
X1277325Y-11410174D01*
X1277325Y-11410174D02*
X1286848Y-11429222D01*
X1286848Y-11429222D02*
X1286848Y-11533984D01*
X1382086Y-11533984D02*
X1382086Y-11400650D01*
X1382086Y-11419698D02*
X1391610Y-11410174D01*
X1391610Y-11410174D02*
X1410658Y-11400650D01*
X1410658Y-11400650D02*
X1439229Y-11400650D01*
X1439229Y-11400650D02*
X1458277Y-11410174D01*
X1458277Y-11410174D02*
X1467801Y-11429222D01*
X1467801Y-11429222D02*
X1467801Y-11533984D01*
X1467801Y-11429222D02*
X1477324Y-11410174D01*
X1477324Y-11410174D02*
X1496372Y-11400650D01*
X1496372Y-11400650D02*
X1524943Y-11400650D01*
X1524943Y-11400650D02*
X1543991Y-11410174D01*
X1543991Y-11410174D02*
X1553515Y-11429222D01*
X1553515Y-11429222D02*
X1553515Y-11533984D01*
X1943991Y-11324460D02*
X1772563Y-11581603D01*
X2201134Y-11333984D02*
X2220182Y-11333984D01*
X2220182Y-11333984D02*
X2239229Y-11343508D01*
X2239229Y-11343508D02*
X2248753Y-11353031D01*
X2248753Y-11353031D02*
X2258277Y-11372079D01*
X2258277Y-11372079D02*
X2267801Y-11410174D01*
X2267801Y-11410174D02*
X2267801Y-11457793D01*
X2267801Y-11457793D02*
X2258277Y-11495888D01*
X2258277Y-11495888D02*
X2248753Y-11514936D01*
X2248753Y-11514936D02*
X2239229Y-11524460D01*
X2239229Y-11524460D02*
X2220182Y-11533984D01*
X2220182Y-11533984D02*
X2201134Y-11533984D01*
X2201134Y-11533984D02*
X2182087Y-11524460D01*
X2182087Y-11524460D02*
X2172563Y-11514936D01*
X2172563Y-11514936D02*
X2163039Y-11495888D01*
X2163039Y-11495888D02*
X2153515Y-11457793D01*
X2153515Y-11457793D02*
X2153515Y-11410174D01*
X2153515Y-11410174D02*
X2163039Y-11372079D01*
X2163039Y-11372079D02*
X2172563Y-11353031D01*
X2172563Y-11353031D02*
X2182087Y-11343508D01*
X2182087Y-11343508D02*
X2201134Y-11333984D01*
X2353515Y-11514936D02*
X2363039Y-11524460D01*
X2363039Y-11524460D02*
X2353515Y-11533984D01*
X2353515Y-11533984D02*
X2343991Y-11524460D01*
X2343991Y-11524460D02*
X2353515Y-11514936D01*
X2353515Y-11514936D02*
X2353515Y-11533984D01*
X2486848Y-11333984D02*
X2505896Y-11333984D01*
X2505896Y-11333984D02*
X2524944Y-11343508D01*
X2524944Y-11343508D02*
X2534468Y-11353031D01*
X2534468Y-11353031D02*
X2543991Y-11372079D01*
X2543991Y-11372079D02*
X2553515Y-11410174D01*
X2553515Y-11410174D02*
X2553515Y-11457793D01*
X2553515Y-11457793D02*
X2543991Y-11495888D01*
X2543991Y-11495888D02*
X2534468Y-11514936D01*
X2534468Y-11514936D02*
X2524944Y-11524460D01*
X2524944Y-11524460D02*
X2505896Y-11533984D01*
X2505896Y-11533984D02*
X2486848Y-11533984D01*
X2486848Y-11533984D02*
X2467801Y-11524460D01*
X2467801Y-11524460D02*
X2458277Y-11514936D01*
X2458277Y-11514936D02*
X2448753Y-11495888D01*
X2448753Y-11495888D02*
X2439229Y-11457793D01*
X2439229Y-11457793D02*
X2439229Y-11410174D01*
X2439229Y-11410174D02*
X2448753Y-11372079D01*
X2448753Y-11372079D02*
X2458277Y-11353031D01*
X2458277Y-11353031D02*
X2467801Y-11343508D01*
X2467801Y-11343508D02*
X2486848Y-11333984D01*
X2743991Y-11533984D02*
X2629706Y-11533984D01*
X2686848Y-11533984D02*
X2686848Y-11333984D01*
X2686848Y-11333984D02*
X2667801Y-11362555D01*
X2667801Y-11362555D02*
X2648753Y-11381603D01*
X2648753Y-11381603D02*
X2629706Y-11391127D01*
X2934467Y-11533984D02*
X2820182Y-11533984D01*
X2877325Y-11533984D02*
X2877325Y-11333984D01*
X2877325Y-11333984D02*
X2858277Y-11362555D01*
X2858277Y-11362555D02*
X2839229Y-11381603D01*
X2839229Y-11381603D02*
X2820182Y-11391127D01*
X3048753Y-11419698D02*
X3029706Y-11410174D01*
X3029706Y-11410174D02*
X3020182Y-11400650D01*
X3020182Y-11400650D02*
X3010658Y-11381603D01*
X3010658Y-11381603D02*
X3010658Y-11372079D01*
X3010658Y-11372079D02*
X3020182Y-11353031D01*
X3020182Y-11353031D02*
X3029706Y-11343508D01*
X3029706Y-11343508D02*
X3048753Y-11333984D01*
X3048753Y-11333984D02*
X3086848Y-11333984D01*
X3086848Y-11333984D02*
X3105896Y-11343508D01*
X3105896Y-11343508D02*
X3115420Y-11353031D01*
X3115420Y-11353031D02*
X3124944Y-11372079D01*
X3124944Y-11372079D02*
X3124944Y-11381603D01*
X3124944Y-11381603D02*
X3115420Y-11400650D01*
X3115420Y-11400650D02*
X3105896Y-11410174D01*
X3105896Y-11410174D02*
X3086848Y-11419698D01*
X3086848Y-11419698D02*
X3048753Y-11419698D01*
X3048753Y-11419698D02*
X3029706Y-11429222D01*
X3029706Y-11429222D02*
X3020182Y-11438746D01*
X3020182Y-11438746D02*
X3010658Y-11457793D01*
X3010658Y-11457793D02*
X3010658Y-11495888D01*
X3010658Y-11495888D02*
X3020182Y-11514936D01*
X3020182Y-11514936D02*
X3029706Y-11524460D01*
X3029706Y-11524460D02*
X3048753Y-11533984D01*
X3048753Y-11533984D02*
X3086848Y-11533984D01*
X3086848Y-11533984D02*
X3105896Y-11524460D01*
X3105896Y-11524460D02*
X3115420Y-11514936D01*
X3115420Y-11514936D02*
X3124944Y-11495888D01*
X3124944Y-11495888D02*
X3124944Y-11457793D01*
X3124944Y-11457793D02*
X3115420Y-11438746D01*
X3115420Y-11438746D02*
X3105896Y-11429222D01*
X3105896Y-11429222D02*
X3086848Y-11419698D01*
X3201134Y-11333984D02*
X3201134Y-11372079D01*
X3277325Y-11333984D02*
X3277325Y-11372079D01*
X3572563Y-11610174D02*
X3563039Y-11600650D01*
X3563039Y-11600650D02*
X3543991Y-11572079D01*
X3543991Y-11572079D02*
X3534468Y-11553031D01*
X3534468Y-11553031D02*
X3524944Y-11524460D01*
X3524944Y-11524460D02*
X3515420Y-11476841D01*
X3515420Y-11476841D02*
X3515420Y-11438746D01*
X3515420Y-11438746D02*
X3524944Y-11391127D01*
X3524944Y-11391127D02*
X3534468Y-11362555D01*
X3534468Y-11362555D02*
X3543991Y-11343508D01*
X3543991Y-11343508D02*
X3563039Y-11314936D01*
X3563039Y-11314936D02*
X3572563Y-11305412D01*
X3753515Y-11533984D02*
X3639229Y-11533984D01*
X3696372Y-11533984D02*
X3696372Y-11333984D01*
X3696372Y-11333984D02*
X3677325Y-11362555D01*
X3677325Y-11362555D02*
X3658277Y-11381603D01*
X3658277Y-11381603D02*
X3639229Y-11391127D01*
X3943991Y-11533984D02*
X3829706Y-11533984D01*
X3886848Y-11533984D02*
X3886848Y-11333984D01*
X3886848Y-11333984D02*
X3867801Y-11362555D01*
X3867801Y-11362555D02*
X3848753Y-11381603D01*
X3848753Y-11381603D02*
X3829706Y-11391127D01*
X4124944Y-11333984D02*
X4029706Y-11333984D01*
X4029706Y-11333984D02*
X4020182Y-11429222D01*
X4020182Y-11429222D02*
X4029706Y-11419698D01*
X4029706Y-11419698D02*
X4048753Y-11410174D01*
X4048753Y-11410174D02*
X4096372Y-11410174D01*
X4096372Y-11410174D02*
X4115420Y-11419698D01*
X4115420Y-11419698D02*
X4124944Y-11429222D01*
X4124944Y-11429222D02*
X4134468Y-11448269D01*
X4134468Y-11448269D02*
X4134468Y-11495888D01*
X4134468Y-11495888D02*
X4124944Y-11514936D01*
X4124944Y-11514936D02*
X4115420Y-11524460D01*
X4115420Y-11524460D02*
X4096372Y-11533984D01*
X4096372Y-11533984D02*
X4048753Y-11533984D01*
X4048753Y-11533984D02*
X4029706Y-11524460D01*
X4029706Y-11524460D02*
X4020182Y-11514936D01*
X4372563Y-11533984D02*
X4372563Y-11333984D01*
X4458277Y-11533984D02*
X4458277Y-11429222D01*
X4458277Y-11429222D02*
X4448753Y-11410174D01*
X4448753Y-11410174D02*
X4429706Y-11400650D01*
X4429706Y-11400650D02*
X4401134Y-11400650D01*
X4401134Y-11400650D02*
X4382087Y-11410174D01*
X4382087Y-11410174D02*
X4372563Y-11419698D01*
X4582087Y-11533984D02*
X4563039Y-11524460D01*
X4563039Y-11524460D02*
X4553515Y-11514936D01*
X4553515Y-11514936D02*
X4543992Y-11495888D01*
X4543992Y-11495888D02*
X4543992Y-11438746D01*
X4543992Y-11438746D02*
X4553515Y-11419698D01*
X4553515Y-11419698D02*
X4563039Y-11410174D01*
X4563039Y-11410174D02*
X4582087Y-11400650D01*
X4582087Y-11400650D02*
X4610658Y-11400650D01*
X4610658Y-11400650D02*
X4629706Y-11410174D01*
X4629706Y-11410174D02*
X4639230Y-11419698D01*
X4639230Y-11419698D02*
X4648753Y-11438746D01*
X4648753Y-11438746D02*
X4648753Y-11495888D01*
X4648753Y-11495888D02*
X4639230Y-11514936D01*
X4639230Y-11514936D02*
X4629706Y-11524460D01*
X4629706Y-11524460D02*
X4610658Y-11533984D01*
X4610658Y-11533984D02*
X4582087Y-11533984D01*
X4763039Y-11533984D02*
X4743992Y-11524460D01*
X4743992Y-11524460D02*
X4734468Y-11505412D01*
X4734468Y-11505412D02*
X4734468Y-11333984D01*
X4915420Y-11524460D02*
X4896373Y-11533984D01*
X4896373Y-11533984D02*
X4858277Y-11533984D01*
X4858277Y-11533984D02*
X4839230Y-11524460D01*
X4839230Y-11524460D02*
X4829706Y-11505412D01*
X4829706Y-11505412D02*
X4829706Y-11429222D01*
X4829706Y-11429222D02*
X4839230Y-11410174D01*
X4839230Y-11410174D02*
X4858277Y-11400650D01*
X4858277Y-11400650D02*
X4896373Y-11400650D01*
X4896373Y-11400650D02*
X4915420Y-11410174D01*
X4915420Y-11410174D02*
X4924944Y-11429222D01*
X4924944Y-11429222D02*
X4924944Y-11448269D01*
X4924944Y-11448269D02*
X4829706Y-11467317D01*
X5001134Y-11524460D02*
X5020182Y-11533984D01*
X5020182Y-11533984D02*
X5058277Y-11533984D01*
X5058277Y-11533984D02*
X5077325Y-11524460D01*
X5077325Y-11524460D02*
X5086849Y-11505412D01*
X5086849Y-11505412D02*
X5086849Y-11495888D01*
X5086849Y-11495888D02*
X5077325Y-11476841D01*
X5077325Y-11476841D02*
X5058277Y-11467317D01*
X5058277Y-11467317D02*
X5029706Y-11467317D01*
X5029706Y-11467317D02*
X5010658Y-11457793D01*
X5010658Y-11457793D02*
X5001134Y-11438746D01*
X5001134Y-11438746D02*
X5001134Y-11429222D01*
X5001134Y-11429222D02*
X5010658Y-11410174D01*
X5010658Y-11410174D02*
X5029706Y-11400650D01*
X5029706Y-11400650D02*
X5058277Y-11400650D01*
X5058277Y-11400650D02*
X5077325Y-11410174D01*
X5153515Y-11610174D02*
X5163039Y-11600650D01*
X5163039Y-11600650D02*
X5182087Y-11572079D01*
X5182087Y-11572079D02*
X5191611Y-11553031D01*
X5191611Y-11553031D02*
X5201134Y-11524460D01*
X5201134Y-11524460D02*
X5210658Y-11476841D01*
X5210658Y-11476841D02*
X5210658Y-11438746D01*
X5210658Y-11438746D02*
X5201134Y-11391127D01*
X5201134Y-11391127D02*
X5191611Y-11362555D01*
X5191611Y-11362555D02*
X5182087Y-11343508D01*
X5182087Y-11343508D02*
X5163039Y-11314936D01*
X5163039Y-11314936D02*
X5153515Y-11305412D01*
D12*
X-2500Y-11706500D02*
G75*
G03*
X-62500Y-11706500I-30000J0D01*
G01*
X-62500Y-11706500D02*
G75*
G03*
X-2500Y-11706500I30000J0D01*
G01*
D11*
X296372Y-11597984D02*
X315420Y-11597984D01*
X315420Y-11597984D02*
X334467Y-11607508D01*
X334467Y-11607508D02*
X343991Y-11617031D01*
X343991Y-11617031D02*
X353515Y-11636079D01*
X353515Y-11636079D02*
X363039Y-11674174D01*
X363039Y-11674174D02*
X363039Y-11721793D01*
X363039Y-11721793D02*
X353515Y-11759888D01*
X353515Y-11759888D02*
X343991Y-11778936D01*
X343991Y-11778936D02*
X334467Y-11788460D01*
X334467Y-11788460D02*
X315420Y-11797984D01*
X315420Y-11797984D02*
X296372Y-11797984D01*
X296372Y-11797984D02*
X277324Y-11788460D01*
X277324Y-11788460D02*
X267801Y-11778936D01*
X267801Y-11778936D02*
X258277Y-11759888D01*
X258277Y-11759888D02*
X248753Y-11721793D01*
X248753Y-11721793D02*
X248753Y-11674174D01*
X248753Y-11674174D02*
X258277Y-11636079D01*
X258277Y-11636079D02*
X267801Y-11617031D01*
X267801Y-11617031D02*
X277324Y-11607508D01*
X277324Y-11607508D02*
X296372Y-11597984D01*
X448753Y-11778936D02*
X458277Y-11788460D01*
X458277Y-11788460D02*
X448753Y-11797984D01*
X448753Y-11797984D02*
X439229Y-11788460D01*
X439229Y-11788460D02*
X448753Y-11778936D01*
X448753Y-11778936D02*
X448753Y-11797984D01*
X629705Y-11597984D02*
X591610Y-11597984D01*
X591610Y-11597984D02*
X572563Y-11607508D01*
X572563Y-11607508D02*
X563039Y-11617031D01*
X563039Y-11617031D02*
X543991Y-11645603D01*
X543991Y-11645603D02*
X534467Y-11683698D01*
X534467Y-11683698D02*
X534467Y-11759888D01*
X534467Y-11759888D02*
X543991Y-11778936D01*
X543991Y-11778936D02*
X553515Y-11788460D01*
X553515Y-11788460D02*
X572563Y-11797984D01*
X572563Y-11797984D02*
X610658Y-11797984D01*
X610658Y-11797984D02*
X629705Y-11788460D01*
X629705Y-11788460D02*
X639229Y-11778936D01*
X639229Y-11778936D02*
X648753Y-11759888D01*
X648753Y-11759888D02*
X648753Y-11712269D01*
X648753Y-11712269D02*
X639229Y-11693222D01*
X639229Y-11693222D02*
X629705Y-11683698D01*
X629705Y-11683698D02*
X610658Y-11674174D01*
X610658Y-11674174D02*
X572563Y-11674174D01*
X572563Y-11674174D02*
X553515Y-11683698D01*
X553515Y-11683698D02*
X543991Y-11693222D01*
X543991Y-11693222D02*
X534467Y-11712269D01*
X772562Y-11597984D02*
X791610Y-11597984D01*
X791610Y-11597984D02*
X810658Y-11607508D01*
X810658Y-11607508D02*
X820182Y-11617031D01*
X820182Y-11617031D02*
X829705Y-11636079D01*
X829705Y-11636079D02*
X839229Y-11674174D01*
X839229Y-11674174D02*
X839229Y-11721793D01*
X839229Y-11721793D02*
X829705Y-11759888D01*
X829705Y-11759888D02*
X820182Y-11778936D01*
X820182Y-11778936D02*
X810658Y-11788460D01*
X810658Y-11788460D02*
X791610Y-11797984D01*
X791610Y-11797984D02*
X772562Y-11797984D01*
X772562Y-11797984D02*
X753515Y-11788460D01*
X753515Y-11788460D02*
X743991Y-11778936D01*
X743991Y-11778936D02*
X734467Y-11759888D01*
X734467Y-11759888D02*
X724943Y-11721793D01*
X724943Y-11721793D02*
X724943Y-11674174D01*
X724943Y-11674174D02*
X734467Y-11636079D01*
X734467Y-11636079D02*
X743991Y-11617031D01*
X743991Y-11617031D02*
X753515Y-11607508D01*
X753515Y-11607508D02*
X772562Y-11597984D01*
X963039Y-11597984D02*
X982086Y-11597984D01*
X982086Y-11597984D02*
X1001134Y-11607508D01*
X1001134Y-11607508D02*
X1010658Y-11617031D01*
X1010658Y-11617031D02*
X1020182Y-11636079D01*
X1020182Y-11636079D02*
X1029705Y-11674174D01*
X1029705Y-11674174D02*
X1029705Y-11721793D01*
X1029705Y-11721793D02*
X1020182Y-11759888D01*
X1020182Y-11759888D02*
X1010658Y-11778936D01*
X1010658Y-11778936D02*
X1001134Y-11788460D01*
X1001134Y-11788460D02*
X982086Y-11797984D01*
X982086Y-11797984D02*
X963039Y-11797984D01*
X963039Y-11797984D02*
X943991Y-11788460D01*
X943991Y-11788460D02*
X934467Y-11778936D01*
X934467Y-11778936D02*
X924943Y-11759888D01*
X924943Y-11759888D02*
X915420Y-11721793D01*
X915420Y-11721793D02*
X915420Y-11674174D01*
X915420Y-11674174D02*
X924943Y-11636079D01*
X924943Y-11636079D02*
X934467Y-11617031D01*
X934467Y-11617031D02*
X943991Y-11607508D01*
X943991Y-11607508D02*
X963039Y-11597984D01*
X1115420Y-11797984D02*
X1115420Y-11664650D01*
X1115420Y-11683698D02*
X1124944Y-11674174D01*
X1124944Y-11674174D02*
X1143991Y-11664650D01*
X1143991Y-11664650D02*
X1172563Y-11664650D01*
X1172563Y-11664650D02*
X1191610Y-11674174D01*
X1191610Y-11674174D02*
X1201134Y-11693222D01*
X1201134Y-11693222D02*
X1201134Y-11797984D01*
X1201134Y-11693222D02*
X1210658Y-11674174D01*
X1210658Y-11674174D02*
X1229705Y-11664650D01*
X1229705Y-11664650D02*
X1258277Y-11664650D01*
X1258277Y-11664650D02*
X1277325Y-11674174D01*
X1277325Y-11674174D02*
X1286848Y-11693222D01*
X1286848Y-11693222D02*
X1286848Y-11797984D01*
X1382086Y-11797984D02*
X1382086Y-11664650D01*
X1382086Y-11683698D02*
X1391610Y-11674174D01*
X1391610Y-11674174D02*
X1410658Y-11664650D01*
X1410658Y-11664650D02*
X1439229Y-11664650D01*
X1439229Y-11664650D02*
X1458277Y-11674174D01*
X1458277Y-11674174D02*
X1467801Y-11693222D01*
X1467801Y-11693222D02*
X1467801Y-11797984D01*
X1467801Y-11693222D02*
X1477324Y-11674174D01*
X1477324Y-11674174D02*
X1496372Y-11664650D01*
X1496372Y-11664650D02*
X1524943Y-11664650D01*
X1524943Y-11664650D02*
X1543991Y-11674174D01*
X1543991Y-11674174D02*
X1553515Y-11693222D01*
X1553515Y-11693222D02*
X1553515Y-11797984D01*
X1943991Y-11588460D02*
X1772563Y-11845603D01*
X2201134Y-11597984D02*
X2220182Y-11597984D01*
X2220182Y-11597984D02*
X2239229Y-11607508D01*
X2239229Y-11607508D02*
X2248753Y-11617031D01*
X2248753Y-11617031D02*
X2258277Y-11636079D01*
X2258277Y-11636079D02*
X2267801Y-11674174D01*
X2267801Y-11674174D02*
X2267801Y-11721793D01*
X2267801Y-11721793D02*
X2258277Y-11759888D01*
X2258277Y-11759888D02*
X2248753Y-11778936D01*
X2248753Y-11778936D02*
X2239229Y-11788460D01*
X2239229Y-11788460D02*
X2220182Y-11797984D01*
X2220182Y-11797984D02*
X2201134Y-11797984D01*
X2201134Y-11797984D02*
X2182087Y-11788460D01*
X2182087Y-11788460D02*
X2172563Y-11778936D01*
X2172563Y-11778936D02*
X2163039Y-11759888D01*
X2163039Y-11759888D02*
X2153515Y-11721793D01*
X2153515Y-11721793D02*
X2153515Y-11674174D01*
X2153515Y-11674174D02*
X2163039Y-11636079D01*
X2163039Y-11636079D02*
X2172563Y-11617031D01*
X2172563Y-11617031D02*
X2182087Y-11607508D01*
X2182087Y-11607508D02*
X2201134Y-11597984D01*
X2353515Y-11778936D02*
X2363039Y-11788460D01*
X2363039Y-11788460D02*
X2353515Y-11797984D01*
X2353515Y-11797984D02*
X2343991Y-11788460D01*
X2343991Y-11788460D02*
X2353515Y-11778936D01*
X2353515Y-11778936D02*
X2353515Y-11797984D01*
X2486848Y-11597984D02*
X2505896Y-11597984D01*
X2505896Y-11597984D02*
X2524944Y-11607508D01*
X2524944Y-11607508D02*
X2534468Y-11617031D01*
X2534468Y-11617031D02*
X2543991Y-11636079D01*
X2543991Y-11636079D02*
X2553515Y-11674174D01*
X2553515Y-11674174D02*
X2553515Y-11721793D01*
X2553515Y-11721793D02*
X2543991Y-11759888D01*
X2543991Y-11759888D02*
X2534468Y-11778936D01*
X2534468Y-11778936D02*
X2524944Y-11788460D01*
X2524944Y-11788460D02*
X2505896Y-11797984D01*
X2505896Y-11797984D02*
X2486848Y-11797984D01*
X2486848Y-11797984D02*
X2467801Y-11788460D01*
X2467801Y-11788460D02*
X2458277Y-11778936D01*
X2458277Y-11778936D02*
X2448753Y-11759888D01*
X2448753Y-11759888D02*
X2439229Y-11721793D01*
X2439229Y-11721793D02*
X2439229Y-11674174D01*
X2439229Y-11674174D02*
X2448753Y-11636079D01*
X2448753Y-11636079D02*
X2458277Y-11617031D01*
X2458277Y-11617031D02*
X2467801Y-11607508D01*
X2467801Y-11607508D02*
X2486848Y-11597984D01*
X2629706Y-11617031D02*
X2639229Y-11607508D01*
X2639229Y-11607508D02*
X2658277Y-11597984D01*
X2658277Y-11597984D02*
X2705896Y-11597984D01*
X2705896Y-11597984D02*
X2724944Y-11607508D01*
X2724944Y-11607508D02*
X2734468Y-11617031D01*
X2734468Y-11617031D02*
X2743991Y-11636079D01*
X2743991Y-11636079D02*
X2743991Y-11655127D01*
X2743991Y-11655127D02*
X2734468Y-11683698D01*
X2734468Y-11683698D02*
X2620182Y-11797984D01*
X2620182Y-11797984D02*
X2743991Y-11797984D01*
X2810658Y-11597984D02*
X2934467Y-11597984D01*
X2934467Y-11597984D02*
X2867801Y-11674174D01*
X2867801Y-11674174D02*
X2896372Y-11674174D01*
X2896372Y-11674174D02*
X2915420Y-11683698D01*
X2915420Y-11683698D02*
X2924944Y-11693222D01*
X2924944Y-11693222D02*
X2934467Y-11712269D01*
X2934467Y-11712269D02*
X2934467Y-11759888D01*
X2934467Y-11759888D02*
X2924944Y-11778936D01*
X2924944Y-11778936D02*
X2915420Y-11788460D01*
X2915420Y-11788460D02*
X2896372Y-11797984D01*
X2896372Y-11797984D02*
X2839229Y-11797984D01*
X2839229Y-11797984D02*
X2820182Y-11788460D01*
X2820182Y-11788460D02*
X2810658Y-11778936D01*
X3105896Y-11597984D02*
X3067801Y-11597984D01*
X3067801Y-11597984D02*
X3048753Y-11607508D01*
X3048753Y-11607508D02*
X3039229Y-11617031D01*
X3039229Y-11617031D02*
X3020182Y-11645603D01*
X3020182Y-11645603D02*
X3010658Y-11683698D01*
X3010658Y-11683698D02*
X3010658Y-11759888D01*
X3010658Y-11759888D02*
X3020182Y-11778936D01*
X3020182Y-11778936D02*
X3029706Y-11788460D01*
X3029706Y-11788460D02*
X3048753Y-11797984D01*
X3048753Y-11797984D02*
X3086848Y-11797984D01*
X3086848Y-11797984D02*
X3105896Y-11788460D01*
X3105896Y-11788460D02*
X3115420Y-11778936D01*
X3115420Y-11778936D02*
X3124944Y-11759888D01*
X3124944Y-11759888D02*
X3124944Y-11712269D01*
X3124944Y-11712269D02*
X3115420Y-11693222D01*
X3115420Y-11693222D02*
X3105896Y-11683698D01*
X3105896Y-11683698D02*
X3086848Y-11674174D01*
X3086848Y-11674174D02*
X3048753Y-11674174D01*
X3048753Y-11674174D02*
X3029706Y-11683698D01*
X3029706Y-11683698D02*
X3020182Y-11693222D01*
X3020182Y-11693222D02*
X3010658Y-11712269D01*
X3201134Y-11597984D02*
X3201134Y-11636079D01*
X3277325Y-11597984D02*
X3277325Y-11636079D01*
X3572563Y-11874174D02*
X3563039Y-11864650D01*
X3563039Y-11864650D02*
X3543991Y-11836079D01*
X3543991Y-11836079D02*
X3534468Y-11817031D01*
X3534468Y-11817031D02*
X3524944Y-11788460D01*
X3524944Y-11788460D02*
X3515420Y-11740841D01*
X3515420Y-11740841D02*
X3515420Y-11702746D01*
X3515420Y-11702746D02*
X3524944Y-11655127D01*
X3524944Y-11655127D02*
X3534468Y-11626555D01*
X3534468Y-11626555D02*
X3543991Y-11607508D01*
X3543991Y-11607508D02*
X3563039Y-11578936D01*
X3563039Y-11578936D02*
X3572563Y-11569412D01*
X3686848Y-11597984D02*
X3705896Y-11597984D01*
X3705896Y-11597984D02*
X3724944Y-11607508D01*
X3724944Y-11607508D02*
X3734468Y-11617031D01*
X3734468Y-11617031D02*
X3743991Y-11636079D01*
X3743991Y-11636079D02*
X3753515Y-11674174D01*
X3753515Y-11674174D02*
X3753515Y-11721793D01*
X3753515Y-11721793D02*
X3743991Y-11759888D01*
X3743991Y-11759888D02*
X3734468Y-11778936D01*
X3734468Y-11778936D02*
X3724944Y-11788460D01*
X3724944Y-11788460D02*
X3705896Y-11797984D01*
X3705896Y-11797984D02*
X3686848Y-11797984D01*
X3686848Y-11797984D02*
X3667801Y-11788460D01*
X3667801Y-11788460D02*
X3658277Y-11778936D01*
X3658277Y-11778936D02*
X3648753Y-11759888D01*
X3648753Y-11759888D02*
X3639229Y-11721793D01*
X3639229Y-11721793D02*
X3639229Y-11674174D01*
X3639229Y-11674174D02*
X3648753Y-11636079D01*
X3648753Y-11636079D02*
X3658277Y-11617031D01*
X3658277Y-11617031D02*
X3667801Y-11607508D01*
X3667801Y-11607508D02*
X3686848Y-11597984D01*
X3991610Y-11797984D02*
X3991610Y-11597984D01*
X4077325Y-11797984D02*
X4077325Y-11693222D01*
X4077325Y-11693222D02*
X4067801Y-11674174D01*
X4067801Y-11674174D02*
X4048753Y-11664650D01*
X4048753Y-11664650D02*
X4020182Y-11664650D01*
X4020182Y-11664650D02*
X4001134Y-11674174D01*
X4001134Y-11674174D02*
X3991610Y-11683698D01*
X4201134Y-11797984D02*
X4182087Y-11788460D01*
X4182087Y-11788460D02*
X4172563Y-11778936D01*
X4172563Y-11778936D02*
X4163039Y-11759888D01*
X4163039Y-11759888D02*
X4163039Y-11702746D01*
X4163039Y-11702746D02*
X4172563Y-11683698D01*
X4172563Y-11683698D02*
X4182087Y-11674174D01*
X4182087Y-11674174D02*
X4201134Y-11664650D01*
X4201134Y-11664650D02*
X4229706Y-11664650D01*
X4229706Y-11664650D02*
X4248753Y-11674174D01*
X4248753Y-11674174D02*
X4258277Y-11683698D01*
X4258277Y-11683698D02*
X4267801Y-11702746D01*
X4267801Y-11702746D02*
X4267801Y-11759888D01*
X4267801Y-11759888D02*
X4258277Y-11778936D01*
X4258277Y-11778936D02*
X4248753Y-11788460D01*
X4248753Y-11788460D02*
X4229706Y-11797984D01*
X4229706Y-11797984D02*
X4201134Y-11797984D01*
X4382087Y-11797984D02*
X4363039Y-11788460D01*
X4363039Y-11788460D02*
X4353515Y-11769412D01*
X4353515Y-11769412D02*
X4353515Y-11597984D01*
X4534468Y-11788460D02*
X4515420Y-11797984D01*
X4515420Y-11797984D02*
X4477325Y-11797984D01*
X4477325Y-11797984D02*
X4458277Y-11788460D01*
X4458277Y-11788460D02*
X4448753Y-11769412D01*
X4448753Y-11769412D02*
X4448753Y-11693222D01*
X4448753Y-11693222D02*
X4458277Y-11674174D01*
X4458277Y-11674174D02*
X4477325Y-11664650D01*
X4477325Y-11664650D02*
X4515420Y-11664650D01*
X4515420Y-11664650D02*
X4534468Y-11674174D01*
X4534468Y-11674174D02*
X4543992Y-11693222D01*
X4543992Y-11693222D02*
X4543992Y-11712269D01*
X4543992Y-11712269D02*
X4448753Y-11731317D01*
X4620182Y-11788460D02*
X4639230Y-11797984D01*
X4639230Y-11797984D02*
X4677325Y-11797984D01*
X4677325Y-11797984D02*
X4696373Y-11788460D01*
X4696373Y-11788460D02*
X4705896Y-11769412D01*
X4705896Y-11769412D02*
X4705896Y-11759888D01*
X4705896Y-11759888D02*
X4696373Y-11740841D01*
X4696373Y-11740841D02*
X4677325Y-11731317D01*
X4677325Y-11731317D02*
X4648753Y-11731317D01*
X4648753Y-11731317D02*
X4629706Y-11721793D01*
X4629706Y-11721793D02*
X4620182Y-11702746D01*
X4620182Y-11702746D02*
X4620182Y-11693222D01*
X4620182Y-11693222D02*
X4629706Y-11674174D01*
X4629706Y-11674174D02*
X4648753Y-11664650D01*
X4648753Y-11664650D02*
X4677325Y-11664650D01*
X4677325Y-11664650D02*
X4696373Y-11674174D01*
X4943992Y-11721793D02*
X5096373Y-11721793D01*
X5020182Y-11797984D02*
X5020182Y-11645603D01*
X5429706Y-11664650D02*
X5429706Y-11797984D01*
X5382087Y-11588460D02*
X5334468Y-11731317D01*
X5334468Y-11731317D02*
X5458277Y-11731317D01*
X5677325Y-11788460D02*
X5696373Y-11797984D01*
X5696373Y-11797984D02*
X5734468Y-11797984D01*
X5734468Y-11797984D02*
X5753515Y-11788460D01*
X5753515Y-11788460D02*
X5763039Y-11769412D01*
X5763039Y-11769412D02*
X5763039Y-11759888D01*
X5763039Y-11759888D02*
X5753515Y-11740841D01*
X5753515Y-11740841D02*
X5734468Y-11731317D01*
X5734468Y-11731317D02*
X5705896Y-11731317D01*
X5705896Y-11731317D02*
X5686849Y-11721793D01*
X5686849Y-11721793D02*
X5677325Y-11702746D01*
X5677325Y-11702746D02*
X5677325Y-11693222D01*
X5677325Y-11693222D02*
X5686849Y-11674174D01*
X5686849Y-11674174D02*
X5705896Y-11664650D01*
X5705896Y-11664650D02*
X5734468Y-11664650D01*
X5734468Y-11664650D02*
X5753515Y-11674174D01*
X5877325Y-11797984D02*
X5858277Y-11788460D01*
X5858277Y-11788460D02*
X5848754Y-11769412D01*
X5848754Y-11769412D02*
X5848754Y-11597984D01*
X5982087Y-11797984D02*
X5963039Y-11788460D01*
X5963039Y-11788460D02*
X5953515Y-11778936D01*
X5953515Y-11778936D02*
X5943992Y-11759888D01*
X5943992Y-11759888D02*
X5943992Y-11702746D01*
X5943992Y-11702746D02*
X5953515Y-11683698D01*
X5953515Y-11683698D02*
X5963039Y-11674174D01*
X5963039Y-11674174D02*
X5982087Y-11664650D01*
X5982087Y-11664650D02*
X6010658Y-11664650D01*
X6010658Y-11664650D02*
X6029706Y-11674174D01*
X6029706Y-11674174D02*
X6039230Y-11683698D01*
X6039230Y-11683698D02*
X6048754Y-11702746D01*
X6048754Y-11702746D02*
X6048754Y-11759888D01*
X6048754Y-11759888D02*
X6039230Y-11778936D01*
X6039230Y-11778936D02*
X6029706Y-11788460D01*
X6029706Y-11788460D02*
X6010658Y-11797984D01*
X6010658Y-11797984D02*
X5982087Y-11797984D01*
X6105896Y-11664650D02*
X6182087Y-11664650D01*
X6134468Y-11597984D02*
X6134468Y-11769412D01*
X6134468Y-11769412D02*
X6143992Y-11788460D01*
X6143992Y-11788460D02*
X6163039Y-11797984D01*
X6163039Y-11797984D02*
X6182087Y-11797984D01*
X6239230Y-11788460D02*
X6258277Y-11797984D01*
X6258277Y-11797984D02*
X6296373Y-11797984D01*
X6296373Y-11797984D02*
X6315420Y-11788460D01*
X6315420Y-11788460D02*
X6324944Y-11769412D01*
X6324944Y-11769412D02*
X6324944Y-11759888D01*
X6324944Y-11759888D02*
X6315420Y-11740841D01*
X6315420Y-11740841D02*
X6296373Y-11731317D01*
X6296373Y-11731317D02*
X6267801Y-11731317D01*
X6267801Y-11731317D02*
X6248754Y-11721793D01*
X6248754Y-11721793D02*
X6239230Y-11702746D01*
X6239230Y-11702746D02*
X6239230Y-11693222D01*
X6239230Y-11693222D02*
X6248754Y-11674174D01*
X6248754Y-11674174D02*
X6267801Y-11664650D01*
X6267801Y-11664650D02*
X6296373Y-11664650D01*
X6296373Y-11664650D02*
X6315420Y-11674174D01*
X6391611Y-11874174D02*
X6401135Y-11864650D01*
X6401135Y-11864650D02*
X6420182Y-11836079D01*
X6420182Y-11836079D02*
X6429706Y-11817031D01*
X6429706Y-11817031D02*
X6439230Y-11788460D01*
X6439230Y-11788460D02*
X6448754Y-11740841D01*
X6448754Y-11740841D02*
X6448754Y-11702746D01*
X6448754Y-11702746D02*
X6439230Y-11655127D01*
X6439230Y-11655127D02*
X6429706Y-11626555D01*
X6429706Y-11626555D02*
X6420182Y-11607508D01*
X6420182Y-11607508D02*
X6401135Y-11578936D01*
X6401135Y-11578936D02*
X6391611Y-11569412D01*
D12*
X-52500Y-11920500D02*
X-52500Y-12020500D01*
X-102500Y-11970500D02*
X-2500Y-11970500D01*
D11*
X363039Y-12061984D02*
X248753Y-12061984D01*
X305896Y-12061984D02*
X305896Y-11861984D01*
X305896Y-11861984D02*
X286848Y-11890555D01*
X286848Y-11890555D02*
X267801Y-11909603D01*
X267801Y-11909603D02*
X248753Y-11919127D01*
X448753Y-12042936D02*
X458277Y-12052460D01*
X458277Y-12052460D02*
X448753Y-12061984D01*
X448753Y-12061984D02*
X439229Y-12052460D01*
X439229Y-12052460D02*
X448753Y-12042936D01*
X448753Y-12042936D02*
X448753Y-12061984D01*
X582086Y-11861984D02*
X601134Y-11861984D01*
X601134Y-11861984D02*
X620182Y-11871508D01*
X620182Y-11871508D02*
X629705Y-11881031D01*
X629705Y-11881031D02*
X639229Y-11900079D01*
X639229Y-11900079D02*
X648753Y-11938174D01*
X648753Y-11938174D02*
X648753Y-11985793D01*
X648753Y-11985793D02*
X639229Y-12023888D01*
X639229Y-12023888D02*
X629705Y-12042936D01*
X629705Y-12042936D02*
X620182Y-12052460D01*
X620182Y-12052460D02*
X601134Y-12061984D01*
X601134Y-12061984D02*
X582086Y-12061984D01*
X582086Y-12061984D02*
X563039Y-12052460D01*
X563039Y-12052460D02*
X553515Y-12042936D01*
X553515Y-12042936D02*
X543991Y-12023888D01*
X543991Y-12023888D02*
X534467Y-11985793D01*
X534467Y-11985793D02*
X534467Y-11938174D01*
X534467Y-11938174D02*
X543991Y-11900079D01*
X543991Y-11900079D02*
X553515Y-11881031D01*
X553515Y-11881031D02*
X563039Y-11871508D01*
X563039Y-11871508D02*
X582086Y-11861984D01*
X772562Y-11861984D02*
X791610Y-11861984D01*
X791610Y-11861984D02*
X810658Y-11871508D01*
X810658Y-11871508D02*
X820182Y-11881031D01*
X820182Y-11881031D02*
X829705Y-11900079D01*
X829705Y-11900079D02*
X839229Y-11938174D01*
X839229Y-11938174D02*
X839229Y-11985793D01*
X839229Y-11985793D02*
X829705Y-12023888D01*
X829705Y-12023888D02*
X820182Y-12042936D01*
X820182Y-12042936D02*
X810658Y-12052460D01*
X810658Y-12052460D02*
X791610Y-12061984D01*
X791610Y-12061984D02*
X772562Y-12061984D01*
X772562Y-12061984D02*
X753515Y-12052460D01*
X753515Y-12052460D02*
X743991Y-12042936D01*
X743991Y-12042936D02*
X734467Y-12023888D01*
X734467Y-12023888D02*
X724943Y-11985793D01*
X724943Y-11985793D02*
X724943Y-11938174D01*
X724943Y-11938174D02*
X734467Y-11900079D01*
X734467Y-11900079D02*
X743991Y-11881031D01*
X743991Y-11881031D02*
X753515Y-11871508D01*
X753515Y-11871508D02*
X772562Y-11861984D01*
X963039Y-11861984D02*
X982086Y-11861984D01*
X982086Y-11861984D02*
X1001134Y-11871508D01*
X1001134Y-11871508D02*
X1010658Y-11881031D01*
X1010658Y-11881031D02*
X1020182Y-11900079D01*
X1020182Y-11900079D02*
X1029705Y-11938174D01*
X1029705Y-11938174D02*
X1029705Y-11985793D01*
X1029705Y-11985793D02*
X1020182Y-12023888D01*
X1020182Y-12023888D02*
X1010658Y-12042936D01*
X1010658Y-12042936D02*
X1001134Y-12052460D01*
X1001134Y-12052460D02*
X982086Y-12061984D01*
X982086Y-12061984D02*
X963039Y-12061984D01*
X963039Y-12061984D02*
X943991Y-12052460D01*
X943991Y-12052460D02*
X934467Y-12042936D01*
X934467Y-12042936D02*
X924943Y-12023888D01*
X924943Y-12023888D02*
X915420Y-11985793D01*
X915420Y-11985793D02*
X915420Y-11938174D01*
X915420Y-11938174D02*
X924943Y-11900079D01*
X924943Y-11900079D02*
X934467Y-11881031D01*
X934467Y-11881031D02*
X943991Y-11871508D01*
X943991Y-11871508D02*
X963039Y-11861984D01*
X1115420Y-12061984D02*
X1115420Y-11928650D01*
X1115420Y-11947698D02*
X1124944Y-11938174D01*
X1124944Y-11938174D02*
X1143991Y-11928650D01*
X1143991Y-11928650D02*
X1172563Y-11928650D01*
X1172563Y-11928650D02*
X1191610Y-11938174D01*
X1191610Y-11938174D02*
X1201134Y-11957222D01*
X1201134Y-11957222D02*
X1201134Y-12061984D01*
X1201134Y-11957222D02*
X1210658Y-11938174D01*
X1210658Y-11938174D02*
X1229705Y-11928650D01*
X1229705Y-11928650D02*
X1258277Y-11928650D01*
X1258277Y-11928650D02*
X1277325Y-11938174D01*
X1277325Y-11938174D02*
X1286848Y-11957222D01*
X1286848Y-11957222D02*
X1286848Y-12061984D01*
X1382086Y-12061984D02*
X1382086Y-11928650D01*
X1382086Y-11947698D02*
X1391610Y-11938174D01*
X1391610Y-11938174D02*
X1410658Y-11928650D01*
X1410658Y-11928650D02*
X1439229Y-11928650D01*
X1439229Y-11928650D02*
X1458277Y-11938174D01*
X1458277Y-11938174D02*
X1467801Y-11957222D01*
X1467801Y-11957222D02*
X1467801Y-12061984D01*
X1467801Y-11957222D02*
X1477324Y-11938174D01*
X1477324Y-11938174D02*
X1496372Y-11928650D01*
X1496372Y-11928650D02*
X1524943Y-11928650D01*
X1524943Y-11928650D02*
X1543991Y-11938174D01*
X1543991Y-11938174D02*
X1553515Y-11957222D01*
X1553515Y-11957222D02*
X1553515Y-12061984D01*
X1943991Y-11852460D02*
X1772563Y-12109603D01*
X2201134Y-11861984D02*
X2220182Y-11861984D01*
X2220182Y-11861984D02*
X2239229Y-11871508D01*
X2239229Y-11871508D02*
X2248753Y-11881031D01*
X2248753Y-11881031D02*
X2258277Y-11900079D01*
X2258277Y-11900079D02*
X2267801Y-11938174D01*
X2267801Y-11938174D02*
X2267801Y-11985793D01*
X2267801Y-11985793D02*
X2258277Y-12023888D01*
X2258277Y-12023888D02*
X2248753Y-12042936D01*
X2248753Y-12042936D02*
X2239229Y-12052460D01*
X2239229Y-12052460D02*
X2220182Y-12061984D01*
X2220182Y-12061984D02*
X2201134Y-12061984D01*
X2201134Y-12061984D02*
X2182087Y-12052460D01*
X2182087Y-12052460D02*
X2172563Y-12042936D01*
X2172563Y-12042936D02*
X2163039Y-12023888D01*
X2163039Y-12023888D02*
X2153515Y-11985793D01*
X2153515Y-11985793D02*
X2153515Y-11938174D01*
X2153515Y-11938174D02*
X2163039Y-11900079D01*
X2163039Y-11900079D02*
X2172563Y-11881031D01*
X2172563Y-11881031D02*
X2182087Y-11871508D01*
X2182087Y-11871508D02*
X2201134Y-11861984D01*
X2353515Y-12042936D02*
X2363039Y-12052460D01*
X2363039Y-12052460D02*
X2353515Y-12061984D01*
X2353515Y-12061984D02*
X2343991Y-12052460D01*
X2343991Y-12052460D02*
X2353515Y-12042936D01*
X2353515Y-12042936D02*
X2353515Y-12061984D01*
X2486848Y-11861984D02*
X2505896Y-11861984D01*
X2505896Y-11861984D02*
X2524944Y-11871508D01*
X2524944Y-11871508D02*
X2534468Y-11881031D01*
X2534468Y-11881031D02*
X2543991Y-11900079D01*
X2543991Y-11900079D02*
X2553515Y-11938174D01*
X2553515Y-11938174D02*
X2553515Y-11985793D01*
X2553515Y-11985793D02*
X2543991Y-12023888D01*
X2543991Y-12023888D02*
X2534468Y-12042936D01*
X2534468Y-12042936D02*
X2524944Y-12052460D01*
X2524944Y-12052460D02*
X2505896Y-12061984D01*
X2505896Y-12061984D02*
X2486848Y-12061984D01*
X2486848Y-12061984D02*
X2467801Y-12052460D01*
X2467801Y-12052460D02*
X2458277Y-12042936D01*
X2458277Y-12042936D02*
X2448753Y-12023888D01*
X2448753Y-12023888D02*
X2439229Y-11985793D01*
X2439229Y-11985793D02*
X2439229Y-11938174D01*
X2439229Y-11938174D02*
X2448753Y-11900079D01*
X2448753Y-11900079D02*
X2458277Y-11881031D01*
X2458277Y-11881031D02*
X2467801Y-11871508D01*
X2467801Y-11871508D02*
X2486848Y-11861984D01*
X2620182Y-11861984D02*
X2743991Y-11861984D01*
X2743991Y-11861984D02*
X2677325Y-11938174D01*
X2677325Y-11938174D02*
X2705896Y-11938174D01*
X2705896Y-11938174D02*
X2724944Y-11947698D01*
X2724944Y-11947698D02*
X2734468Y-11957222D01*
X2734468Y-11957222D02*
X2743991Y-11976269D01*
X2743991Y-11976269D02*
X2743991Y-12023888D01*
X2743991Y-12023888D02*
X2734468Y-12042936D01*
X2734468Y-12042936D02*
X2724944Y-12052460D01*
X2724944Y-12052460D02*
X2705896Y-12061984D01*
X2705896Y-12061984D02*
X2648753Y-12061984D01*
X2648753Y-12061984D02*
X2629706Y-12052460D01*
X2629706Y-12052460D02*
X2620182Y-12042936D01*
X2839229Y-12061984D02*
X2877325Y-12061984D01*
X2877325Y-12061984D02*
X2896372Y-12052460D01*
X2896372Y-12052460D02*
X2905896Y-12042936D01*
X2905896Y-12042936D02*
X2924944Y-12014365D01*
X2924944Y-12014365D02*
X2934467Y-11976269D01*
X2934467Y-11976269D02*
X2934467Y-11900079D01*
X2934467Y-11900079D02*
X2924944Y-11881031D01*
X2924944Y-11881031D02*
X2915420Y-11871508D01*
X2915420Y-11871508D02*
X2896372Y-11861984D01*
X2896372Y-11861984D02*
X2858277Y-11861984D01*
X2858277Y-11861984D02*
X2839229Y-11871508D01*
X2839229Y-11871508D02*
X2829706Y-11881031D01*
X2829706Y-11881031D02*
X2820182Y-11900079D01*
X2820182Y-11900079D02*
X2820182Y-11947698D01*
X2820182Y-11947698D02*
X2829706Y-11966746D01*
X2829706Y-11966746D02*
X2839229Y-11976269D01*
X2839229Y-11976269D02*
X2858277Y-11985793D01*
X2858277Y-11985793D02*
X2896372Y-11985793D01*
X2896372Y-11985793D02*
X2915420Y-11976269D01*
X2915420Y-11976269D02*
X2924944Y-11966746D01*
X2924944Y-11966746D02*
X2934467Y-11947698D01*
X3105896Y-11928650D02*
X3105896Y-12061984D01*
X3058277Y-11852460D02*
X3010658Y-11995317D01*
X3010658Y-11995317D02*
X3134467Y-11995317D01*
X3201134Y-11861984D02*
X3201134Y-11900079D01*
X3277325Y-11861984D02*
X3277325Y-11900079D01*
X3572563Y-12138174D02*
X3563039Y-12128650D01*
X3563039Y-12128650D02*
X3543991Y-12100079D01*
X3543991Y-12100079D02*
X3534468Y-12081031D01*
X3534468Y-12081031D02*
X3524944Y-12052460D01*
X3524944Y-12052460D02*
X3515420Y-12004841D01*
X3515420Y-12004841D02*
X3515420Y-11966746D01*
X3515420Y-11966746D02*
X3524944Y-11919127D01*
X3524944Y-11919127D02*
X3534468Y-11890555D01*
X3534468Y-11890555D02*
X3543991Y-11871508D01*
X3543991Y-11871508D02*
X3563039Y-11842936D01*
X3563039Y-11842936D02*
X3572563Y-11833412D01*
X3629706Y-11861984D02*
X3753515Y-11861984D01*
X3753515Y-11861984D02*
X3686848Y-11938174D01*
X3686848Y-11938174D02*
X3715420Y-11938174D01*
X3715420Y-11938174D02*
X3734468Y-11947698D01*
X3734468Y-11947698D02*
X3743991Y-11957222D01*
X3743991Y-11957222D02*
X3753515Y-11976269D01*
X3753515Y-11976269D02*
X3753515Y-12023888D01*
X3753515Y-12023888D02*
X3743991Y-12042936D01*
X3743991Y-12042936D02*
X3734468Y-12052460D01*
X3734468Y-12052460D02*
X3715420Y-12061984D01*
X3715420Y-12061984D02*
X3658277Y-12061984D01*
X3658277Y-12061984D02*
X3639229Y-12052460D01*
X3639229Y-12052460D02*
X3629706Y-12042936D01*
X3991610Y-12061984D02*
X3991610Y-11861984D01*
X4077325Y-12061984D02*
X4077325Y-11957222D01*
X4077325Y-11957222D02*
X4067801Y-11938174D01*
X4067801Y-11938174D02*
X4048753Y-11928650D01*
X4048753Y-11928650D02*
X4020182Y-11928650D01*
X4020182Y-11928650D02*
X4001134Y-11938174D01*
X4001134Y-11938174D02*
X3991610Y-11947698D01*
X4201134Y-12061984D02*
X4182087Y-12052460D01*
X4182087Y-12052460D02*
X4172563Y-12042936D01*
X4172563Y-12042936D02*
X4163039Y-12023888D01*
X4163039Y-12023888D02*
X4163039Y-11966746D01*
X4163039Y-11966746D02*
X4172563Y-11947698D01*
X4172563Y-11947698D02*
X4182087Y-11938174D01*
X4182087Y-11938174D02*
X4201134Y-11928650D01*
X4201134Y-11928650D02*
X4229706Y-11928650D01*
X4229706Y-11928650D02*
X4248753Y-11938174D01*
X4248753Y-11938174D02*
X4258277Y-11947698D01*
X4258277Y-11947698D02*
X4267801Y-11966746D01*
X4267801Y-11966746D02*
X4267801Y-12023888D01*
X4267801Y-12023888D02*
X4258277Y-12042936D01*
X4258277Y-12042936D02*
X4248753Y-12052460D01*
X4248753Y-12052460D02*
X4229706Y-12061984D01*
X4229706Y-12061984D02*
X4201134Y-12061984D01*
X4382087Y-12061984D02*
X4363039Y-12052460D01*
X4363039Y-12052460D02*
X4353515Y-12033412D01*
X4353515Y-12033412D02*
X4353515Y-11861984D01*
X4534468Y-12052460D02*
X4515420Y-12061984D01*
X4515420Y-12061984D02*
X4477325Y-12061984D01*
X4477325Y-12061984D02*
X4458277Y-12052460D01*
X4458277Y-12052460D02*
X4448753Y-12033412D01*
X4448753Y-12033412D02*
X4448753Y-11957222D01*
X4448753Y-11957222D02*
X4458277Y-11938174D01*
X4458277Y-11938174D02*
X4477325Y-11928650D01*
X4477325Y-11928650D02*
X4515420Y-11928650D01*
X4515420Y-11928650D02*
X4534468Y-11938174D01*
X4534468Y-11938174D02*
X4543992Y-11957222D01*
X4543992Y-11957222D02*
X4543992Y-11976269D01*
X4543992Y-11976269D02*
X4448753Y-11995317D01*
X4620182Y-12052460D02*
X4639230Y-12061984D01*
X4639230Y-12061984D02*
X4677325Y-12061984D01*
X4677325Y-12061984D02*
X4696373Y-12052460D01*
X4696373Y-12052460D02*
X4705896Y-12033412D01*
X4705896Y-12033412D02*
X4705896Y-12023888D01*
X4705896Y-12023888D02*
X4696373Y-12004841D01*
X4696373Y-12004841D02*
X4677325Y-11995317D01*
X4677325Y-11995317D02*
X4648753Y-11995317D01*
X4648753Y-11995317D02*
X4629706Y-11985793D01*
X4629706Y-11985793D02*
X4620182Y-11966746D01*
X4620182Y-11966746D02*
X4620182Y-11957222D01*
X4620182Y-11957222D02*
X4629706Y-11938174D01*
X4629706Y-11938174D02*
X4648753Y-11928650D01*
X4648753Y-11928650D02*
X4677325Y-11928650D01*
X4677325Y-11928650D02*
X4696373Y-11938174D01*
X4772563Y-12138174D02*
X4782087Y-12128650D01*
X4782087Y-12128650D02*
X4801134Y-12100079D01*
X4801134Y-12100079D02*
X4810658Y-12081031D01*
X4810658Y-12081031D02*
X4820182Y-12052460D01*
X4820182Y-12052460D02*
X4829706Y-12004841D01*
X4829706Y-12004841D02*
X4829706Y-11966746D01*
X4829706Y-11966746D02*
X4820182Y-11919127D01*
X4820182Y-11919127D02*
X4810658Y-11890555D01*
X4810658Y-11890555D02*
X4801134Y-11871508D01*
X4801134Y-11871508D02*
X4782087Y-11842936D01*
X4782087Y-11842936D02*
X4772563Y-11833412D01*
D13*
X-29592Y-12299908D02*
X-29592Y-12169092D01*
X-160408Y-12169092D01*
X-160408Y-12299908D01*
X-29592Y-12299908D01*
D11*
X363039Y-12325984D02*
X248753Y-12325984D01*
X305896Y-12325984D02*
X305896Y-12125984D01*
X305896Y-12125984D02*
X286848Y-12154555D01*
X286848Y-12154555D02*
X267801Y-12173603D01*
X267801Y-12173603D02*
X248753Y-12183127D01*
X448753Y-12306936D02*
X458277Y-12316460D01*
X458277Y-12316460D02*
X448753Y-12325984D01*
X448753Y-12325984D02*
X439229Y-12316460D01*
X439229Y-12316460D02*
X448753Y-12306936D01*
X448753Y-12306936D02*
X448753Y-12325984D01*
X572563Y-12211698D02*
X553515Y-12202174D01*
X553515Y-12202174D02*
X543991Y-12192650D01*
X543991Y-12192650D02*
X534467Y-12173603D01*
X534467Y-12173603D02*
X534467Y-12164079D01*
X534467Y-12164079D02*
X543991Y-12145031D01*
X543991Y-12145031D02*
X553515Y-12135508D01*
X553515Y-12135508D02*
X572563Y-12125984D01*
X572563Y-12125984D02*
X610658Y-12125984D01*
X610658Y-12125984D02*
X629705Y-12135508D01*
X629705Y-12135508D02*
X639229Y-12145031D01*
X639229Y-12145031D02*
X648753Y-12164079D01*
X648753Y-12164079D02*
X648753Y-12173603D01*
X648753Y-12173603D02*
X639229Y-12192650D01*
X639229Y-12192650D02*
X629705Y-12202174D01*
X629705Y-12202174D02*
X610658Y-12211698D01*
X610658Y-12211698D02*
X572563Y-12211698D01*
X572563Y-12211698D02*
X553515Y-12221222D01*
X553515Y-12221222D02*
X543991Y-12230746D01*
X543991Y-12230746D02*
X534467Y-12249793D01*
X534467Y-12249793D02*
X534467Y-12287888D01*
X534467Y-12287888D02*
X543991Y-12306936D01*
X543991Y-12306936D02*
X553515Y-12316460D01*
X553515Y-12316460D02*
X572563Y-12325984D01*
X572563Y-12325984D02*
X610658Y-12325984D01*
X610658Y-12325984D02*
X629705Y-12316460D01*
X629705Y-12316460D02*
X639229Y-12306936D01*
X639229Y-12306936D02*
X648753Y-12287888D01*
X648753Y-12287888D02*
X648753Y-12249793D01*
X648753Y-12249793D02*
X639229Y-12230746D01*
X639229Y-12230746D02*
X629705Y-12221222D01*
X629705Y-12221222D02*
X610658Y-12211698D01*
X829705Y-12125984D02*
X734467Y-12125984D01*
X734467Y-12125984D02*
X724943Y-12221222D01*
X724943Y-12221222D02*
X734467Y-12211698D01*
X734467Y-12211698D02*
X753515Y-12202174D01*
X753515Y-12202174D02*
X801134Y-12202174D01*
X801134Y-12202174D02*
X820182Y-12211698D01*
X820182Y-12211698D02*
X829705Y-12221222D01*
X829705Y-12221222D02*
X839229Y-12240269D01*
X839229Y-12240269D02*
X839229Y-12287888D01*
X839229Y-12287888D02*
X829705Y-12306936D01*
X829705Y-12306936D02*
X820182Y-12316460D01*
X820182Y-12316460D02*
X801134Y-12325984D01*
X801134Y-12325984D02*
X753515Y-12325984D01*
X753515Y-12325984D02*
X734467Y-12316460D01*
X734467Y-12316460D02*
X724943Y-12306936D01*
X963039Y-12125984D02*
X982086Y-12125984D01*
X982086Y-12125984D02*
X1001134Y-12135508D01*
X1001134Y-12135508D02*
X1010658Y-12145031D01*
X1010658Y-12145031D02*
X1020182Y-12164079D01*
X1020182Y-12164079D02*
X1029705Y-12202174D01*
X1029705Y-12202174D02*
X1029705Y-12249793D01*
X1029705Y-12249793D02*
X1020182Y-12287888D01*
X1020182Y-12287888D02*
X1010658Y-12306936D01*
X1010658Y-12306936D02*
X1001134Y-12316460D01*
X1001134Y-12316460D02*
X982086Y-12325984D01*
X982086Y-12325984D02*
X963039Y-12325984D01*
X963039Y-12325984D02*
X943991Y-12316460D01*
X943991Y-12316460D02*
X934467Y-12306936D01*
X934467Y-12306936D02*
X924943Y-12287888D01*
X924943Y-12287888D02*
X915420Y-12249793D01*
X915420Y-12249793D02*
X915420Y-12202174D01*
X915420Y-12202174D02*
X924943Y-12164079D01*
X924943Y-12164079D02*
X934467Y-12145031D01*
X934467Y-12145031D02*
X943991Y-12135508D01*
X943991Y-12135508D02*
X963039Y-12125984D01*
X1115420Y-12325984D02*
X1115420Y-12192650D01*
X1115420Y-12211698D02*
X1124944Y-12202174D01*
X1124944Y-12202174D02*
X1143991Y-12192650D01*
X1143991Y-12192650D02*
X1172563Y-12192650D01*
X1172563Y-12192650D02*
X1191610Y-12202174D01*
X1191610Y-12202174D02*
X1201134Y-12221222D01*
X1201134Y-12221222D02*
X1201134Y-12325984D01*
X1201134Y-12221222D02*
X1210658Y-12202174D01*
X1210658Y-12202174D02*
X1229705Y-12192650D01*
X1229705Y-12192650D02*
X1258277Y-12192650D01*
X1258277Y-12192650D02*
X1277325Y-12202174D01*
X1277325Y-12202174D02*
X1286848Y-12221222D01*
X1286848Y-12221222D02*
X1286848Y-12325984D01*
X1382086Y-12325984D02*
X1382086Y-12192650D01*
X1382086Y-12211698D02*
X1391610Y-12202174D01*
X1391610Y-12202174D02*
X1410658Y-12192650D01*
X1410658Y-12192650D02*
X1439229Y-12192650D01*
X1439229Y-12192650D02*
X1458277Y-12202174D01*
X1458277Y-12202174D02*
X1467801Y-12221222D01*
X1467801Y-12221222D02*
X1467801Y-12325984D01*
X1467801Y-12221222D02*
X1477324Y-12202174D01*
X1477324Y-12202174D02*
X1496372Y-12192650D01*
X1496372Y-12192650D02*
X1524943Y-12192650D01*
X1524943Y-12192650D02*
X1543991Y-12202174D01*
X1543991Y-12202174D02*
X1553515Y-12221222D01*
X1553515Y-12221222D02*
X1553515Y-12325984D01*
X1943991Y-12116460D02*
X1772563Y-12373603D01*
X2201134Y-12125984D02*
X2220182Y-12125984D01*
X2220182Y-12125984D02*
X2239229Y-12135508D01*
X2239229Y-12135508D02*
X2248753Y-12145031D01*
X2248753Y-12145031D02*
X2258277Y-12164079D01*
X2258277Y-12164079D02*
X2267801Y-12202174D01*
X2267801Y-12202174D02*
X2267801Y-12249793D01*
X2267801Y-12249793D02*
X2258277Y-12287888D01*
X2258277Y-12287888D02*
X2248753Y-12306936D01*
X2248753Y-12306936D02*
X2239229Y-12316460D01*
X2239229Y-12316460D02*
X2220182Y-12325984D01*
X2220182Y-12325984D02*
X2201134Y-12325984D01*
X2201134Y-12325984D02*
X2182087Y-12316460D01*
X2182087Y-12316460D02*
X2172563Y-12306936D01*
X2172563Y-12306936D02*
X2163039Y-12287888D01*
X2163039Y-12287888D02*
X2153515Y-12249793D01*
X2153515Y-12249793D02*
X2153515Y-12202174D01*
X2153515Y-12202174D02*
X2163039Y-12164079D01*
X2163039Y-12164079D02*
X2172563Y-12145031D01*
X2172563Y-12145031D02*
X2182087Y-12135508D01*
X2182087Y-12135508D02*
X2201134Y-12125984D01*
X2353515Y-12306936D02*
X2363039Y-12316460D01*
X2363039Y-12316460D02*
X2353515Y-12325984D01*
X2353515Y-12325984D02*
X2343991Y-12316460D01*
X2343991Y-12316460D02*
X2353515Y-12306936D01*
X2353515Y-12306936D02*
X2353515Y-12325984D01*
X2486848Y-12125984D02*
X2505896Y-12125984D01*
X2505896Y-12125984D02*
X2524944Y-12135508D01*
X2524944Y-12135508D02*
X2534468Y-12145031D01*
X2534468Y-12145031D02*
X2543991Y-12164079D01*
X2543991Y-12164079D02*
X2553515Y-12202174D01*
X2553515Y-12202174D02*
X2553515Y-12249793D01*
X2553515Y-12249793D02*
X2543991Y-12287888D01*
X2543991Y-12287888D02*
X2534468Y-12306936D01*
X2534468Y-12306936D02*
X2524944Y-12316460D01*
X2524944Y-12316460D02*
X2505896Y-12325984D01*
X2505896Y-12325984D02*
X2486848Y-12325984D01*
X2486848Y-12325984D02*
X2467801Y-12316460D01*
X2467801Y-12316460D02*
X2458277Y-12306936D01*
X2458277Y-12306936D02*
X2448753Y-12287888D01*
X2448753Y-12287888D02*
X2439229Y-12249793D01*
X2439229Y-12249793D02*
X2439229Y-12202174D01*
X2439229Y-12202174D02*
X2448753Y-12164079D01*
X2448753Y-12164079D02*
X2458277Y-12145031D01*
X2458277Y-12145031D02*
X2467801Y-12135508D01*
X2467801Y-12135508D02*
X2486848Y-12125984D01*
X2620182Y-12125984D02*
X2753515Y-12125984D01*
X2753515Y-12125984D02*
X2667801Y-12325984D01*
X2820182Y-12145031D02*
X2829706Y-12135508D01*
X2829706Y-12135508D02*
X2848753Y-12125984D01*
X2848753Y-12125984D02*
X2896372Y-12125984D01*
X2896372Y-12125984D02*
X2915420Y-12135508D01*
X2915420Y-12135508D02*
X2924944Y-12145031D01*
X2924944Y-12145031D02*
X2934467Y-12164079D01*
X2934467Y-12164079D02*
X2934467Y-12183127D01*
X2934467Y-12183127D02*
X2924944Y-12211698D01*
X2924944Y-12211698D02*
X2810658Y-12325984D01*
X2810658Y-12325984D02*
X2934467Y-12325984D01*
X3048753Y-12211698D02*
X3029706Y-12202174D01*
X3029706Y-12202174D02*
X3020182Y-12192650D01*
X3020182Y-12192650D02*
X3010658Y-12173603D01*
X3010658Y-12173603D02*
X3010658Y-12164079D01*
X3010658Y-12164079D02*
X3020182Y-12145031D01*
X3020182Y-12145031D02*
X3029706Y-12135508D01*
X3029706Y-12135508D02*
X3048753Y-12125984D01*
X3048753Y-12125984D02*
X3086848Y-12125984D01*
X3086848Y-12125984D02*
X3105896Y-12135508D01*
X3105896Y-12135508D02*
X3115420Y-12145031D01*
X3115420Y-12145031D02*
X3124944Y-12164079D01*
X3124944Y-12164079D02*
X3124944Y-12173603D01*
X3124944Y-12173603D02*
X3115420Y-12192650D01*
X3115420Y-12192650D02*
X3105896Y-12202174D01*
X3105896Y-12202174D02*
X3086848Y-12211698D01*
X3086848Y-12211698D02*
X3048753Y-12211698D01*
X3048753Y-12211698D02*
X3029706Y-12221222D01*
X3029706Y-12221222D02*
X3020182Y-12230746D01*
X3020182Y-12230746D02*
X3010658Y-12249793D01*
X3010658Y-12249793D02*
X3010658Y-12287888D01*
X3010658Y-12287888D02*
X3020182Y-12306936D01*
X3020182Y-12306936D02*
X3029706Y-12316460D01*
X3029706Y-12316460D02*
X3048753Y-12325984D01*
X3048753Y-12325984D02*
X3086848Y-12325984D01*
X3086848Y-12325984D02*
X3105896Y-12316460D01*
X3105896Y-12316460D02*
X3115420Y-12306936D01*
X3115420Y-12306936D02*
X3124944Y-12287888D01*
X3124944Y-12287888D02*
X3124944Y-12249793D01*
X3124944Y-12249793D02*
X3115420Y-12230746D01*
X3115420Y-12230746D02*
X3105896Y-12221222D01*
X3105896Y-12221222D02*
X3086848Y-12211698D01*
X3201134Y-12125984D02*
X3201134Y-12164079D01*
X3277325Y-12125984D02*
X3277325Y-12164079D01*
X3572563Y-12402174D02*
X3563039Y-12392650D01*
X3563039Y-12392650D02*
X3543991Y-12364079D01*
X3543991Y-12364079D02*
X3534468Y-12345031D01*
X3534468Y-12345031D02*
X3524944Y-12316460D01*
X3524944Y-12316460D02*
X3515420Y-12268841D01*
X3515420Y-12268841D02*
X3515420Y-12230746D01*
X3515420Y-12230746D02*
X3524944Y-12183127D01*
X3524944Y-12183127D02*
X3534468Y-12154555D01*
X3534468Y-12154555D02*
X3543991Y-12135508D01*
X3543991Y-12135508D02*
X3563039Y-12106936D01*
X3563039Y-12106936D02*
X3572563Y-12097412D01*
X3743991Y-12125984D02*
X3648753Y-12125984D01*
X3648753Y-12125984D02*
X3639229Y-12221222D01*
X3639229Y-12221222D02*
X3648753Y-12211698D01*
X3648753Y-12211698D02*
X3667801Y-12202174D01*
X3667801Y-12202174D02*
X3715420Y-12202174D01*
X3715420Y-12202174D02*
X3734468Y-12211698D01*
X3734468Y-12211698D02*
X3743991Y-12221222D01*
X3743991Y-12221222D02*
X3753515Y-12240269D01*
X3753515Y-12240269D02*
X3753515Y-12287888D01*
X3753515Y-12287888D02*
X3743991Y-12306936D01*
X3743991Y-12306936D02*
X3734468Y-12316460D01*
X3734468Y-12316460D02*
X3715420Y-12325984D01*
X3715420Y-12325984D02*
X3667801Y-12325984D01*
X3667801Y-12325984D02*
X3648753Y-12316460D01*
X3648753Y-12316460D02*
X3639229Y-12306936D01*
X3991610Y-12325984D02*
X3991610Y-12125984D01*
X4077325Y-12325984D02*
X4077325Y-12221222D01*
X4077325Y-12221222D02*
X4067801Y-12202174D01*
X4067801Y-12202174D02*
X4048753Y-12192650D01*
X4048753Y-12192650D02*
X4020182Y-12192650D01*
X4020182Y-12192650D02*
X4001134Y-12202174D01*
X4001134Y-12202174D02*
X3991610Y-12211698D01*
X4201134Y-12325984D02*
X4182087Y-12316460D01*
X4182087Y-12316460D02*
X4172563Y-12306936D01*
X4172563Y-12306936D02*
X4163039Y-12287888D01*
X4163039Y-12287888D02*
X4163039Y-12230746D01*
X4163039Y-12230746D02*
X4172563Y-12211698D01*
X4172563Y-12211698D02*
X4182087Y-12202174D01*
X4182087Y-12202174D02*
X4201134Y-12192650D01*
X4201134Y-12192650D02*
X4229706Y-12192650D01*
X4229706Y-12192650D02*
X4248753Y-12202174D01*
X4248753Y-12202174D02*
X4258277Y-12211698D01*
X4258277Y-12211698D02*
X4267801Y-12230746D01*
X4267801Y-12230746D02*
X4267801Y-12287888D01*
X4267801Y-12287888D02*
X4258277Y-12306936D01*
X4258277Y-12306936D02*
X4248753Y-12316460D01*
X4248753Y-12316460D02*
X4229706Y-12325984D01*
X4229706Y-12325984D02*
X4201134Y-12325984D01*
X4382087Y-12325984D02*
X4363039Y-12316460D01*
X4363039Y-12316460D02*
X4353515Y-12297412D01*
X4353515Y-12297412D02*
X4353515Y-12125984D01*
X4534468Y-12316460D02*
X4515420Y-12325984D01*
X4515420Y-12325984D02*
X4477325Y-12325984D01*
X4477325Y-12325984D02*
X4458277Y-12316460D01*
X4458277Y-12316460D02*
X4448753Y-12297412D01*
X4448753Y-12297412D02*
X4448753Y-12221222D01*
X4448753Y-12221222D02*
X4458277Y-12202174D01*
X4458277Y-12202174D02*
X4477325Y-12192650D01*
X4477325Y-12192650D02*
X4515420Y-12192650D01*
X4515420Y-12192650D02*
X4534468Y-12202174D01*
X4534468Y-12202174D02*
X4543992Y-12221222D01*
X4543992Y-12221222D02*
X4543992Y-12240269D01*
X4543992Y-12240269D02*
X4448753Y-12259317D01*
X4620182Y-12316460D02*
X4639230Y-12325984D01*
X4639230Y-12325984D02*
X4677325Y-12325984D01*
X4677325Y-12325984D02*
X4696373Y-12316460D01*
X4696373Y-12316460D02*
X4705896Y-12297412D01*
X4705896Y-12297412D02*
X4705896Y-12287888D01*
X4705896Y-12287888D02*
X4696373Y-12268841D01*
X4696373Y-12268841D02*
X4677325Y-12259317D01*
X4677325Y-12259317D02*
X4648753Y-12259317D01*
X4648753Y-12259317D02*
X4629706Y-12249793D01*
X4629706Y-12249793D02*
X4620182Y-12230746D01*
X4620182Y-12230746D02*
X4620182Y-12221222D01*
X4620182Y-12221222D02*
X4629706Y-12202174D01*
X4629706Y-12202174D02*
X4648753Y-12192650D01*
X4648753Y-12192650D02*
X4677325Y-12192650D01*
X4677325Y-12192650D02*
X4696373Y-12202174D01*
X4772563Y-12402174D02*
X4782087Y-12392650D01*
X4782087Y-12392650D02*
X4801134Y-12364079D01*
X4801134Y-12364079D02*
X4810658Y-12345031D01*
X4810658Y-12345031D02*
X4820182Y-12316460D01*
X4820182Y-12316460D02*
X4829706Y-12268841D01*
X4829706Y-12268841D02*
X4829706Y-12230746D01*
X4829706Y-12230746D02*
X4820182Y-12183127D01*
X4820182Y-12183127D02*
X4810658Y-12154555D01*
X4810658Y-12154555D02*
X4801134Y-12135508D01*
X4801134Y-12135508D02*
X4782087Y-12106936D01*
X4782087Y-12106936D02*
X4772563Y-12097412D01*
X-102500Y-12639500D02*
X-2500Y-12539500D01*
X-102500Y-12439500D01*
X-202500Y-12539500D01*
X-102500Y-12639500D01*
X248753Y-12450031D02*
X258277Y-12440508D01*
X258277Y-12440508D02*
X277324Y-12430984D01*
X277324Y-12430984D02*
X324944Y-12430984D01*
X324944Y-12430984D02*
X343991Y-12440508D01*
X343991Y-12440508D02*
X353515Y-12450031D01*
X353515Y-12450031D02*
X363039Y-12469079D01*
X363039Y-12469079D02*
X363039Y-12488127D01*
X363039Y-12488127D02*
X353515Y-12516698D01*
X353515Y-12516698D02*
X239229Y-12630984D01*
X239229Y-12630984D02*
X363039Y-12630984D01*
X448753Y-12611936D02*
X458277Y-12621460D01*
X458277Y-12621460D02*
X448753Y-12630984D01*
X448753Y-12630984D02*
X439229Y-12621460D01*
X439229Y-12621460D02*
X448753Y-12611936D01*
X448753Y-12611936D02*
X448753Y-12630984D01*
X524944Y-12430984D02*
X648753Y-12430984D01*
X648753Y-12430984D02*
X582086Y-12507174D01*
X582086Y-12507174D02*
X610658Y-12507174D01*
X610658Y-12507174D02*
X629705Y-12516698D01*
X629705Y-12516698D02*
X639229Y-12526222D01*
X639229Y-12526222D02*
X648753Y-12545269D01*
X648753Y-12545269D02*
X648753Y-12592888D01*
X648753Y-12592888D02*
X639229Y-12611936D01*
X639229Y-12611936D02*
X629705Y-12621460D01*
X629705Y-12621460D02*
X610658Y-12630984D01*
X610658Y-12630984D02*
X553515Y-12630984D01*
X553515Y-12630984D02*
X534467Y-12621460D01*
X534467Y-12621460D02*
X524944Y-12611936D01*
X772562Y-12430984D02*
X791610Y-12430984D01*
X791610Y-12430984D02*
X810658Y-12440508D01*
X810658Y-12440508D02*
X820182Y-12450031D01*
X820182Y-12450031D02*
X829705Y-12469079D01*
X829705Y-12469079D02*
X839229Y-12507174D01*
X839229Y-12507174D02*
X839229Y-12554793D01*
X839229Y-12554793D02*
X829705Y-12592888D01*
X829705Y-12592888D02*
X820182Y-12611936D01*
X820182Y-12611936D02*
X810658Y-12621460D01*
X810658Y-12621460D02*
X791610Y-12630984D01*
X791610Y-12630984D02*
X772562Y-12630984D01*
X772562Y-12630984D02*
X753515Y-12621460D01*
X753515Y-12621460D02*
X743991Y-12611936D01*
X743991Y-12611936D02*
X734467Y-12592888D01*
X734467Y-12592888D02*
X724943Y-12554793D01*
X724943Y-12554793D02*
X724943Y-12507174D01*
X724943Y-12507174D02*
X734467Y-12469079D01*
X734467Y-12469079D02*
X743991Y-12450031D01*
X743991Y-12450031D02*
X753515Y-12440508D01*
X753515Y-12440508D02*
X772562Y-12430984D01*
X963039Y-12430984D02*
X982086Y-12430984D01*
X982086Y-12430984D02*
X1001134Y-12440508D01*
X1001134Y-12440508D02*
X1010658Y-12450031D01*
X1010658Y-12450031D02*
X1020182Y-12469079D01*
X1020182Y-12469079D02*
X1029705Y-12507174D01*
X1029705Y-12507174D02*
X1029705Y-12554793D01*
X1029705Y-12554793D02*
X1020182Y-12592888D01*
X1020182Y-12592888D02*
X1010658Y-12611936D01*
X1010658Y-12611936D02*
X1001134Y-12621460D01*
X1001134Y-12621460D02*
X982086Y-12630984D01*
X982086Y-12630984D02*
X963039Y-12630984D01*
X963039Y-12630984D02*
X943991Y-12621460D01*
X943991Y-12621460D02*
X934467Y-12611936D01*
X934467Y-12611936D02*
X924943Y-12592888D01*
X924943Y-12592888D02*
X915420Y-12554793D01*
X915420Y-12554793D02*
X915420Y-12507174D01*
X915420Y-12507174D02*
X924943Y-12469079D01*
X924943Y-12469079D02*
X934467Y-12450031D01*
X934467Y-12450031D02*
X943991Y-12440508D01*
X943991Y-12440508D02*
X963039Y-12430984D01*
X1115420Y-12630984D02*
X1115420Y-12497650D01*
X1115420Y-12516698D02*
X1124944Y-12507174D01*
X1124944Y-12507174D02*
X1143991Y-12497650D01*
X1143991Y-12497650D02*
X1172563Y-12497650D01*
X1172563Y-12497650D02*
X1191610Y-12507174D01*
X1191610Y-12507174D02*
X1201134Y-12526222D01*
X1201134Y-12526222D02*
X1201134Y-12630984D01*
X1201134Y-12526222D02*
X1210658Y-12507174D01*
X1210658Y-12507174D02*
X1229705Y-12497650D01*
X1229705Y-12497650D02*
X1258277Y-12497650D01*
X1258277Y-12497650D02*
X1277325Y-12507174D01*
X1277325Y-12507174D02*
X1286848Y-12526222D01*
X1286848Y-12526222D02*
X1286848Y-12630984D01*
X1382086Y-12630984D02*
X1382086Y-12497650D01*
X1382086Y-12516698D02*
X1391610Y-12507174D01*
X1391610Y-12507174D02*
X1410658Y-12497650D01*
X1410658Y-12497650D02*
X1439229Y-12497650D01*
X1439229Y-12497650D02*
X1458277Y-12507174D01*
X1458277Y-12507174D02*
X1467801Y-12526222D01*
X1467801Y-12526222D02*
X1467801Y-12630984D01*
X1467801Y-12526222D02*
X1477324Y-12507174D01*
X1477324Y-12507174D02*
X1496372Y-12497650D01*
X1496372Y-12497650D02*
X1524943Y-12497650D01*
X1524943Y-12497650D02*
X1543991Y-12507174D01*
X1543991Y-12507174D02*
X1553515Y-12526222D01*
X1553515Y-12526222D02*
X1553515Y-12630984D01*
X1943991Y-12421460D02*
X1772563Y-12678603D01*
X2201134Y-12430984D02*
X2220182Y-12430984D01*
X2220182Y-12430984D02*
X2239229Y-12440508D01*
X2239229Y-12440508D02*
X2248753Y-12450031D01*
X2248753Y-12450031D02*
X2258277Y-12469079D01*
X2258277Y-12469079D02*
X2267801Y-12507174D01*
X2267801Y-12507174D02*
X2267801Y-12554793D01*
X2267801Y-12554793D02*
X2258277Y-12592888D01*
X2258277Y-12592888D02*
X2248753Y-12611936D01*
X2248753Y-12611936D02*
X2239229Y-12621460D01*
X2239229Y-12621460D02*
X2220182Y-12630984D01*
X2220182Y-12630984D02*
X2201134Y-12630984D01*
X2201134Y-12630984D02*
X2182087Y-12621460D01*
X2182087Y-12621460D02*
X2172563Y-12611936D01*
X2172563Y-12611936D02*
X2163039Y-12592888D01*
X2163039Y-12592888D02*
X2153515Y-12554793D01*
X2153515Y-12554793D02*
X2153515Y-12507174D01*
X2153515Y-12507174D02*
X2163039Y-12469079D01*
X2163039Y-12469079D02*
X2172563Y-12450031D01*
X2172563Y-12450031D02*
X2182087Y-12440508D01*
X2182087Y-12440508D02*
X2201134Y-12430984D01*
X2353515Y-12611936D02*
X2363039Y-12621460D01*
X2363039Y-12621460D02*
X2353515Y-12630984D01*
X2353515Y-12630984D02*
X2343991Y-12621460D01*
X2343991Y-12621460D02*
X2353515Y-12611936D01*
X2353515Y-12611936D02*
X2353515Y-12630984D01*
X2486848Y-12430984D02*
X2505896Y-12430984D01*
X2505896Y-12430984D02*
X2524944Y-12440508D01*
X2524944Y-12440508D02*
X2534468Y-12450031D01*
X2534468Y-12450031D02*
X2543991Y-12469079D01*
X2543991Y-12469079D02*
X2553515Y-12507174D01*
X2553515Y-12507174D02*
X2553515Y-12554793D01*
X2553515Y-12554793D02*
X2543991Y-12592888D01*
X2543991Y-12592888D02*
X2534468Y-12611936D01*
X2534468Y-12611936D02*
X2524944Y-12621460D01*
X2524944Y-12621460D02*
X2505896Y-12630984D01*
X2505896Y-12630984D02*
X2486848Y-12630984D01*
X2486848Y-12630984D02*
X2467801Y-12621460D01*
X2467801Y-12621460D02*
X2458277Y-12611936D01*
X2458277Y-12611936D02*
X2448753Y-12592888D01*
X2448753Y-12592888D02*
X2439229Y-12554793D01*
X2439229Y-12554793D02*
X2439229Y-12507174D01*
X2439229Y-12507174D02*
X2448753Y-12469079D01*
X2448753Y-12469079D02*
X2458277Y-12450031D01*
X2458277Y-12450031D02*
X2467801Y-12440508D01*
X2467801Y-12440508D02*
X2486848Y-12430984D01*
X2648753Y-12630984D02*
X2686848Y-12630984D01*
X2686848Y-12630984D02*
X2705896Y-12621460D01*
X2705896Y-12621460D02*
X2715420Y-12611936D01*
X2715420Y-12611936D02*
X2734468Y-12583365D01*
X2734468Y-12583365D02*
X2743991Y-12545269D01*
X2743991Y-12545269D02*
X2743991Y-12469079D01*
X2743991Y-12469079D02*
X2734468Y-12450031D01*
X2734468Y-12450031D02*
X2724944Y-12440508D01*
X2724944Y-12440508D02*
X2705896Y-12430984D01*
X2705896Y-12430984D02*
X2667801Y-12430984D01*
X2667801Y-12430984D02*
X2648753Y-12440508D01*
X2648753Y-12440508D02*
X2639229Y-12450031D01*
X2639229Y-12450031D02*
X2629706Y-12469079D01*
X2629706Y-12469079D02*
X2629706Y-12516698D01*
X2629706Y-12516698D02*
X2639229Y-12535746D01*
X2639229Y-12535746D02*
X2648753Y-12545269D01*
X2648753Y-12545269D02*
X2667801Y-12554793D01*
X2667801Y-12554793D02*
X2705896Y-12554793D01*
X2705896Y-12554793D02*
X2724944Y-12545269D01*
X2724944Y-12545269D02*
X2734468Y-12535746D01*
X2734468Y-12535746D02*
X2743991Y-12516698D01*
X2867801Y-12430984D02*
X2886848Y-12430984D01*
X2886848Y-12430984D02*
X2905896Y-12440508D01*
X2905896Y-12440508D02*
X2915420Y-12450031D01*
X2915420Y-12450031D02*
X2924944Y-12469079D01*
X2924944Y-12469079D02*
X2934467Y-12507174D01*
X2934467Y-12507174D02*
X2934467Y-12554793D01*
X2934467Y-12554793D02*
X2924944Y-12592888D01*
X2924944Y-12592888D02*
X2915420Y-12611936D01*
X2915420Y-12611936D02*
X2905896Y-12621460D01*
X2905896Y-12621460D02*
X2886848Y-12630984D01*
X2886848Y-12630984D02*
X2867801Y-12630984D01*
X2867801Y-12630984D02*
X2848753Y-12621460D01*
X2848753Y-12621460D02*
X2839229Y-12611936D01*
X2839229Y-12611936D02*
X2829706Y-12592888D01*
X2829706Y-12592888D02*
X2820182Y-12554793D01*
X2820182Y-12554793D02*
X2820182Y-12507174D01*
X2820182Y-12507174D02*
X2829706Y-12469079D01*
X2829706Y-12469079D02*
X2839229Y-12450031D01*
X2839229Y-12450031D02*
X2848753Y-12440508D01*
X2848753Y-12440508D02*
X2867801Y-12430984D01*
X3105896Y-12430984D02*
X3067801Y-12430984D01*
X3067801Y-12430984D02*
X3048753Y-12440508D01*
X3048753Y-12440508D02*
X3039229Y-12450031D01*
X3039229Y-12450031D02*
X3020182Y-12478603D01*
X3020182Y-12478603D02*
X3010658Y-12516698D01*
X3010658Y-12516698D02*
X3010658Y-12592888D01*
X3010658Y-12592888D02*
X3020182Y-12611936D01*
X3020182Y-12611936D02*
X3029706Y-12621460D01*
X3029706Y-12621460D02*
X3048753Y-12630984D01*
X3048753Y-12630984D02*
X3086848Y-12630984D01*
X3086848Y-12630984D02*
X3105896Y-12621460D01*
X3105896Y-12621460D02*
X3115420Y-12611936D01*
X3115420Y-12611936D02*
X3124944Y-12592888D01*
X3124944Y-12592888D02*
X3124944Y-12545269D01*
X3124944Y-12545269D02*
X3115420Y-12526222D01*
X3115420Y-12526222D02*
X3105896Y-12516698D01*
X3105896Y-12516698D02*
X3086848Y-12507174D01*
X3086848Y-12507174D02*
X3048753Y-12507174D01*
X3048753Y-12507174D02*
X3029706Y-12516698D01*
X3029706Y-12516698D02*
X3020182Y-12526222D01*
X3020182Y-12526222D02*
X3010658Y-12545269D01*
X3201134Y-12430984D02*
X3201134Y-12469079D01*
X3277325Y-12430984D02*
X3277325Y-12469079D01*
X3572563Y-12707174D02*
X3563039Y-12697650D01*
X3563039Y-12697650D02*
X3543991Y-12669079D01*
X3543991Y-12669079D02*
X3534468Y-12650031D01*
X3534468Y-12650031D02*
X3524944Y-12621460D01*
X3524944Y-12621460D02*
X3515420Y-12573841D01*
X3515420Y-12573841D02*
X3515420Y-12535746D01*
X3515420Y-12535746D02*
X3524944Y-12488127D01*
X3524944Y-12488127D02*
X3534468Y-12459555D01*
X3534468Y-12459555D02*
X3543991Y-12440508D01*
X3543991Y-12440508D02*
X3563039Y-12411936D01*
X3563039Y-12411936D02*
X3572563Y-12402412D01*
X3639229Y-12450031D02*
X3648753Y-12440508D01*
X3648753Y-12440508D02*
X3667801Y-12430984D01*
X3667801Y-12430984D02*
X3715420Y-12430984D01*
X3715420Y-12430984D02*
X3734468Y-12440508D01*
X3734468Y-12440508D02*
X3743991Y-12450031D01*
X3743991Y-12450031D02*
X3753515Y-12469079D01*
X3753515Y-12469079D02*
X3753515Y-12488127D01*
X3753515Y-12488127D02*
X3743991Y-12516698D01*
X3743991Y-12516698D02*
X3629706Y-12630984D01*
X3629706Y-12630984D02*
X3753515Y-12630984D01*
X3991610Y-12630984D02*
X3991610Y-12430984D01*
X4077325Y-12630984D02*
X4077325Y-12526222D01*
X4077325Y-12526222D02*
X4067801Y-12507174D01*
X4067801Y-12507174D02*
X4048753Y-12497650D01*
X4048753Y-12497650D02*
X4020182Y-12497650D01*
X4020182Y-12497650D02*
X4001134Y-12507174D01*
X4001134Y-12507174D02*
X3991610Y-12516698D01*
X4201134Y-12630984D02*
X4182087Y-12621460D01*
X4182087Y-12621460D02*
X4172563Y-12611936D01*
X4172563Y-12611936D02*
X4163039Y-12592888D01*
X4163039Y-12592888D02*
X4163039Y-12535746D01*
X4163039Y-12535746D02*
X4172563Y-12516698D01*
X4172563Y-12516698D02*
X4182087Y-12507174D01*
X4182087Y-12507174D02*
X4201134Y-12497650D01*
X4201134Y-12497650D02*
X4229706Y-12497650D01*
X4229706Y-12497650D02*
X4248753Y-12507174D01*
X4248753Y-12507174D02*
X4258277Y-12516698D01*
X4258277Y-12516698D02*
X4267801Y-12535746D01*
X4267801Y-12535746D02*
X4267801Y-12592888D01*
X4267801Y-12592888D02*
X4258277Y-12611936D01*
X4258277Y-12611936D02*
X4248753Y-12621460D01*
X4248753Y-12621460D02*
X4229706Y-12630984D01*
X4229706Y-12630984D02*
X4201134Y-12630984D01*
X4382087Y-12630984D02*
X4363039Y-12621460D01*
X4363039Y-12621460D02*
X4353515Y-12602412D01*
X4353515Y-12602412D02*
X4353515Y-12430984D01*
X4534468Y-12621460D02*
X4515420Y-12630984D01*
X4515420Y-12630984D02*
X4477325Y-12630984D01*
X4477325Y-12630984D02*
X4458277Y-12621460D01*
X4458277Y-12621460D02*
X4448753Y-12602412D01*
X4448753Y-12602412D02*
X4448753Y-12526222D01*
X4448753Y-12526222D02*
X4458277Y-12507174D01*
X4458277Y-12507174D02*
X4477325Y-12497650D01*
X4477325Y-12497650D02*
X4515420Y-12497650D01*
X4515420Y-12497650D02*
X4534468Y-12507174D01*
X4534468Y-12507174D02*
X4543992Y-12526222D01*
X4543992Y-12526222D02*
X4543992Y-12545269D01*
X4543992Y-12545269D02*
X4448753Y-12564317D01*
X4620182Y-12621460D02*
X4639230Y-12630984D01*
X4639230Y-12630984D02*
X4677325Y-12630984D01*
X4677325Y-12630984D02*
X4696373Y-12621460D01*
X4696373Y-12621460D02*
X4705896Y-12602412D01*
X4705896Y-12602412D02*
X4705896Y-12592888D01*
X4705896Y-12592888D02*
X4696373Y-12573841D01*
X4696373Y-12573841D02*
X4677325Y-12564317D01*
X4677325Y-12564317D02*
X4648753Y-12564317D01*
X4648753Y-12564317D02*
X4629706Y-12554793D01*
X4629706Y-12554793D02*
X4620182Y-12535746D01*
X4620182Y-12535746D02*
X4620182Y-12526222D01*
X4620182Y-12526222D02*
X4629706Y-12507174D01*
X4629706Y-12507174D02*
X4648753Y-12497650D01*
X4648753Y-12497650D02*
X4677325Y-12497650D01*
X4677325Y-12497650D02*
X4696373Y-12507174D01*
X4772563Y-12707174D02*
X4782087Y-12697650D01*
X4782087Y-12697650D02*
X4801134Y-12669079D01*
X4801134Y-12669079D02*
X4810658Y-12650031D01*
X4810658Y-12650031D02*
X4820182Y-12621460D01*
X4820182Y-12621460D02*
X4829706Y-12573841D01*
X4829706Y-12573841D02*
X4829706Y-12535746D01*
X4829706Y-12535746D02*
X4820182Y-12488127D01*
X4820182Y-12488127D02*
X4810658Y-12459555D01*
X4810658Y-12459555D02*
X4801134Y-12440508D01*
X4801134Y-12440508D02*
X4782087Y-12411936D01*
X4782087Y-12411936D02*
X4772563Y-12402412D01*
X-202500Y-12759500D02*
X-2500Y-12959500D01*
X-2500Y-12759500D02*
X-202500Y-12959500D01*
X-2500Y-12859500D02*
G75*
G03*
X-202500Y-12859500I-100000J0D01*
G01*
X-202500Y-12859500D02*
G75*
G03*
X-2500Y-12859500I100000J0D01*
G01*
X239229Y-12750984D02*
X363039Y-12750984D01*
X363039Y-12750984D02*
X296372Y-12827174D01*
X296372Y-12827174D02*
X324944Y-12827174D01*
X324944Y-12827174D02*
X343991Y-12836698D01*
X343991Y-12836698D02*
X353515Y-12846222D01*
X353515Y-12846222D02*
X363039Y-12865269D01*
X363039Y-12865269D02*
X363039Y-12912888D01*
X363039Y-12912888D02*
X353515Y-12931936D01*
X353515Y-12931936D02*
X343991Y-12941460D01*
X343991Y-12941460D02*
X324944Y-12950984D01*
X324944Y-12950984D02*
X267801Y-12950984D01*
X267801Y-12950984D02*
X248753Y-12941460D01*
X248753Y-12941460D02*
X239229Y-12931936D01*
X448753Y-12931936D02*
X458277Y-12941460D01*
X458277Y-12941460D02*
X448753Y-12950984D01*
X448753Y-12950984D02*
X439229Y-12941460D01*
X439229Y-12941460D02*
X448753Y-12931936D01*
X448753Y-12931936D02*
X448753Y-12950984D01*
X534467Y-12770031D02*
X543991Y-12760508D01*
X543991Y-12760508D02*
X563039Y-12750984D01*
X563039Y-12750984D02*
X610658Y-12750984D01*
X610658Y-12750984D02*
X629705Y-12760508D01*
X629705Y-12760508D02*
X639229Y-12770031D01*
X639229Y-12770031D02*
X648753Y-12789079D01*
X648753Y-12789079D02*
X648753Y-12808127D01*
X648753Y-12808127D02*
X639229Y-12836698D01*
X639229Y-12836698D02*
X524944Y-12950984D01*
X524944Y-12950984D02*
X648753Y-12950984D01*
X772562Y-12750984D02*
X791610Y-12750984D01*
X791610Y-12750984D02*
X810658Y-12760508D01*
X810658Y-12760508D02*
X820182Y-12770031D01*
X820182Y-12770031D02*
X829705Y-12789079D01*
X829705Y-12789079D02*
X839229Y-12827174D01*
X839229Y-12827174D02*
X839229Y-12874793D01*
X839229Y-12874793D02*
X829705Y-12912888D01*
X829705Y-12912888D02*
X820182Y-12931936D01*
X820182Y-12931936D02*
X810658Y-12941460D01*
X810658Y-12941460D02*
X791610Y-12950984D01*
X791610Y-12950984D02*
X772562Y-12950984D01*
X772562Y-12950984D02*
X753515Y-12941460D01*
X753515Y-12941460D02*
X743991Y-12931936D01*
X743991Y-12931936D02*
X734467Y-12912888D01*
X734467Y-12912888D02*
X724943Y-12874793D01*
X724943Y-12874793D02*
X724943Y-12827174D01*
X724943Y-12827174D02*
X734467Y-12789079D01*
X734467Y-12789079D02*
X743991Y-12770031D01*
X743991Y-12770031D02*
X753515Y-12760508D01*
X753515Y-12760508D02*
X772562Y-12750984D01*
X963039Y-12750984D02*
X982086Y-12750984D01*
X982086Y-12750984D02*
X1001134Y-12760508D01*
X1001134Y-12760508D02*
X1010658Y-12770031D01*
X1010658Y-12770031D02*
X1020182Y-12789079D01*
X1020182Y-12789079D02*
X1029705Y-12827174D01*
X1029705Y-12827174D02*
X1029705Y-12874793D01*
X1029705Y-12874793D02*
X1020182Y-12912888D01*
X1020182Y-12912888D02*
X1010658Y-12931936D01*
X1010658Y-12931936D02*
X1001134Y-12941460D01*
X1001134Y-12941460D02*
X982086Y-12950984D01*
X982086Y-12950984D02*
X963039Y-12950984D01*
X963039Y-12950984D02*
X943991Y-12941460D01*
X943991Y-12941460D02*
X934467Y-12931936D01*
X934467Y-12931936D02*
X924943Y-12912888D01*
X924943Y-12912888D02*
X915420Y-12874793D01*
X915420Y-12874793D02*
X915420Y-12827174D01*
X915420Y-12827174D02*
X924943Y-12789079D01*
X924943Y-12789079D02*
X934467Y-12770031D01*
X934467Y-12770031D02*
X943991Y-12760508D01*
X943991Y-12760508D02*
X963039Y-12750984D01*
X1115420Y-12950984D02*
X1115420Y-12817650D01*
X1115420Y-12836698D02*
X1124944Y-12827174D01*
X1124944Y-12827174D02*
X1143991Y-12817650D01*
X1143991Y-12817650D02*
X1172563Y-12817650D01*
X1172563Y-12817650D02*
X1191610Y-12827174D01*
X1191610Y-12827174D02*
X1201134Y-12846222D01*
X1201134Y-12846222D02*
X1201134Y-12950984D01*
X1201134Y-12846222D02*
X1210658Y-12827174D01*
X1210658Y-12827174D02*
X1229705Y-12817650D01*
X1229705Y-12817650D02*
X1258277Y-12817650D01*
X1258277Y-12817650D02*
X1277325Y-12827174D01*
X1277325Y-12827174D02*
X1286848Y-12846222D01*
X1286848Y-12846222D02*
X1286848Y-12950984D01*
X1382086Y-12950984D02*
X1382086Y-12817650D01*
X1382086Y-12836698D02*
X1391610Y-12827174D01*
X1391610Y-12827174D02*
X1410658Y-12817650D01*
X1410658Y-12817650D02*
X1439229Y-12817650D01*
X1439229Y-12817650D02*
X1458277Y-12827174D01*
X1458277Y-12827174D02*
X1467801Y-12846222D01*
X1467801Y-12846222D02*
X1467801Y-12950984D01*
X1467801Y-12846222D02*
X1477324Y-12827174D01*
X1477324Y-12827174D02*
X1496372Y-12817650D01*
X1496372Y-12817650D02*
X1524943Y-12817650D01*
X1524943Y-12817650D02*
X1543991Y-12827174D01*
X1543991Y-12827174D02*
X1553515Y-12846222D01*
X1553515Y-12846222D02*
X1553515Y-12950984D01*
X1943991Y-12741460D02*
X1772563Y-12998603D01*
X2201134Y-12750984D02*
X2220182Y-12750984D01*
X2220182Y-12750984D02*
X2239229Y-12760508D01*
X2239229Y-12760508D02*
X2248753Y-12770031D01*
X2248753Y-12770031D02*
X2258277Y-12789079D01*
X2258277Y-12789079D02*
X2267801Y-12827174D01*
X2267801Y-12827174D02*
X2267801Y-12874793D01*
X2267801Y-12874793D02*
X2258277Y-12912888D01*
X2258277Y-12912888D02*
X2248753Y-12931936D01*
X2248753Y-12931936D02*
X2239229Y-12941460D01*
X2239229Y-12941460D02*
X2220182Y-12950984D01*
X2220182Y-12950984D02*
X2201134Y-12950984D01*
X2201134Y-12950984D02*
X2182087Y-12941460D01*
X2182087Y-12941460D02*
X2172563Y-12931936D01*
X2172563Y-12931936D02*
X2163039Y-12912888D01*
X2163039Y-12912888D02*
X2153515Y-12874793D01*
X2153515Y-12874793D02*
X2153515Y-12827174D01*
X2153515Y-12827174D02*
X2163039Y-12789079D01*
X2163039Y-12789079D02*
X2172563Y-12770031D01*
X2172563Y-12770031D02*
X2182087Y-12760508D01*
X2182087Y-12760508D02*
X2201134Y-12750984D01*
X2353515Y-12931936D02*
X2363039Y-12941460D01*
X2363039Y-12941460D02*
X2353515Y-12950984D01*
X2353515Y-12950984D02*
X2343991Y-12941460D01*
X2343991Y-12941460D02*
X2353515Y-12931936D01*
X2353515Y-12931936D02*
X2353515Y-12950984D01*
X2553515Y-12950984D02*
X2439229Y-12950984D01*
X2496372Y-12950984D02*
X2496372Y-12750984D01*
X2496372Y-12750984D02*
X2477325Y-12779555D01*
X2477325Y-12779555D02*
X2458277Y-12798603D01*
X2458277Y-12798603D02*
X2439229Y-12808127D01*
X2629706Y-12770031D02*
X2639229Y-12760508D01*
X2639229Y-12760508D02*
X2658277Y-12750984D01*
X2658277Y-12750984D02*
X2705896Y-12750984D01*
X2705896Y-12750984D02*
X2724944Y-12760508D01*
X2724944Y-12760508D02*
X2734468Y-12770031D01*
X2734468Y-12770031D02*
X2743991Y-12789079D01*
X2743991Y-12789079D02*
X2743991Y-12808127D01*
X2743991Y-12808127D02*
X2734468Y-12836698D01*
X2734468Y-12836698D02*
X2620182Y-12950984D01*
X2620182Y-12950984D02*
X2743991Y-12950984D01*
X2915420Y-12750984D02*
X2877325Y-12750984D01*
X2877325Y-12750984D02*
X2858277Y-12760508D01*
X2858277Y-12760508D02*
X2848753Y-12770031D01*
X2848753Y-12770031D02*
X2829706Y-12798603D01*
X2829706Y-12798603D02*
X2820182Y-12836698D01*
X2820182Y-12836698D02*
X2820182Y-12912888D01*
X2820182Y-12912888D02*
X2829706Y-12931936D01*
X2829706Y-12931936D02*
X2839229Y-12941460D01*
X2839229Y-12941460D02*
X2858277Y-12950984D01*
X2858277Y-12950984D02*
X2896372Y-12950984D01*
X2896372Y-12950984D02*
X2915420Y-12941460D01*
X2915420Y-12941460D02*
X2924944Y-12931936D01*
X2924944Y-12931936D02*
X2934467Y-12912888D01*
X2934467Y-12912888D02*
X2934467Y-12865269D01*
X2934467Y-12865269D02*
X2924944Y-12846222D01*
X2924944Y-12846222D02*
X2915420Y-12836698D01*
X2915420Y-12836698D02*
X2896372Y-12827174D01*
X2896372Y-12827174D02*
X2858277Y-12827174D01*
X2858277Y-12827174D02*
X2839229Y-12836698D01*
X2839229Y-12836698D02*
X2829706Y-12846222D01*
X2829706Y-12846222D02*
X2820182Y-12865269D01*
X3058277Y-12750984D02*
X3077325Y-12750984D01*
X3077325Y-12750984D02*
X3096372Y-12760508D01*
X3096372Y-12760508D02*
X3105896Y-12770031D01*
X3105896Y-12770031D02*
X3115420Y-12789079D01*
X3115420Y-12789079D02*
X3124944Y-12827174D01*
X3124944Y-12827174D02*
X3124944Y-12874793D01*
X3124944Y-12874793D02*
X3115420Y-12912888D01*
X3115420Y-12912888D02*
X3105896Y-12931936D01*
X3105896Y-12931936D02*
X3096372Y-12941460D01*
X3096372Y-12941460D02*
X3077325Y-12950984D01*
X3077325Y-12950984D02*
X3058277Y-12950984D01*
X3058277Y-12950984D02*
X3039229Y-12941460D01*
X3039229Y-12941460D02*
X3029706Y-12931936D01*
X3029706Y-12931936D02*
X3020182Y-12912888D01*
X3020182Y-12912888D02*
X3010658Y-12874793D01*
X3010658Y-12874793D02*
X3010658Y-12827174D01*
X3010658Y-12827174D02*
X3020182Y-12789079D01*
X3020182Y-12789079D02*
X3029706Y-12770031D01*
X3029706Y-12770031D02*
X3039229Y-12760508D01*
X3039229Y-12760508D02*
X3058277Y-12750984D01*
X3201134Y-12750984D02*
X3201134Y-12789079D01*
X3277325Y-12750984D02*
X3277325Y-12789079D01*
X3572563Y-13027174D02*
X3563039Y-13017650D01*
X3563039Y-13017650D02*
X3543991Y-12989079D01*
X3543991Y-12989079D02*
X3534468Y-12970031D01*
X3534468Y-12970031D02*
X3524944Y-12941460D01*
X3524944Y-12941460D02*
X3515420Y-12893841D01*
X3515420Y-12893841D02*
X3515420Y-12855746D01*
X3515420Y-12855746D02*
X3524944Y-12808127D01*
X3524944Y-12808127D02*
X3534468Y-12779555D01*
X3534468Y-12779555D02*
X3543991Y-12760508D01*
X3543991Y-12760508D02*
X3563039Y-12731936D01*
X3563039Y-12731936D02*
X3572563Y-12722412D01*
X3734468Y-12817650D02*
X3734468Y-12950984D01*
X3686848Y-12741460D02*
X3639229Y-12884317D01*
X3639229Y-12884317D02*
X3763039Y-12884317D01*
X3991610Y-12950984D02*
X3991610Y-12750984D01*
X4077325Y-12950984D02*
X4077325Y-12846222D01*
X4077325Y-12846222D02*
X4067801Y-12827174D01*
X4067801Y-12827174D02*
X4048753Y-12817650D01*
X4048753Y-12817650D02*
X4020182Y-12817650D01*
X4020182Y-12817650D02*
X4001134Y-12827174D01*
X4001134Y-12827174D02*
X3991610Y-12836698D01*
X4201134Y-12950984D02*
X4182087Y-12941460D01*
X4182087Y-12941460D02*
X4172563Y-12931936D01*
X4172563Y-12931936D02*
X4163039Y-12912888D01*
X4163039Y-12912888D02*
X4163039Y-12855746D01*
X4163039Y-12855746D02*
X4172563Y-12836698D01*
X4172563Y-12836698D02*
X4182087Y-12827174D01*
X4182087Y-12827174D02*
X4201134Y-12817650D01*
X4201134Y-12817650D02*
X4229706Y-12817650D01*
X4229706Y-12817650D02*
X4248753Y-12827174D01*
X4248753Y-12827174D02*
X4258277Y-12836698D01*
X4258277Y-12836698D02*
X4267801Y-12855746D01*
X4267801Y-12855746D02*
X4267801Y-12912888D01*
X4267801Y-12912888D02*
X4258277Y-12931936D01*
X4258277Y-12931936D02*
X4248753Y-12941460D01*
X4248753Y-12941460D02*
X4229706Y-12950984D01*
X4229706Y-12950984D02*
X4201134Y-12950984D01*
X4382087Y-12950984D02*
X4363039Y-12941460D01*
X4363039Y-12941460D02*
X4353515Y-12922412D01*
X4353515Y-12922412D02*
X4353515Y-12750984D01*
X4534468Y-12941460D02*
X4515420Y-12950984D01*
X4515420Y-12950984D02*
X4477325Y-12950984D01*
X4477325Y-12950984D02*
X4458277Y-12941460D01*
X4458277Y-12941460D02*
X4448753Y-12922412D01*
X4448753Y-12922412D02*
X4448753Y-12846222D01*
X4448753Y-12846222D02*
X4458277Y-12827174D01*
X4458277Y-12827174D02*
X4477325Y-12817650D01*
X4477325Y-12817650D02*
X4515420Y-12817650D01*
X4515420Y-12817650D02*
X4534468Y-12827174D01*
X4534468Y-12827174D02*
X4543992Y-12846222D01*
X4543992Y-12846222D02*
X4543992Y-12865269D01*
X4543992Y-12865269D02*
X4448753Y-12884317D01*
X4620182Y-12941460D02*
X4639230Y-12950984D01*
X4639230Y-12950984D02*
X4677325Y-12950984D01*
X4677325Y-12950984D02*
X4696373Y-12941460D01*
X4696373Y-12941460D02*
X4705896Y-12922412D01*
X4705896Y-12922412D02*
X4705896Y-12912888D01*
X4705896Y-12912888D02*
X4696373Y-12893841D01*
X4696373Y-12893841D02*
X4677325Y-12884317D01*
X4677325Y-12884317D02*
X4648753Y-12884317D01*
X4648753Y-12884317D02*
X4629706Y-12874793D01*
X4629706Y-12874793D02*
X4620182Y-12855746D01*
X4620182Y-12855746D02*
X4620182Y-12846222D01*
X4620182Y-12846222D02*
X4629706Y-12827174D01*
X4629706Y-12827174D02*
X4648753Y-12817650D01*
X4648753Y-12817650D02*
X4677325Y-12817650D01*
X4677325Y-12817650D02*
X4696373Y-12827174D01*
X4772563Y-13027174D02*
X4782087Y-13017650D01*
X4782087Y-13017650D02*
X4801134Y-12989079D01*
X4801134Y-12989079D02*
X4810658Y-12970031D01*
X4810658Y-12970031D02*
X4820182Y-12941460D01*
X4820182Y-12941460D02*
X4829706Y-12893841D01*
X4829706Y-12893841D02*
X4829706Y-12855746D01*
X4829706Y-12855746D02*
X4820182Y-12808127D01*
X4820182Y-12808127D02*
X4810658Y-12779555D01*
X4810658Y-12779555D02*
X4801134Y-12760508D01*
X4801134Y-12760508D02*
X4782087Y-12731936D01*
X4782087Y-12731936D02*
X4772563Y-12722412D01*
M02*
