%TF.GenerationSoftware,KiCad,Pcbnew,7.0.10*%
%TF.CreationDate,2024-06-08T14:33:01-05:00*%
%TF.ProjectId,viewer_rev2,76696577-6572-45f7-9265-76322e6b6963,rev?*%
%TF.SameCoordinates,PX62b48e0PY1ba8140*%
%TF.FileFunction,Copper,L2,Bot*%
%TF.FilePolarity,Positive*%
%FSLAX46Y46*%
G04 Gerber Fmt 4.6, Leading zero omitted, Abs format (unit mm)*
G04 Created by KiCad (PCBNEW 7.0.10) date 2024-06-08 14:33:01*
%MOMM*%
%LPD*%
G01*
G04 APERTURE LIST*
%TA.AperFunction,ComponentPad*%
%ADD10C,2.500000*%
%TD*%
%TA.AperFunction,ComponentPad*%
%ADD11C,5.600000*%
%TD*%
%TA.AperFunction,ComponentPad*%
%ADD12C,4.600000*%
%TD*%
%TA.AperFunction,ComponentPad*%
%ADD13C,1.800000*%
%TD*%
%TA.AperFunction,ComponentPad*%
%ADD14O,1.000000X2.100000*%
%TD*%
%TA.AperFunction,ComponentPad*%
%ADD15O,1.000000X1.800000*%
%TD*%
%TA.AperFunction,ViaPad*%
%ADD16C,0.600000*%
%TD*%
G04 APERTURE END LIST*
D10*
%TO.P,SW1,1,A*%
%TO.N,unconnected-(SW1-A-Pad1)*%
X40200000Y-96497500D03*
%TO.P,SW1,2,B*%
%TO.N,VCC*%
X35500000Y-96497500D03*
%TO.P,SW1,3,C*%
%TO.N,Net-(SW1-C)*%
X30800000Y-96497500D03*
%TO.P,SW1,4*%
%TO.N,N/C*%
X28895000Y-106027500D03*
X42105000Y-106027500D03*
%TD*%
D11*
%TO.P,H1,1*%
%TO.N,N/C*%
X4000000Y-4000000D03*
%TD*%
%TO.P,H2,1*%
%TO.N,N/C*%
X124000000Y-4000000D03*
%TD*%
D12*
%TO.P,RV1,*%
%TO.N,*%
X88250000Y-100700000D03*
X78250000Y-100700000D03*
D13*
%TO.P,RV1,1,1*%
%TO.N,Net-(D2-A)*%
X80750000Y-104000000D03*
%TO.P,RV1,2,2*%
%TO.N,Net-(U1-THR)*%
X83250000Y-104000000D03*
%TO.P,RV1,3,3*%
%TO.N,Net-(D1-K)*%
X85750000Y-104000000D03*
%TD*%
D11*
%TO.P,H4,1*%
%TO.N,N/C*%
X124000000Y-104000000D03*
%TD*%
D14*
%TO.P,J2,S1,SHIELD*%
%TO.N,GND*%
X15680000Y-101245000D03*
D15*
X15680000Y-105425000D03*
D14*
X24320000Y-101245000D03*
D15*
X24320000Y-105425000D03*
%TD*%
D11*
%TO.P,H3,1*%
%TO.N,N/C*%
X4000000Y-104000000D03*
%TD*%
D16*
%TO.N,GND*%
X55000000Y-97500000D03*
X56000000Y-98500000D03*
X23200000Y-99549988D03*
X59000000Y-99750000D03*
X56000000Y-97500000D03*
X60000000Y-97500000D03*
X16800000Y-99600000D03*
X55000000Y-98500000D03*
X58000000Y-99750000D03*
X62500000Y-98865000D03*
X60000000Y-99750000D03*
X68250000Y-104890000D03*
X20550000Y-97500000D03*
X24449996Y-97700000D03*
X67500000Y-106500000D03*
%TO.N,VCC*%
X48800000Y-75850000D03*
X111800000Y-21850000D03*
X57800000Y-57850000D03*
X30800000Y-21850000D03*
X48800000Y-57850000D03*
X93800000Y-21850000D03*
X93800000Y-39850000D03*
X48800000Y-21850000D03*
X12800000Y-48850000D03*
X84800000Y-39850000D03*
X111800000Y-84850000D03*
X30800000Y-66850000D03*
X21800000Y-84850000D03*
X102800000Y-57850000D03*
X30800000Y-84850000D03*
X111800000Y-57850000D03*
X75800000Y-48850000D03*
X30800000Y-30850000D03*
X39800000Y-66850000D03*
X39800000Y-48850000D03*
X12800000Y-84850000D03*
X57800000Y-75850000D03*
X102800000Y-84850000D03*
X57800000Y-39850000D03*
X75800000Y-57850000D03*
X75800000Y-39850000D03*
X66800000Y-48850000D03*
X84800000Y-84850000D03*
X66800000Y-57850000D03*
X48800000Y-84850000D03*
X30800000Y-48850000D03*
X66800000Y-75850000D03*
X57800000Y-30850000D03*
X75800000Y-75850000D03*
X93800000Y-48850000D03*
X102800000Y-21850000D03*
X93800000Y-84850000D03*
X57800000Y-21850000D03*
X21800000Y-48850000D03*
X48800000Y-30850000D03*
X84800000Y-66850000D03*
X39800000Y-30850000D03*
X102800000Y-39850000D03*
X66800000Y-30850000D03*
X12800000Y-30850000D03*
X84800000Y-75850000D03*
X39800000Y-57850000D03*
X66800000Y-66850000D03*
X21800000Y-57850000D03*
X57800000Y-48850000D03*
X75800000Y-84850000D03*
X48800000Y-66850000D03*
X21800000Y-39850000D03*
X21800000Y-66850000D03*
X39800000Y-84850000D03*
X102800000Y-75850000D03*
X30800000Y-75850000D03*
X102800000Y-48850000D03*
X66000000Y-93500000D03*
X75800000Y-30850000D03*
X39800000Y-39850000D03*
X65000000Y-93500000D03*
X84800000Y-21850000D03*
X66800000Y-21850000D03*
X12800000Y-75850000D03*
X75800000Y-21850000D03*
X57800000Y-66850000D03*
X21800000Y-75850000D03*
X111800000Y-48850000D03*
X93800000Y-57850000D03*
X84800000Y-57850000D03*
X102800000Y-30850000D03*
X66800000Y-39850000D03*
X93800000Y-75850000D03*
X111800000Y-75850000D03*
X111800000Y-39850000D03*
X93800000Y-66850000D03*
X12800000Y-39850000D03*
X111800000Y-66850000D03*
X12800000Y-66850000D03*
X66800000Y-84850000D03*
X84800000Y-30850000D03*
X102800000Y-66850000D03*
X111800000Y-30850000D03*
X39800000Y-21850000D03*
X39800000Y-75850000D03*
X48800000Y-48850000D03*
X57800000Y-84850000D03*
X67000000Y-93500000D03*
X21800000Y-21850000D03*
X75800000Y-66850000D03*
X48800000Y-39850000D03*
X30800000Y-39850000D03*
X12800000Y-57850000D03*
X12800000Y-21850000D03*
X93800000Y-30850000D03*
X84800000Y-48850000D03*
X68000000Y-93500000D03*
X30800000Y-57850000D03*
X21800000Y-30850000D03*
%TD*%
%TA.AperFunction,Conductor*%
%TO.N,VCC*%
G36*
X124002855Y-25632D02*
G01*
X124361004Y-42190D01*
X124372394Y-43246D01*
X124724645Y-92382D01*
X124735888Y-94484D01*
X125082103Y-175913D01*
X125093093Y-179040D01*
X125430337Y-292073D01*
X125440991Y-296201D01*
X125766352Y-439861D01*
X125776578Y-444953D01*
X126016703Y-578702D01*
X126087292Y-618020D01*
X126097030Y-624050D01*
X126390439Y-825041D01*
X126399579Y-831942D01*
X126673198Y-1059151D01*
X126681662Y-1066868D01*
X126933131Y-1318337D01*
X126940848Y-1326801D01*
X127168057Y-1600420D01*
X127174958Y-1609560D01*
X127375949Y-1902969D01*
X127381979Y-1912707D01*
X127555039Y-2223407D01*
X127560144Y-2233660D01*
X127703793Y-2558995D01*
X127707931Y-2569675D01*
X127820955Y-2906893D01*
X127824089Y-2917909D01*
X127905513Y-3264103D01*
X127907618Y-3275362D01*
X127956752Y-3627598D01*
X127957809Y-3639002D01*
X127974368Y-3997144D01*
X127974500Y-4002871D01*
X127974500Y-93876000D01*
X127954815Y-93943039D01*
X127902011Y-93988794D01*
X127850500Y-94000000D01*
X38000000Y-94000000D01*
X38000000Y-98876000D01*
X37980315Y-98943039D01*
X37927511Y-98988794D01*
X37876000Y-99000000D01*
X33624000Y-99000000D01*
X33556961Y-98980315D01*
X33511206Y-98927511D01*
X33500000Y-98876000D01*
X33500000Y-96497505D01*
X34045031Y-96497505D01*
X34064874Y-96736976D01*
X34123865Y-96969928D01*
X34220392Y-97189988D01*
X34312687Y-97331257D01*
X34690473Y-96953471D01*
X34694514Y-96962547D01*
X34808805Y-97119855D01*
X34953304Y-97249963D01*
X35046995Y-97304055D01*
X34665572Y-97685479D01*
X34704208Y-97715551D01*
X34915544Y-97829921D01*
X34915550Y-97829923D01*
X35142823Y-97907946D01*
X35379851Y-97947500D01*
X35620149Y-97947500D01*
X35857176Y-97907946D01*
X36084449Y-97829923D01*
X36084455Y-97829921D01*
X36295794Y-97715549D01*
X36295795Y-97715548D01*
X36334426Y-97685480D01*
X36334427Y-97685479D01*
X35953003Y-97304056D01*
X36046696Y-97249963D01*
X36191195Y-97119855D01*
X36305486Y-96962548D01*
X36309525Y-96953473D01*
X36687310Y-97331258D01*
X36779608Y-97189985D01*
X36876134Y-96969928D01*
X36935125Y-96736976D01*
X36954969Y-96497505D01*
X36954969Y-96497494D01*
X36935125Y-96258023D01*
X36876134Y-96025071D01*
X36779607Y-95805011D01*
X36687310Y-95663740D01*
X36309525Y-96041525D01*
X36305486Y-96032453D01*
X36191195Y-95875145D01*
X36046696Y-95745037D01*
X35953002Y-95690943D01*
X36334426Y-95309519D01*
X36334426Y-95309517D01*
X36295801Y-95279454D01*
X36295795Y-95279450D01*
X36084455Y-95165078D01*
X36084449Y-95165076D01*
X35857176Y-95087053D01*
X35620149Y-95047500D01*
X35379851Y-95047500D01*
X35142823Y-95087053D01*
X34915550Y-95165076D01*
X34915544Y-95165078D01*
X34704209Y-95279448D01*
X34665571Y-95309519D01*
X35046996Y-95690943D01*
X34953304Y-95745037D01*
X34808805Y-95875145D01*
X34694514Y-96032452D01*
X34690473Y-96041526D01*
X34312688Y-95663741D01*
X34220392Y-95805011D01*
X34123865Y-96025071D01*
X34064874Y-96258023D01*
X34045031Y-96497494D01*
X34045031Y-96497505D01*
X33500000Y-96497505D01*
X33500000Y-94000000D01*
X149500Y-94000000D01*
X82461Y-93980315D01*
X36706Y-93927511D01*
X25500Y-93876000D01*
X25500Y-4002871D01*
X25566Y-4000002D01*
X694652Y-4000002D01*
X714028Y-4357368D01*
X714029Y-4357385D01*
X771926Y-4710539D01*
X771932Y-4710565D01*
X867672Y-5055392D01*
X867674Y-5055399D01*
X1000142Y-5387870D01*
X1000151Y-5387888D01*
X1167784Y-5704077D01*
X1167790Y-5704086D01*
X1368634Y-6000309D01*
X1368641Y-6000319D01*
X1600331Y-6273085D01*
X1600332Y-6273086D01*
X1860163Y-6519211D01*
X2145081Y-6735800D01*
X2451747Y-6920315D01*
X2451749Y-6920316D01*
X2451751Y-6920317D01*
X2451755Y-6920319D01*
X2776552Y-7070585D01*
X2776565Y-7070591D01*
X3115726Y-7184868D01*
X3465254Y-7261805D01*
X3821052Y-7300500D01*
X3821058Y-7300500D01*
X4178942Y-7300500D01*
X4178948Y-7300500D01*
X4534746Y-7261805D01*
X4884274Y-7184868D01*
X5223435Y-7070591D01*
X5548253Y-6920315D01*
X5854919Y-6735800D01*
X6139837Y-6519211D01*
X6399668Y-6273086D01*
X6631365Y-6000311D01*
X6832211Y-5704085D01*
X6999853Y-5387880D01*
X7132324Y-5055403D01*
X7228071Y-4710552D01*
X7285972Y-4357371D01*
X7305348Y-4000002D01*
X120694652Y-4000002D01*
X120714028Y-4357368D01*
X120714029Y-4357385D01*
X120771926Y-4710539D01*
X120771932Y-4710565D01*
X120867672Y-5055392D01*
X120867674Y-5055399D01*
X121000142Y-5387870D01*
X121000151Y-5387888D01*
X121167784Y-5704077D01*
X121167790Y-5704086D01*
X121368634Y-6000309D01*
X121368641Y-6000319D01*
X121600331Y-6273085D01*
X121600332Y-6273086D01*
X121860163Y-6519211D01*
X122145081Y-6735800D01*
X122451747Y-6920315D01*
X122451749Y-6920316D01*
X122451751Y-6920317D01*
X122451755Y-6920319D01*
X122776552Y-7070585D01*
X122776565Y-7070591D01*
X123115726Y-7184868D01*
X123465254Y-7261805D01*
X123821052Y-7300500D01*
X123821058Y-7300500D01*
X124178942Y-7300500D01*
X124178948Y-7300500D01*
X124534746Y-7261805D01*
X124884274Y-7184868D01*
X125223435Y-7070591D01*
X125548253Y-6920315D01*
X125854919Y-6735800D01*
X126139837Y-6519211D01*
X126399668Y-6273086D01*
X126631365Y-6000311D01*
X126832211Y-5704085D01*
X126999853Y-5387880D01*
X127132324Y-5055403D01*
X127228071Y-4710552D01*
X127285972Y-4357371D01*
X127305348Y-4000000D01*
X127285972Y-3642629D01*
X127285377Y-3639002D01*
X127228073Y-3289460D01*
X127228072Y-3289459D01*
X127228071Y-3289448D01*
X127195931Y-3173690D01*
X127132327Y-2944607D01*
X127132325Y-2944600D01*
X127121690Y-2917909D01*
X126999853Y-2612120D01*
X126832211Y-2295915D01*
X126631365Y-1999689D01*
X126631361Y-1999684D01*
X126631358Y-1999680D01*
X126399668Y-1726914D01*
X126395127Y-1722613D01*
X126139837Y-1480789D01*
X126139830Y-1480783D01*
X126139827Y-1480781D01*
X126067204Y-1425575D01*
X125854919Y-1264200D01*
X125548253Y-1079685D01*
X125548252Y-1079684D01*
X125548248Y-1079682D01*
X125548244Y-1079680D01*
X125223447Y-929414D01*
X125223441Y-929411D01*
X125223435Y-929409D01*
X125053854Y-872270D01*
X124884273Y-815131D01*
X124534744Y-738194D01*
X124178949Y-699500D01*
X124178948Y-699500D01*
X123821052Y-699500D01*
X123821050Y-699500D01*
X123465255Y-738194D01*
X123115726Y-815131D01*
X122864625Y-899738D01*
X122776565Y-929409D01*
X122776563Y-929410D01*
X122776552Y-929414D01*
X122451755Y-1079680D01*
X122451751Y-1079682D01*
X122334050Y-1150501D01*
X122145081Y-1264200D01*
X122073865Y-1318337D01*
X121860172Y-1480781D01*
X121860163Y-1480789D01*
X121600331Y-1726914D01*
X121368641Y-1999680D01*
X121368634Y-1999690D01*
X121167790Y-2295913D01*
X121167784Y-2295922D01*
X121000151Y-2612111D01*
X121000142Y-2612129D01*
X120867674Y-2944600D01*
X120867672Y-2944607D01*
X120771932Y-3289434D01*
X120771926Y-3289460D01*
X120714029Y-3642614D01*
X120714028Y-3642631D01*
X120694652Y-3999997D01*
X120694652Y-4000002D01*
X7305348Y-4000002D01*
X7305348Y-4000000D01*
X7285972Y-3642629D01*
X7285377Y-3639002D01*
X7228073Y-3289460D01*
X7228072Y-3289459D01*
X7228071Y-3289448D01*
X7195931Y-3173690D01*
X7132327Y-2944607D01*
X7132325Y-2944600D01*
X7121690Y-2917909D01*
X6999853Y-2612120D01*
X6832211Y-2295915D01*
X6631365Y-1999689D01*
X6631361Y-1999684D01*
X6631358Y-1999680D01*
X6399668Y-1726914D01*
X6395127Y-1722613D01*
X6139837Y-1480789D01*
X6139830Y-1480783D01*
X6139827Y-1480781D01*
X6067204Y-1425575D01*
X5854919Y-1264200D01*
X5548253Y-1079685D01*
X5548252Y-1079684D01*
X5548248Y-1079682D01*
X5548244Y-1079680D01*
X5223447Y-929414D01*
X5223441Y-929411D01*
X5223435Y-929409D01*
X5053854Y-872270D01*
X4884273Y-815131D01*
X4534744Y-738194D01*
X4178949Y-699500D01*
X4178948Y-699500D01*
X3821052Y-699500D01*
X3821050Y-699500D01*
X3465255Y-738194D01*
X3115726Y-815131D01*
X2864625Y-899738D01*
X2776565Y-929409D01*
X2776563Y-929410D01*
X2776552Y-929414D01*
X2451755Y-1079680D01*
X2451751Y-1079682D01*
X2334050Y-1150501D01*
X2145081Y-1264200D01*
X2073865Y-1318337D01*
X1860172Y-1480781D01*
X1860163Y-1480789D01*
X1600331Y-1726914D01*
X1368641Y-1999680D01*
X1368634Y-1999690D01*
X1167790Y-2295913D01*
X1167784Y-2295922D01*
X1000151Y-2612111D01*
X1000142Y-2612129D01*
X867674Y-2944600D01*
X867672Y-2944607D01*
X771932Y-3289434D01*
X771926Y-3289460D01*
X714029Y-3642614D01*
X714028Y-3642631D01*
X694652Y-3999997D01*
X694652Y-4000002D01*
X25566Y-4000002D01*
X25632Y-3997144D01*
X25734Y-3994928D01*
X42190Y-3638993D01*
X43247Y-3627598D01*
X68961Y-3443258D01*
X92383Y-3275350D01*
X94483Y-3264115D01*
X175915Y-2917891D01*
X179038Y-2906911D01*
X292075Y-2569654D01*
X296198Y-2559015D01*
X439865Y-2233638D01*
X444948Y-2223429D01*
X618023Y-1912701D01*
X624050Y-1902969D01*
X825041Y-1609560D01*
X831942Y-1600420D01*
X931282Y-1480789D01*
X1059161Y-1326789D01*
X1066857Y-1318348D01*
X1318348Y-1066857D01*
X1326789Y-1059161D01*
X1600422Y-831940D01*
X1609560Y-825041D01*
X1902969Y-624050D01*
X1912701Y-618023D01*
X2223429Y-444948D01*
X2233638Y-439865D01*
X2559015Y-296198D01*
X2569654Y-292075D01*
X2906911Y-179038D01*
X2917891Y-175915D01*
X3264115Y-94483D01*
X3275350Y-92383D01*
X3627607Y-43246D01*
X3638993Y-42190D01*
X3997145Y-25632D01*
X4002872Y-25500D01*
X4008285Y-25500D01*
X123991715Y-25500D01*
X123997128Y-25500D01*
X124002855Y-25632D01*
G37*
%TD.AperFunction*%
%TD*%
%TA.AperFunction,Conductor*%
%TO.N,GND*%
G36*
X28443039Y-95019685D02*
G01*
X28488794Y-95072489D01*
X28500000Y-95124000D01*
X28500000Y-100000000D01*
X42500000Y-100000000D01*
X42500000Y-95624000D01*
X42519685Y-95556961D01*
X42572489Y-95511206D01*
X42624000Y-95500000D01*
X127850500Y-95500000D01*
X127917539Y-95519685D01*
X127963294Y-95572489D01*
X127974500Y-95624000D01*
X127974500Y-103997128D01*
X127974368Y-104002855D01*
X127957809Y-104360997D01*
X127956752Y-104372401D01*
X127907618Y-104724637D01*
X127905513Y-104735896D01*
X127824089Y-105082090D01*
X127820955Y-105093106D01*
X127707931Y-105430324D01*
X127703793Y-105441004D01*
X127560144Y-105766339D01*
X127555039Y-105776592D01*
X127381979Y-106087292D01*
X127375949Y-106097030D01*
X127174958Y-106390439D01*
X127168057Y-106399579D01*
X126940848Y-106673198D01*
X126933131Y-106681662D01*
X126681662Y-106933131D01*
X126673198Y-106940848D01*
X126399579Y-107168057D01*
X126390439Y-107174958D01*
X126097030Y-107375949D01*
X126087292Y-107381979D01*
X125776592Y-107555039D01*
X125766339Y-107560144D01*
X125441004Y-107703793D01*
X125430324Y-107707931D01*
X125093106Y-107820955D01*
X125082090Y-107824089D01*
X124735896Y-107905513D01*
X124724637Y-107907618D01*
X124372401Y-107956752D01*
X124360997Y-107957809D01*
X124002855Y-107974368D01*
X123997128Y-107974500D01*
X42554493Y-107974500D01*
X42487454Y-107954815D01*
X42441699Y-107902011D01*
X42431755Y-107832853D01*
X42460780Y-107769297D01*
X42517943Y-107732009D01*
X42596001Y-107707931D01*
X42746323Y-107661563D01*
X42982704Y-107547728D01*
X43199479Y-107399933D01*
X43391805Y-107221481D01*
X43555386Y-107016357D01*
X43686568Y-106789143D01*
X43782420Y-106544916D01*
X43840802Y-106289130D01*
X43841682Y-106277387D01*
X43860408Y-106027504D01*
X43860408Y-106027495D01*
X43840803Y-105765879D01*
X43840802Y-105765874D01*
X43840802Y-105765870D01*
X43782420Y-105510084D01*
X43686568Y-105265857D01*
X43555386Y-105038643D01*
X43391805Y-104833519D01*
X43391804Y-104833518D01*
X43391801Y-104833514D01*
X43199479Y-104655067D01*
X43172626Y-104636759D01*
X42982704Y-104507272D01*
X42982700Y-104507270D01*
X42982697Y-104507268D01*
X42982696Y-104507267D01*
X42746325Y-104393438D01*
X42746327Y-104393438D01*
X42495623Y-104316106D01*
X42495619Y-104316105D01*
X42495615Y-104316104D01*
X42365341Y-104296468D01*
X42236187Y-104277000D01*
X42236182Y-104277000D01*
X41973818Y-104277000D01*
X41973812Y-104277000D01*
X41812247Y-104301353D01*
X41714385Y-104316104D01*
X41714382Y-104316105D01*
X41714376Y-104316106D01*
X41463673Y-104393438D01*
X41227303Y-104507267D01*
X41227302Y-104507268D01*
X41010520Y-104655067D01*
X40818198Y-104833514D01*
X40654614Y-105038643D01*
X40523432Y-105265856D01*
X40427582Y-105510078D01*
X40427576Y-105510097D01*
X40369197Y-105765874D01*
X40369196Y-105765879D01*
X40349592Y-106027495D01*
X40349592Y-106027504D01*
X40369196Y-106289120D01*
X40369197Y-106289125D01*
X40369197Y-106289129D01*
X40369198Y-106289130D01*
X40377914Y-106327318D01*
X40427576Y-106544902D01*
X40427578Y-106544911D01*
X40427580Y-106544916D01*
X40523432Y-106789143D01*
X40654614Y-107016357D01*
X40721526Y-107100262D01*
X40818198Y-107221485D01*
X40903356Y-107300499D01*
X41010521Y-107399933D01*
X41227296Y-107547728D01*
X41227301Y-107547730D01*
X41227302Y-107547731D01*
X41227303Y-107547732D01*
X41352843Y-107608188D01*
X41463673Y-107661561D01*
X41463674Y-107661561D01*
X41463677Y-107661563D01*
X41600584Y-107703793D01*
X41692057Y-107732009D01*
X41750316Y-107770579D01*
X41778474Y-107834524D01*
X41767590Y-107903541D01*
X41721121Y-107955718D01*
X41655507Y-107974500D01*
X29344493Y-107974500D01*
X29277454Y-107954815D01*
X29231699Y-107902011D01*
X29221755Y-107832853D01*
X29250780Y-107769297D01*
X29307943Y-107732009D01*
X29386001Y-107707931D01*
X29536323Y-107661563D01*
X29772704Y-107547728D01*
X29989479Y-107399933D01*
X30181805Y-107221481D01*
X30345386Y-107016357D01*
X30476568Y-106789143D01*
X30572420Y-106544916D01*
X30630802Y-106289130D01*
X30631682Y-106277387D01*
X30650408Y-106027504D01*
X30650408Y-106027495D01*
X30630803Y-105765879D01*
X30630802Y-105765874D01*
X30630802Y-105765870D01*
X30572420Y-105510084D01*
X30476568Y-105265857D01*
X30345386Y-105038643D01*
X30181805Y-104833519D01*
X30181804Y-104833518D01*
X30181801Y-104833514D01*
X29989479Y-104655067D01*
X29962626Y-104636759D01*
X29772704Y-104507272D01*
X29772700Y-104507270D01*
X29772697Y-104507268D01*
X29772696Y-104507267D01*
X29536325Y-104393438D01*
X29536327Y-104393438D01*
X29285623Y-104316106D01*
X29285619Y-104316105D01*
X29285615Y-104316104D01*
X29155341Y-104296468D01*
X29026187Y-104277000D01*
X29026182Y-104277000D01*
X28763818Y-104277000D01*
X28763812Y-104277000D01*
X28602247Y-104301353D01*
X28504385Y-104316104D01*
X28504382Y-104316105D01*
X28504376Y-104316106D01*
X28253673Y-104393438D01*
X28017303Y-104507267D01*
X28017302Y-104507268D01*
X27800520Y-104655067D01*
X27608198Y-104833514D01*
X27444614Y-105038643D01*
X27313432Y-105265856D01*
X27217582Y-105510078D01*
X27217576Y-105510097D01*
X27159197Y-105765874D01*
X27159196Y-105765879D01*
X27139592Y-106027495D01*
X27139592Y-106027504D01*
X27159196Y-106289120D01*
X27159197Y-106289125D01*
X27159197Y-106289129D01*
X27159198Y-106289130D01*
X27167914Y-106327318D01*
X27217576Y-106544902D01*
X27217578Y-106544911D01*
X27217580Y-106544916D01*
X27313432Y-106789143D01*
X27444614Y-107016357D01*
X27511526Y-107100262D01*
X27608198Y-107221485D01*
X27693356Y-107300499D01*
X27800521Y-107399933D01*
X28017296Y-107547728D01*
X28017301Y-107547730D01*
X28017302Y-107547731D01*
X28017303Y-107547732D01*
X28142843Y-107608188D01*
X28253673Y-107661561D01*
X28253674Y-107661561D01*
X28253677Y-107661563D01*
X28390584Y-107703793D01*
X28482057Y-107732009D01*
X28540316Y-107770579D01*
X28568474Y-107834524D01*
X28557590Y-107903541D01*
X28511121Y-107955718D01*
X28445507Y-107974500D01*
X4002872Y-107974500D01*
X3997145Y-107974368D01*
X3639002Y-107957809D01*
X3627598Y-107956752D01*
X3275362Y-107907618D01*
X3264103Y-107905513D01*
X2917909Y-107824089D01*
X2906893Y-107820955D01*
X2569675Y-107707931D01*
X2558995Y-107703793D01*
X2463353Y-107661563D01*
X2233655Y-107560141D01*
X2223412Y-107555041D01*
X2121339Y-107498187D01*
X1912707Y-107381979D01*
X1902969Y-107375949D01*
X1609560Y-107174958D01*
X1600420Y-107168057D01*
X1326801Y-106940848D01*
X1318337Y-106933131D01*
X1066868Y-106681662D01*
X1059151Y-106673198D01*
X831942Y-106399579D01*
X825041Y-106390439D01*
X624050Y-106097030D01*
X618020Y-106087292D01*
X503160Y-105881080D01*
X444953Y-105776578D01*
X439861Y-105766352D01*
X296201Y-105440991D01*
X292073Y-105430337D01*
X179040Y-105093093D01*
X175913Y-105082103D01*
X94484Y-104735888D01*
X92381Y-104724637D01*
X91888Y-104721105D01*
X43246Y-104372394D01*
X42190Y-104360997D01*
X42022Y-104357371D01*
X25632Y-104002855D01*
X25566Y-104000000D01*
X694652Y-104000000D01*
X709670Y-104277000D01*
X714028Y-104357368D01*
X714029Y-104357385D01*
X771926Y-104710539D01*
X771932Y-104710565D01*
X867672Y-105055392D01*
X867674Y-105055399D01*
X1000142Y-105387870D01*
X1000151Y-105387888D01*
X1167784Y-105704077D01*
X1167787Y-105704082D01*
X1167789Y-105704085D01*
X1358705Y-105985666D01*
X1368634Y-106000309D01*
X1368641Y-106000319D01*
X1475317Y-106125907D01*
X1600332Y-106273086D01*
X1860163Y-106519211D01*
X2145081Y-106735800D01*
X2451747Y-106920315D01*
X2451749Y-106920316D01*
X2451751Y-106920317D01*
X2451755Y-106920319D01*
X2659337Y-107016356D01*
X2776565Y-107070591D01*
X3115726Y-107184868D01*
X3465254Y-107261805D01*
X3821052Y-107300500D01*
X3821058Y-107300500D01*
X4178942Y-107300500D01*
X4178948Y-107300500D01*
X4534746Y-107261805D01*
X4884274Y-107184868D01*
X5223435Y-107070591D01*
X5548253Y-106920315D01*
X5854919Y-106735800D01*
X6139837Y-106519211D01*
X6399668Y-106273086D01*
X6631365Y-106000311D01*
X6715844Y-105875713D01*
X14680000Y-105875713D01*
X14695418Y-106027338D01*
X14756299Y-106221381D01*
X14756304Y-106221391D01*
X14855005Y-106399215D01*
X14855005Y-106399216D01*
X14987478Y-106553530D01*
X14987479Y-106553531D01*
X15148304Y-106678018D01*
X15330907Y-106767589D01*
X15430000Y-106793244D01*
X15430000Y-105991110D01*
X15454457Y-106030610D01*
X15543962Y-106098201D01*
X15651840Y-106128895D01*
X15763521Y-106118546D01*
X15863922Y-106068552D01*
X15930000Y-105996069D01*
X15930000Y-106798365D01*
X15931944Y-106798069D01*
X15931945Y-106798069D01*
X16122660Y-106727436D01*
X16122664Y-106727434D01*
X16295267Y-106619850D01*
X16442668Y-106479735D01*
X16442669Y-106479733D01*
X16558856Y-106312804D01*
X16639059Y-106125907D01*
X16680000Y-105926690D01*
X16680000Y-105875713D01*
X23320000Y-105875713D01*
X23335418Y-106027338D01*
X23396299Y-106221381D01*
X23396304Y-106221391D01*
X23495005Y-106399215D01*
X23495005Y-106399216D01*
X23627478Y-106553530D01*
X23627479Y-106553531D01*
X23788304Y-106678018D01*
X23970907Y-106767589D01*
X24070000Y-106793244D01*
X24070000Y-105991110D01*
X24094457Y-106030610D01*
X24183962Y-106098201D01*
X24291840Y-106128895D01*
X24403521Y-106118546D01*
X24503922Y-106068552D01*
X24570000Y-105996069D01*
X24570000Y-106798365D01*
X24571944Y-106798069D01*
X24571945Y-106798069D01*
X24762660Y-106727436D01*
X24762664Y-106727434D01*
X24935267Y-106619850D01*
X25082668Y-106479735D01*
X25082669Y-106479733D01*
X25198856Y-106312804D01*
X25279059Y-106125907D01*
X25320000Y-105926690D01*
X25320000Y-105675000D01*
X24620000Y-105675000D01*
X24620000Y-105175000D01*
X25320000Y-105175000D01*
X25320000Y-104974286D01*
X25304581Y-104822661D01*
X25243700Y-104628618D01*
X25243695Y-104628608D01*
X25144994Y-104450784D01*
X25144994Y-104450783D01*
X25012521Y-104296469D01*
X25012520Y-104296468D01*
X24851695Y-104171981D01*
X24669093Y-104082411D01*
X24570000Y-104056753D01*
X24570000Y-104858889D01*
X24545543Y-104819390D01*
X24456038Y-104751799D01*
X24348160Y-104721105D01*
X24236479Y-104731454D01*
X24136078Y-104781448D01*
X24070000Y-104853930D01*
X24070000Y-104051633D01*
X24068053Y-104051931D01*
X24068047Y-104051933D01*
X23877342Y-104122562D01*
X23877335Y-104122565D01*
X23704732Y-104230149D01*
X23557331Y-104370264D01*
X23557330Y-104370266D01*
X23441143Y-104537195D01*
X23360940Y-104724092D01*
X23320000Y-104923309D01*
X23320000Y-105175000D01*
X24020000Y-105175000D01*
X24020000Y-105675000D01*
X23320000Y-105675000D01*
X23320000Y-105875713D01*
X16680000Y-105875713D01*
X16680000Y-105675000D01*
X15980000Y-105675000D01*
X15980000Y-105175000D01*
X16680000Y-105175000D01*
X16680000Y-104974286D01*
X16664581Y-104822661D01*
X16603700Y-104628618D01*
X16603695Y-104628608D01*
X16504994Y-104450784D01*
X16504994Y-104450783D01*
X16372521Y-104296469D01*
X16372520Y-104296468D01*
X16211695Y-104171981D01*
X16029093Y-104082411D01*
X15930000Y-104056753D01*
X15930000Y-104858889D01*
X15905543Y-104819390D01*
X15816038Y-104751799D01*
X15708160Y-104721105D01*
X15596479Y-104731454D01*
X15496078Y-104781448D01*
X15430000Y-104853930D01*
X15430000Y-104051633D01*
X15428053Y-104051931D01*
X15428047Y-104051933D01*
X15237342Y-104122562D01*
X15237335Y-104122565D01*
X15064732Y-104230149D01*
X14917331Y-104370264D01*
X14917330Y-104370266D01*
X14801143Y-104537195D01*
X14720940Y-104724092D01*
X14680000Y-104923309D01*
X14680000Y-105175000D01*
X15380000Y-105175000D01*
X15380000Y-105675000D01*
X14680000Y-105675000D01*
X14680000Y-105875713D01*
X6715844Y-105875713D01*
X6832211Y-105704085D01*
X6999853Y-105387880D01*
X7132324Y-105055403D01*
X7228071Y-104710552D01*
X7261398Y-104507267D01*
X7285970Y-104357385D01*
X7285970Y-104357382D01*
X7285972Y-104357371D01*
X7305348Y-104000000D01*
X7285972Y-103642629D01*
X7269753Y-103543700D01*
X7228073Y-103289460D01*
X7228072Y-103289459D01*
X7228071Y-103289448D01*
X7132324Y-102944597D01*
X7084087Y-102823531D01*
X6999857Y-102612129D01*
X6999848Y-102612111D01*
X6990207Y-102593927D01*
X6913762Y-102449735D01*
X6832215Y-102295922D01*
X6832213Y-102295919D01*
X6832211Y-102295915D01*
X6631365Y-101999689D01*
X6631361Y-101999684D01*
X6631358Y-101999680D01*
X6500577Y-101845713D01*
X14680000Y-101845713D01*
X14695418Y-101997338D01*
X14756299Y-102191381D01*
X14756304Y-102191391D01*
X14855005Y-102369215D01*
X14855005Y-102369216D01*
X14987478Y-102523530D01*
X14987479Y-102523531D01*
X15148304Y-102648018D01*
X15330907Y-102737589D01*
X15430000Y-102763244D01*
X15430000Y-101961110D01*
X15454457Y-102000610D01*
X15543962Y-102068201D01*
X15651840Y-102098895D01*
X15763521Y-102088546D01*
X15863922Y-102038552D01*
X15930000Y-101966069D01*
X15930000Y-102768365D01*
X15931944Y-102768069D01*
X15931945Y-102768069D01*
X16122660Y-102697436D01*
X16122664Y-102697434D01*
X16295267Y-102589850D01*
X16442668Y-102449735D01*
X16442669Y-102449733D01*
X16558856Y-102282804D01*
X16570293Y-102256152D01*
X16614818Y-102202307D01*
X16681386Y-102181082D01*
X16748862Y-102199216D01*
X16759731Y-102206673D01*
X16800366Y-102237853D01*
X16817750Y-102251192D01*
X16958720Y-102309584D01*
X17015370Y-102317042D01*
X17072019Y-102324500D01*
X17072020Y-102324500D01*
X17147981Y-102324500D01*
X17185746Y-102319528D01*
X17261280Y-102309584D01*
X17402250Y-102251192D01*
X17523304Y-102158304D01*
X17616192Y-102037250D01*
X17674584Y-101896280D01*
X17694500Y-101745001D01*
X22305500Y-101745001D01*
X22325415Y-101896278D01*
X22325416Y-101896280D01*
X22383806Y-102037247D01*
X22383807Y-102037249D01*
X22383808Y-102037250D01*
X22476696Y-102158304D01*
X22597750Y-102251192D01*
X22738720Y-102309584D01*
X22795370Y-102317042D01*
X22852019Y-102324500D01*
X22852020Y-102324500D01*
X22927981Y-102324500D01*
X22965746Y-102319528D01*
X23041280Y-102309584D01*
X23182250Y-102251192D01*
X23241542Y-102205695D01*
X23306707Y-102180502D01*
X23375152Y-102194540D01*
X23425143Y-102243353D01*
X23425445Y-102243894D01*
X23495004Y-102369215D01*
X23495005Y-102369216D01*
X23627478Y-102523530D01*
X23627479Y-102523531D01*
X23788304Y-102648018D01*
X23970907Y-102737589D01*
X24070000Y-102763244D01*
X24070000Y-101961110D01*
X24094457Y-102000610D01*
X24183962Y-102068201D01*
X24291840Y-102098895D01*
X24403521Y-102088546D01*
X24503922Y-102038552D01*
X24570000Y-101966069D01*
X24570000Y-102768365D01*
X24571944Y-102768069D01*
X24571945Y-102768069D01*
X24762660Y-102697436D01*
X24762664Y-102697434D01*
X24935267Y-102589850D01*
X25082668Y-102449735D01*
X25082669Y-102449733D01*
X25198856Y-102282804D01*
X25279059Y-102095907D01*
X25320000Y-101896690D01*
X25320000Y-101495000D01*
X24620000Y-101495000D01*
X24620000Y-100995000D01*
X25320000Y-100995000D01*
X25320000Y-100700003D01*
X75444754Y-100700003D01*
X75463722Y-101025669D01*
X75463723Y-101025680D01*
X75520367Y-101346924D01*
X75520369Y-101346932D01*
X75613931Y-101659452D01*
X75743137Y-101958983D01*
X75743143Y-101958996D01*
X75906251Y-102241509D01*
X76101045Y-102503162D01*
X76101050Y-102503168D01*
X76101057Y-102503177D01*
X76324923Y-102740462D01*
X76324929Y-102740467D01*
X76324930Y-102740468D01*
X76324931Y-102740469D01*
X76574815Y-102950147D01*
X76574818Y-102950149D01*
X76574823Y-102950153D01*
X76847377Y-103129414D01*
X77138899Y-103275822D01*
X77445446Y-103387396D01*
X77445452Y-103387397D01*
X77445454Y-103387398D01*
X77762858Y-103462625D01*
X77762865Y-103462626D01*
X77762874Y-103462628D01*
X78086889Y-103500500D01*
X78086896Y-103500500D01*
X78413104Y-103500500D01*
X78413111Y-103500500D01*
X78737126Y-103462628D01*
X78737135Y-103462625D01*
X78737141Y-103462625D01*
X79046385Y-103389332D01*
X79054554Y-103387396D01*
X79299601Y-103298205D01*
X79369328Y-103293775D01*
X79430384Y-103327745D01*
X79463381Y-103389332D01*
X79457844Y-103458982D01*
X79455566Y-103464538D01*
X79420843Y-103543699D01*
X79363866Y-103768691D01*
X79363864Y-103768702D01*
X79344700Y-103999993D01*
X79344700Y-104000006D01*
X79363864Y-104231297D01*
X79363866Y-104231308D01*
X79420842Y-104456300D01*
X79514075Y-104668848D01*
X79641016Y-104863147D01*
X79641019Y-104863151D01*
X79641021Y-104863153D01*
X79798216Y-105033913D01*
X79798219Y-105033915D01*
X79798222Y-105033918D01*
X79981365Y-105176464D01*
X79981371Y-105176468D01*
X79981374Y-105176470D01*
X80185497Y-105286936D01*
X80299487Y-105326068D01*
X80405015Y-105362297D01*
X80405017Y-105362297D01*
X80405019Y-105362298D01*
X80633951Y-105400500D01*
X80633952Y-105400500D01*
X80866048Y-105400500D01*
X80866049Y-105400500D01*
X81094981Y-105362298D01*
X81314503Y-105286936D01*
X81518626Y-105176470D01*
X81701784Y-105033913D01*
X81858979Y-104863153D01*
X81896191Y-104806196D01*
X81949337Y-104760839D01*
X82018569Y-104751415D01*
X82081904Y-104780917D01*
X82103809Y-104806196D01*
X82141016Y-104863147D01*
X82141019Y-104863151D01*
X82141021Y-104863153D01*
X82298216Y-105033913D01*
X82298219Y-105033915D01*
X82298222Y-105033918D01*
X82481365Y-105176464D01*
X82481371Y-105176468D01*
X82481374Y-105176470D01*
X82685497Y-105286936D01*
X82799487Y-105326068D01*
X82905015Y-105362297D01*
X82905017Y-105362297D01*
X82905019Y-105362298D01*
X83133951Y-105400500D01*
X83133952Y-105400500D01*
X83366048Y-105400500D01*
X83366049Y-105400500D01*
X83594981Y-105362298D01*
X83814503Y-105286936D01*
X84018626Y-105176470D01*
X84201784Y-105033913D01*
X84358979Y-104863153D01*
X84396191Y-104806196D01*
X84449337Y-104760839D01*
X84518569Y-104751415D01*
X84581904Y-104780917D01*
X84603809Y-104806196D01*
X84641016Y-104863147D01*
X84641019Y-104863151D01*
X84641021Y-104863153D01*
X84798216Y-105033913D01*
X84798219Y-105033915D01*
X84798222Y-105033918D01*
X84981365Y-105176464D01*
X84981371Y-105176468D01*
X84981374Y-105176470D01*
X85185497Y-105286936D01*
X85299487Y-105326068D01*
X85405015Y-105362297D01*
X85405017Y-105362297D01*
X85405019Y-105362298D01*
X85633951Y-105400500D01*
X85633952Y-105400500D01*
X85866048Y-105400500D01*
X85866049Y-105400500D01*
X86094981Y-105362298D01*
X86314503Y-105286936D01*
X86518626Y-105176470D01*
X86701784Y-105033913D01*
X86858979Y-104863153D01*
X86985924Y-104668849D01*
X87079157Y-104456300D01*
X87136134Y-104231305D01*
X87141050Y-104171981D01*
X87155300Y-104000006D01*
X87155300Y-104000000D01*
X120694652Y-104000000D01*
X120709670Y-104277000D01*
X120714028Y-104357368D01*
X120714029Y-104357385D01*
X120771926Y-104710539D01*
X120771932Y-104710565D01*
X120867672Y-105055392D01*
X120867674Y-105055399D01*
X121000142Y-105387870D01*
X121000151Y-105387888D01*
X121167784Y-105704077D01*
X121167787Y-105704082D01*
X121167789Y-105704085D01*
X121358705Y-105985666D01*
X121368634Y-106000309D01*
X121368641Y-106000319D01*
X121475317Y-106125907D01*
X121600332Y-106273086D01*
X121860163Y-106519211D01*
X122145081Y-106735800D01*
X122451747Y-106920315D01*
X122451749Y-106920316D01*
X122451751Y-106920317D01*
X122451755Y-106920319D01*
X122659337Y-107016356D01*
X122776565Y-107070591D01*
X123115726Y-107184868D01*
X123465254Y-107261805D01*
X123821052Y-107300500D01*
X123821058Y-107300500D01*
X124178942Y-107300500D01*
X124178948Y-107300500D01*
X124534746Y-107261805D01*
X124884274Y-107184868D01*
X125223435Y-107070591D01*
X125548253Y-106920315D01*
X125854919Y-106735800D01*
X126139837Y-106519211D01*
X126399668Y-106273086D01*
X126631365Y-106000311D01*
X126832211Y-105704085D01*
X126999853Y-105387880D01*
X127132324Y-105055403D01*
X127228071Y-104710552D01*
X127261398Y-104507267D01*
X127285970Y-104357385D01*
X127285970Y-104357382D01*
X127285972Y-104357371D01*
X127305348Y-104000000D01*
X127285972Y-103642629D01*
X127269753Y-103543700D01*
X127228073Y-103289460D01*
X127228072Y-103289459D01*
X127228071Y-103289448D01*
X127132324Y-102944597D01*
X127084087Y-102823531D01*
X126999857Y-102612129D01*
X126999848Y-102612111D01*
X126990207Y-102593927D01*
X126913762Y-102449735D01*
X126832215Y-102295922D01*
X126832213Y-102295919D01*
X126832211Y-102295915D01*
X126631365Y-101999689D01*
X126631361Y-101999684D01*
X126631358Y-101999680D01*
X126399668Y-101726914D01*
X126328448Y-101659451D01*
X126139837Y-101480789D01*
X126139830Y-101480783D01*
X126139827Y-101480781D01*
X126072245Y-101429407D01*
X125854919Y-101264200D01*
X125548253Y-101079685D01*
X125548252Y-101079684D01*
X125548248Y-101079682D01*
X125548244Y-101079680D01*
X125223447Y-100929414D01*
X125223441Y-100929411D01*
X125223435Y-100929409D01*
X125053854Y-100872270D01*
X124884273Y-100815131D01*
X124534744Y-100738194D01*
X124178949Y-100699500D01*
X124178948Y-100699500D01*
X123821052Y-100699500D01*
X123821050Y-100699500D01*
X123465255Y-100738194D01*
X123115726Y-100815131D01*
X122859970Y-100901306D01*
X122776565Y-100929409D01*
X122776563Y-100929410D01*
X122776552Y-100929414D01*
X122451755Y-101079680D01*
X122451751Y-101079682D01*
X122284331Y-101180416D01*
X122145081Y-101264200D01*
X122056768Y-101331333D01*
X121860172Y-101480781D01*
X121860163Y-101480789D01*
X121600331Y-101726914D01*
X121368641Y-101999680D01*
X121368634Y-101999690D01*
X121167790Y-102295913D01*
X121167784Y-102295922D01*
X121000151Y-102612111D01*
X121000142Y-102612129D01*
X120867674Y-102944600D01*
X120867672Y-102944607D01*
X120771932Y-103289434D01*
X120771926Y-103289460D01*
X120714029Y-103642614D01*
X120714028Y-103642627D01*
X120714028Y-103642629D01*
X120694652Y-104000000D01*
X87155300Y-104000000D01*
X87155300Y-103999993D01*
X87136135Y-103768702D01*
X87136133Y-103768691D01*
X87104209Y-103642629D01*
X87079157Y-103543700D01*
X87044432Y-103464536D01*
X87035530Y-103395239D01*
X87065507Y-103332126D01*
X87124846Y-103295239D01*
X87194708Y-103296289D01*
X87200380Y-103298199D01*
X87445446Y-103387396D01*
X87445452Y-103387397D01*
X87445454Y-103387398D01*
X87762858Y-103462625D01*
X87762865Y-103462626D01*
X87762874Y-103462628D01*
X88086889Y-103500500D01*
X88086896Y-103500500D01*
X88413104Y-103500500D01*
X88413111Y-103500500D01*
X88737126Y-103462628D01*
X88737135Y-103462625D01*
X88737141Y-103462625D01*
X89046385Y-103389332D01*
X89054554Y-103387396D01*
X89361101Y-103275822D01*
X89652623Y-103129414D01*
X89925177Y-102950153D01*
X90175077Y-102740462D01*
X90398943Y-102503177D01*
X90593749Y-102241508D01*
X90756859Y-101958992D01*
X90886069Y-101659451D01*
X90979630Y-101346934D01*
X90994219Y-101264199D01*
X91036276Y-101025680D01*
X91036275Y-101025680D01*
X91036278Y-101025669D01*
X91055246Y-100700000D01*
X91036278Y-100374331D01*
X91022926Y-100298608D01*
X90979632Y-100053075D01*
X90979630Y-100053067D01*
X90963743Y-100000000D01*
X90886069Y-99740549D01*
X90756859Y-99441008D01*
X90593749Y-99158492D01*
X90593748Y-99158490D01*
X90398954Y-98896837D01*
X90398947Y-98896829D01*
X90398943Y-98896823D01*
X90175077Y-98659538D01*
X90175069Y-98659531D01*
X90175068Y-98659530D01*
X89925184Y-98449852D01*
X89925179Y-98449848D01*
X89925177Y-98449847D01*
X89652623Y-98270586D01*
X89607651Y-98248000D01*
X89361108Y-98124181D01*
X89361102Y-98124178D01*
X89054566Y-98012608D01*
X89054545Y-98012601D01*
X88737141Y-97937374D01*
X88737126Y-97937372D01*
X88413111Y-97899500D01*
X88086889Y-97899500D01*
X87803375Y-97932638D01*
X87762873Y-97937372D01*
X87762858Y-97937374D01*
X87445454Y-98012601D01*
X87445433Y-98012608D01*
X87138897Y-98124178D01*
X87138891Y-98124181D01*
X86847380Y-98270584D01*
X86574815Y-98449852D01*
X86324931Y-98659530D01*
X86324930Y-98659531D01*
X86324924Y-98659536D01*
X86324923Y-98659538D01*
X86101057Y-98896823D01*
X86101054Y-98896826D01*
X86101052Y-98896829D01*
X86101045Y-98896837D01*
X85906251Y-99158490D01*
X85743143Y-99441003D01*
X85743137Y-99441016D01*
X85613931Y-99740547D01*
X85520369Y-100053067D01*
X85520367Y-100053075D01*
X85463723Y-100374319D01*
X85463722Y-100374330D01*
X85444754Y-100699996D01*
X85444754Y-100700003D01*
X85463722Y-101025669D01*
X85463723Y-101025680D01*
X85520367Y-101346924D01*
X85520369Y-101346932D01*
X85613931Y-101659452D01*
X85743137Y-101958983D01*
X85743143Y-101958996D01*
X85906251Y-102241509D01*
X86032351Y-102410890D01*
X86056595Y-102476419D01*
X86041563Y-102544652D01*
X85992027Y-102593927D01*
X85923715Y-102608598D01*
X85912480Y-102607247D01*
X85866050Y-102599500D01*
X85866049Y-102599500D01*
X85633951Y-102599500D01*
X85588164Y-102607140D01*
X85405015Y-102637702D01*
X85185504Y-102713061D01*
X85185495Y-102713064D01*
X84981371Y-102823531D01*
X84981365Y-102823535D01*
X84798222Y-102966081D01*
X84798219Y-102966084D01*
X84641015Y-103136854D01*
X84603808Y-103193804D01*
X84550662Y-103239161D01*
X84481430Y-103248584D01*
X84418095Y-103219082D01*
X84396192Y-103193804D01*
X84358984Y-103136854D01*
X84358982Y-103136852D01*
X84358979Y-103136847D01*
X84201784Y-102966087D01*
X84201779Y-102966083D01*
X84201777Y-102966081D01*
X84018634Y-102823535D01*
X84018628Y-102823531D01*
X83814504Y-102713064D01*
X83814495Y-102713061D01*
X83594984Y-102637702D01*
X83412474Y-102607247D01*
X83366049Y-102599500D01*
X83133951Y-102599500D01*
X83088164Y-102607140D01*
X82905015Y-102637702D01*
X82685504Y-102713061D01*
X82685495Y-102713064D01*
X82481371Y-102823531D01*
X82481365Y-102823535D01*
X82298222Y-102966081D01*
X82298219Y-102966084D01*
X82141015Y-103136854D01*
X82103808Y-103193804D01*
X82050662Y-103239161D01*
X81981430Y-103248584D01*
X81918095Y-103219082D01*
X81896192Y-103193804D01*
X81858984Y-103136854D01*
X81858982Y-103136852D01*
X81858979Y-103136847D01*
X81701784Y-102966087D01*
X81701779Y-102966083D01*
X81701777Y-102966081D01*
X81518634Y-102823535D01*
X81518628Y-102823531D01*
X81314504Y-102713064D01*
X81314495Y-102713061D01*
X81094984Y-102637702D01*
X80912474Y-102607247D01*
X80866049Y-102599500D01*
X80633951Y-102599500D01*
X80633949Y-102599500D01*
X80587518Y-102607247D01*
X80518153Y-102598864D01*
X80464332Y-102554310D01*
X80443142Y-102487731D01*
X80461312Y-102420265D01*
X80467648Y-102410890D01*
X80498674Y-102369216D01*
X80593749Y-102241508D01*
X80756859Y-101958992D01*
X80886069Y-101659451D01*
X80979630Y-101346934D01*
X80994219Y-101264199D01*
X81036276Y-101025680D01*
X81036275Y-101025680D01*
X81036278Y-101025669D01*
X81055246Y-100700000D01*
X81036278Y-100374331D01*
X81022926Y-100298608D01*
X80979632Y-100053075D01*
X80979630Y-100053067D01*
X80963743Y-100000000D01*
X80886069Y-99740549D01*
X80756859Y-99441008D01*
X80593749Y-99158492D01*
X80593748Y-99158490D01*
X80398954Y-98896837D01*
X80398947Y-98896829D01*
X80398943Y-98896823D01*
X80175077Y-98659538D01*
X80175069Y-98659531D01*
X80175068Y-98659530D01*
X79925184Y-98449852D01*
X79925179Y-98449848D01*
X79925177Y-98449847D01*
X79652623Y-98270586D01*
X79607651Y-98248000D01*
X79361108Y-98124181D01*
X79361102Y-98124178D01*
X79054566Y-98012608D01*
X79054545Y-98012601D01*
X78737141Y-97937374D01*
X78737126Y-97937372D01*
X78413111Y-97899500D01*
X78086889Y-97899500D01*
X77803375Y-97932638D01*
X77762873Y-97937372D01*
X77762858Y-97937374D01*
X77445454Y-98012601D01*
X77445433Y-98012608D01*
X77138897Y-98124178D01*
X77138891Y-98124181D01*
X76847380Y-98270584D01*
X76574815Y-98449852D01*
X76324931Y-98659530D01*
X76324930Y-98659531D01*
X76324924Y-98659536D01*
X76324923Y-98659538D01*
X76101057Y-98896823D01*
X76101054Y-98896826D01*
X76101052Y-98896829D01*
X76101045Y-98896837D01*
X75906251Y-99158490D01*
X75743143Y-99441003D01*
X75743137Y-99441016D01*
X75613931Y-99740547D01*
X75520369Y-100053067D01*
X75520367Y-100053075D01*
X75463723Y-100374319D01*
X75463722Y-100374330D01*
X75444754Y-100699996D01*
X75444754Y-100700003D01*
X25320000Y-100700003D01*
X25320000Y-100644286D01*
X25304581Y-100492661D01*
X25243700Y-100298618D01*
X25243695Y-100298608D01*
X25144994Y-100120784D01*
X25144994Y-100120783D01*
X25012521Y-99966469D01*
X25012520Y-99966468D01*
X24851695Y-99841981D01*
X24669093Y-99752411D01*
X24570000Y-99726753D01*
X24570000Y-100528889D01*
X24545543Y-100489390D01*
X24456038Y-100421799D01*
X24348160Y-100391105D01*
X24236479Y-100401454D01*
X24136078Y-100451448D01*
X24070000Y-100523930D01*
X24070000Y-99721633D01*
X24068053Y-99721931D01*
X24068047Y-99721933D01*
X23877342Y-99792562D01*
X23877335Y-99792565D01*
X23704732Y-99900149D01*
X23557331Y-100040264D01*
X23557330Y-100040266D01*
X23441143Y-100207195D01*
X23360940Y-100394092D01*
X23320000Y-100593309D01*
X23320000Y-101110286D01*
X23300315Y-101177325D01*
X23247511Y-101223080D01*
X23178353Y-101233024D01*
X23148548Y-101224847D01*
X23041283Y-101180417D01*
X23041278Y-101180415D01*
X22927981Y-101165500D01*
X22927980Y-101165500D01*
X22852020Y-101165500D01*
X22852019Y-101165500D01*
X22738721Y-101180415D01*
X22738719Y-101180416D01*
X22597752Y-101238806D01*
X22476696Y-101331696D01*
X22383806Y-101452752D01*
X22325416Y-101593719D01*
X22325415Y-101593721D01*
X22305500Y-101744998D01*
X22305500Y-101745001D01*
X17694500Y-101745001D01*
X17694500Y-101745000D01*
X17683237Y-101659451D01*
X17674584Y-101593721D01*
X17674584Y-101593720D01*
X17616192Y-101452750D01*
X17523304Y-101331696D01*
X17402250Y-101238808D01*
X17402249Y-101238807D01*
X17402247Y-101238806D01*
X17261280Y-101180416D01*
X17261278Y-101180415D01*
X17147981Y-101165500D01*
X17147980Y-101165500D01*
X17072020Y-101165500D01*
X17072019Y-101165500D01*
X16958721Y-101180415D01*
X16958716Y-101180417D01*
X16851452Y-101224847D01*
X16781983Y-101232316D01*
X16719504Y-101201040D01*
X16683852Y-101140951D01*
X16680000Y-101110286D01*
X16680000Y-100644286D01*
X16664581Y-100492661D01*
X16603700Y-100298618D01*
X16603695Y-100298608D01*
X16504994Y-100120784D01*
X16504994Y-100120783D01*
X16372521Y-99966469D01*
X16372520Y-99966468D01*
X16211695Y-99841981D01*
X16029093Y-99752411D01*
X15930000Y-99726753D01*
X15930000Y-100528889D01*
X15905543Y-100489390D01*
X15816038Y-100421799D01*
X15708160Y-100391105D01*
X15596479Y-100401454D01*
X15496078Y-100451448D01*
X15430000Y-100523930D01*
X15430000Y-99721633D01*
X15428053Y-99721931D01*
X15428047Y-99721933D01*
X15237342Y-99792562D01*
X15237335Y-99792565D01*
X15064732Y-99900149D01*
X14917331Y-100040264D01*
X14917330Y-100040266D01*
X14801143Y-100207195D01*
X14720940Y-100394092D01*
X14680000Y-100593309D01*
X14680000Y-100995000D01*
X15380000Y-100995000D01*
X15380000Y-101495000D01*
X14680000Y-101495000D01*
X14680000Y-101845713D01*
X6500577Y-101845713D01*
X6399668Y-101726914D01*
X6328448Y-101659451D01*
X6139837Y-101480789D01*
X6139830Y-101480783D01*
X6139827Y-101480781D01*
X6072245Y-101429407D01*
X5854919Y-101264200D01*
X5548253Y-101079685D01*
X5548252Y-101079684D01*
X5548248Y-101079682D01*
X5548244Y-101079680D01*
X5223447Y-100929414D01*
X5223441Y-100929411D01*
X5223435Y-100929409D01*
X5053854Y-100872270D01*
X4884273Y-100815131D01*
X4534744Y-100738194D01*
X4178949Y-100699500D01*
X4178948Y-100699500D01*
X3821052Y-100699500D01*
X3821050Y-100699500D01*
X3465255Y-100738194D01*
X3115726Y-100815131D01*
X2859970Y-100901306D01*
X2776565Y-100929409D01*
X2776563Y-100929410D01*
X2776552Y-100929414D01*
X2451755Y-101079680D01*
X2451751Y-101079682D01*
X2284331Y-101180416D01*
X2145081Y-101264200D01*
X2056768Y-101331333D01*
X1860172Y-101480781D01*
X1860163Y-101480789D01*
X1600331Y-101726914D01*
X1368641Y-101999680D01*
X1368634Y-101999690D01*
X1167790Y-102295913D01*
X1167784Y-102295922D01*
X1000151Y-102612111D01*
X1000142Y-102612129D01*
X867674Y-102944600D01*
X867672Y-102944607D01*
X771932Y-103289434D01*
X771926Y-103289460D01*
X714029Y-103642614D01*
X714028Y-103642627D01*
X714028Y-103642629D01*
X694652Y-104000000D01*
X25566Y-104000000D01*
X25500Y-103997128D01*
X25500Y-95124000D01*
X45185Y-95056961D01*
X97989Y-95011206D01*
X149500Y-95000000D01*
X28376000Y-95000000D01*
X28443039Y-95019685D01*
G37*
%TD.AperFunction*%
%TD*%
M02*
